<svg width="22" height="23" viewBox="0 0 22 23" fill="none" xmlns="http://www.w3.org/2000/svg">
<path d="M11.0002 20.534C16.0628 20.534 20.1668 16.43 20.1668 11.3673C20.1668 6.30474 16.0628 2.20068 11.0002 2.20068C5.93755 2.20068 1.8335 6.30474 1.8335 11.3673C1.8335 16.43 5.93755 20.534 11.0002 20.534Z" fill="#57A4FE"/>
<path d="M9.69832 14.6488C9.51499 14.6488 9.34082 14.5755 9.21249 14.4472L6.61832 11.853C6.35249 11.5872 6.35249 11.1472 6.61832 10.8813C6.88415 10.6155 7.32415 10.6155 7.58999 10.8813L9.69832 12.9897L14.41 8.27799C14.6758 8.01215 15.1158 8.01215 15.3817 8.27799C15.6475 8.54382 15.6475 8.98382 15.3817 9.24965L10.1842 14.4472C10.0558 14.5755 9.88165 14.6488 9.69832 14.6488Z" fill="white"/>
</svg>
