<svg width="24" height="24" viewBox="0 0 24 24" fill="none" xmlns="http://www.w3.org/2000/svg">
<path fill-rule="evenodd" clip-rule="evenodd" d="M8.41799 3.25113C8.69867 2.65942 9.30155 2.25024 10 2.25024H14C14.6984 2.25024 15.3013 2.65942 15.582 3.25113C16.2655 3.2561 16.7983 3.28748 17.2738 3.47334C17.842 3.69541 18.3362 4.07291 18.6999 4.56266C19.0668 5.05675 19.2391 5.69004 19.4762 6.56169L20.2181 9.28296L20.4985 10.1243C20.5065 10.1341 20.5144 10.1441 20.5222 10.1541C21.4231 11.3079 20.9941 13.0238 20.1362 16.4556C19.5905 18.6383 19.3176 19.7296 18.5039 20.365C17.6901 21.0004 16.5652 21.0004 14.3153 21.0004H9.68462C7.43476 21.0004 6.30983 21.0004 5.49605 20.365C4.68227 19.7296 4.40943 18.6383 3.86376 16.4556C3.00581 13.0238 2.57684 11.3079 3.47767 10.1541C3.48555 10.144 3.4935 10.134 3.50152 10.1241L3.7819 9.28296L4.52384 6.56169C4.76092 5.69004 4.93316 5.05675 5.30009 4.56266C5.66381 4.07291 6.15802 3.69541 6.72621 3.47334C7.20175 3.28748 7.73447 3.2561 8.41799 3.25113ZM8.41951 4.75255C7.75763 4.75924 7.49204 4.78452 7.27224 4.87043C6.96629 4.99 6.70018 5.19327 6.50433 5.45699C6.32822 5.69413 6.22488 6.02544 5.93398 7.09231L5.36442 9.18115C6.38451 9.00036 7.77753 9.00036 9.68462 9.00036H14.3153C16.2224 9.00036 17.6155 9.00036 18.6356 9.18117L18.066 7.09231C17.7751 6.02544 17.6718 5.69413 17.4957 5.45699C17.2998 5.19327 17.0337 4.99 16.7278 4.87043C16.508 4.78452 16.2424 4.75924 15.5805 4.75255C15.2992 5.34254 14.6972 5.75024 14 5.75024H10C9.30281 5.75024 8.70084 5.34254 8.41951 4.75255Z" fill="#0373F3"/>
</svg>
