<svg width="24" height="24" viewBox="0 0 24 24" fill="none" xmlns="http://www.w3.org/2000/svg">
<path fill-rule="evenodd" clip-rule="evenodd" d="M12 21.7502C17.3848 21.7502 21.75 17.385 21.75 12.0002C21.75 6.61547 17.3848 2.25024 12 2.25024C6.61522 2.25024 2.25 6.61547 2.25 12.0002C2.25 17.385 6.61522 21.7502 12 21.7502ZM16.8006 10.2555C17.1918 9.86566 17.193 9.2325 16.8031 8.84128C16.4133 8.45006 15.7801 8.44892 15.3889 8.83875L11.1794 13.0333L9.45812 11.3071C9.06816 10.916 8.43499 10.9151 8.04391 11.3051C7.65282 11.695 7.65192 12.3282 8.04188 12.7193L10.469 15.1534C10.8588 15.5444 11.4918 15.5454 11.8829 15.1556L16.8006 10.2555Z" fill="#1C64F2"/>
</svg>
