<svg width="48" height="48" viewBox="0 0 48 48" fill="none" xmlns="http://www.w3.org/2000/svg">
<path opacity="0.5" d="M6 26.0737C6 23.8677 6 22.7647 6.78528 22.1214C7.06409 21.8929 7.40294 21.7101 7.78059 21.5844C8.84425 21.2302 10.2422 21.579 13.038 22.2766C15.1725 22.8091 16.2398 23.0754 17.3182 23.0479C17.7143 23.0377 18.108 22.9983 18.4937 22.93C19.5438 22.7442 20.4799 22.2771 22.3519 21.3429L25.1167 19.9632C27.5148 18.7665 28.7138 18.1682 30.0901 18.0302C31.4665 17.8923 32.8336 18.2334 35.5678 18.9156L37.8974 19.4968C39.8774 19.9909 40.8675 20.2379 41.4337 20.826C42 21.4141 42 22.1953 42 23.7576V35.9263C42 38.1323 42 39.2353 41.2147 39.8786C40.9359 40.107 40.5971 40.2899 40.2194 40.4156C39.1558 40.7698 37.7578 40.421 34.962 39.7234C32.8275 39.1909 31.7602 38.9246 30.6818 38.9521C30.2857 38.9622 29.892 39.0017 29.5063 39.07C28.4562 39.2558 27.5201 39.7229 25.6481 40.6571L22.8833 42.0368C20.4852 43.2335 19.2862 43.8318 17.9099 43.9698C16.5335 44.1077 15.1664 43.7666 12.4322 43.0844L10.1026 42.5032C8.12258 42.0091 7.13255 41.7621 6.56627 41.174C6 40.5859 6 39.8047 6 38.2424V26.0737Z" fill="#025FCA"/>
<path fill-rule="evenodd" clip-rule="evenodd" d="M24 4C17.3726 4 12 9.10423 12 15.4006C12 21.6477 15.83 28.9374 21.8056 31.5442C23.1986 32.1519 24.8014 32.1519 26.1944 31.5442C32.17 28.9374 36 21.6477 36 15.4006C36 9.10423 30.6274 4 24 4ZM24 20C26.2091 20 28 18.2091 28 16C28 13.7909 26.2091 12 24 12C21.7909 12 20 13.7909 20 16C20 18.2091 21.7909 20 24 20Z" fill="#025FCA"/>
</svg>
