<svg width="24" height="24" viewBox="0 0 24 24" fill="none" xmlns="http://www.w3.org/2000/svg">
<path d="M12.001 2.00024C17.6345 2.00024 22.001 6.12674 22.001 11.7002C22.001 17.2737 17.6345 21.4002 12.001 21.4002C11.0233 21.4025 10.0497 21.2732 9.10648 21.0157C8.92907 20.967 8.7403 20.981 8.57198 21.0552L6.58748 21.9312C6.34398 22.0388 6.06291 22.0182 5.83768 21.8763C5.61244 21.7344 5.47254 21.4898 5.46448 21.2237L5.40998 19.4447C5.40257 19.2259 5.30547 19.0198 5.14148 18.8747C3.19598 17.1347 2.00098 14.6157 2.00098 11.7002C2.00098 6.12674 6.36748 2.00024 12.001 2.00024ZM5.99598 14.5367C5.71398 14.9842 6.26398 15.4882 6.68498 15.1687L9.84048 12.7737C10.0543 12.6124 10.3491 12.6124 10.563 12.7737L12.8995 14.5237C13.2346 14.7751 13.6596 14.8749 14.0716 14.7989C14.4836 14.7229 14.8451 14.4781 15.0685 14.1237L18.006 9.46374C18.288 9.01624 17.738 8.51224 17.317 8.83174L14.1615 11.2267C13.9476 11.388 13.6528 11.388 13.439 11.2267L11.1025 9.47674C10.7673 9.22535 10.3423 9.12556 9.93034 9.20154C9.51834 9.27752 9.15689 9.52234 8.93348 9.87674L5.99598 14.5367Z" fill="#024897"/>
</svg>
