<svg width="24" height="24" viewBox="0 0 24 24" fill="none" xmlns="http://www.w3.org/2000/svg">
<path fill-rule="evenodd" clip-rule="evenodd" d="M9.5924 3.20052C9.34888 3.40805 9.22711 3.51182 9.09706 3.59898C8.79896 3.79879 8.46417 3.93746 8.1121 4.00697C7.95851 4.03729 7.79903 4.05002 7.48008 4.07547C6.6787 4.13942 6.278 4.1714 5.94371 4.28947C5.17051 4.56257 4.56233 5.17075 4.28923 5.94395C4.17115 6.27825 4.13918 6.67894 4.07522 7.48032C4.04977 7.79928 4.03705 7.95875 4.00672 8.11234C3.93721 8.46442 3.79854 8.7992 3.59874 9.09731C3.51158 9.22735 3.40781 9.34912 3.20027 9.59265C2.67883 10.2045 2.4181 10.5105 2.26522 10.8304C1.91159 11.5702 1.91159 12.4303 2.26522 13.1701C2.41811 13.49 2.67883 13.796 3.20027 14.4078C3.40778 14.6513 3.51158 14.7731 3.59874 14.9032C3.79854 15.2013 3.93721 15.5361 4.00672 15.8881C4.03705 16.0417 4.04977 16.2012 4.07522 16.5202C4.13918 17.3215 4.17115 17.7222 4.28923 18.0565C4.56233 18.8297 5.17051 19.4379 5.94371 19.711C6.278 19.8291 6.6787 19.8611 7.48008 19.925C7.79903 19.9505 7.95851 19.9632 8.1121 19.9935C8.46417 20.063 8.79896 20.2017 9.09706 20.4015C9.22711 20.4887 9.34887 20.5924 9.5924 20.8C10.2043 21.3214 10.5102 21.5821 10.8301 21.735C11.57 22.0886 12.43 22.0886 13.1699 21.735C13.4898 21.5821 13.7957 21.3214 14.4076 20.8C14.6511 20.5924 14.7729 20.4887 14.9029 20.4015C15.201 20.2017 15.5358 20.063 15.8879 19.9935C16.0415 19.9632 16.201 19.9505 16.5199 19.925C17.3213 19.8611 17.722 19.8291 18.0563 19.711C18.8295 19.4379 19.4377 18.8297 19.7108 18.0565C19.8288 17.7222 19.8608 17.3215 19.9248 16.5202C19.9502 16.2012 19.963 16.0417 19.9933 15.8881C20.0628 15.5361 20.2015 15.2013 20.4013 14.9032C20.4884 14.7731 20.5922 14.6514 20.7997 14.4078C21.3212 13.796 21.5819 13.49 21.7348 13.1701C22.0884 12.4303 22.0884 11.5702 21.7348 10.8304C21.5819 10.5105 21.3212 10.2045 20.7997 9.59265C20.5922 9.34912 20.4884 9.22735 20.4013 9.0973C20.2015 8.7992 20.0628 8.46442 19.9933 8.11234C19.963 7.95876 19.9502 7.79928 19.9248 7.48032C19.8608 6.67894 19.8288 6.27825 19.7108 5.94395C19.4377 5.17075 18.8295 4.56257 18.0563 4.28947C17.722 4.1714 17.3213 4.13942 16.5199 4.07547C16.201 4.05002 16.0415 4.03729 15.8879 4.00697C15.5358 3.93746 15.201 3.79879 14.9029 3.59898C14.7729 3.51182 14.6511 3.40805 14.4076 3.20052C13.7957 2.67907 13.4898 2.41835 13.1699 2.26546C12.43 1.91184 11.57 1.91184 10.8301 2.26546C10.5102 2.41835 10.2043 2.67908 9.5924 3.20052ZM15.8309 8.16983C16.1487 8.48767 16.1487 9.00297 15.8309 9.32081L9.32003 15.8317C9.0022 16.1495 8.48689 16.1495 8.16906 15.8317C7.85123 15.5139 7.85123 14.9985 8.16906 14.6807L14.6799 8.16983C14.9978 7.852 15.5131 7.852 15.8309 8.16983ZM15.798 14.7136C15.798 15.3129 15.3122 15.7988 14.7129 15.7988C14.1135 15.7988 13.6277 15.3129 13.6277 14.7136C13.6277 14.1143 14.1135 13.6285 14.7129 13.6285C15.3122 13.6285 15.798 14.1143 15.798 14.7136ZM9.28712 10.373C9.88643 10.373 10.3723 9.8872 10.3723 9.28789C10.3723 8.68858 9.88643 8.20275 9.28712 8.20275C8.68781 8.20275 8.20197 8.68858 8.20197 9.28789C8.20197 9.8872 8.68781 10.373 9.28712 10.373Z" fill="white"/>
<path fill-rule="evenodd" clip-rule="evenodd" d="M9.5924 3.20052C9.34888 3.40805 9.22711 3.51182 9.09706 3.59898C8.79896 3.79879 8.46417 3.93746 8.1121 4.00697C7.95851 4.03729 7.79903 4.05002 7.48008 4.07547C6.6787 4.13942 6.278 4.1714 5.94371 4.28947C5.17051 4.56257 4.56233 5.17075 4.28923 5.94395C4.17115 6.27825 4.13918 6.67894 4.07522 7.48032C4.04977 7.79928 4.03705 7.95875 4.00672 8.11234C3.93721 8.46442 3.79854 8.7992 3.59874 9.09731C3.51158 9.22735 3.40781 9.34912 3.20027 9.59265C2.67883 10.2045 2.4181 10.5105 2.26522 10.8304C1.91159 11.5702 1.91159 12.4303 2.26522 13.1701C2.41811 13.49 2.67883 13.796 3.20027 14.4078C3.40778 14.6513 3.51158 14.7731 3.59874 14.9032C3.79854 15.2013 3.93721 15.5361 4.00672 15.8881C4.03705 16.0417 4.04977 16.2012 4.07522 16.5202C4.13918 17.3215 4.17115 17.7222 4.28923 18.0565C4.56233 18.8297 5.17051 19.4379 5.94371 19.711C6.278 19.8291 6.6787 19.8611 7.48008 19.925C7.79903 19.9505 7.95851 19.9632 8.1121 19.9935C8.46417 20.063 8.79896 20.2017 9.09706 20.4015C9.22711 20.4887 9.34887 20.5924 9.5924 20.8C10.2043 21.3214 10.5102 21.5821 10.8301 21.735C11.57 22.0886 12.43 22.0886 13.1699 21.735C13.4898 21.5821 13.7957 21.3214 14.4076 20.8C14.6511 20.5924 14.7729 20.4887 14.9029 20.4015C15.201 20.2017 15.5358 20.063 15.8879 19.9935C16.0415 19.9632 16.201 19.9505 16.5199 19.925C17.3213 19.8611 17.722 19.8291 18.0563 19.711C18.8295 19.4379 19.4377 18.8297 19.7108 18.0565C19.8288 17.7222 19.8608 17.3215 19.9248 16.5202C19.9502 16.2012 19.963 16.0417 19.9933 15.8881C20.0628 15.5361 20.2015 15.2013 20.4013 14.9032C20.4884 14.7731 20.5922 14.6514 20.7997 14.4078C21.3212 13.796 21.5819 13.49 21.7348 13.1701C22.0884 12.4303 22.0884 11.5702 21.7348 10.8304C21.5819 10.5105 21.3212 10.2045 20.7997 9.59265C20.5922 9.34912 20.4884 9.22735 20.4013 9.0973C20.2015 8.7992 20.0628 8.46442 19.9933 8.11234C19.963 7.95876 19.9502 7.79928 19.9248 7.48032C19.8608 6.67894 19.8288 6.27825 19.7108 5.94395C19.4377 5.17075 18.8295 4.56257 18.0563 4.28947C17.722 4.1714 17.3213 4.13942 16.5199 4.07547C16.201 4.05002 16.0415 4.03729 15.8879 4.00697C15.5358 3.93746 15.201 3.79879 14.9029 3.59898C14.7729 3.51182 14.6511 3.40805 14.4076 3.20052C13.7957 2.67907 13.4898 2.41835 13.1699 2.26546C12.43 1.91184 11.57 1.91184 10.8301 2.26546C10.5102 2.41835 10.2043 2.67908 9.5924 3.20052ZM15.8309 8.16983C16.1487 8.48767 16.1487 9.00297 15.8309 9.32081L9.32003 15.8317C9.0022 16.1495 8.48689 16.1495 8.16906 15.8317C7.85123 15.5139 7.85123 14.9985 8.16906 14.6807L14.6799 8.16983C14.9978 7.852 15.5131 7.852 15.8309 8.16983ZM15.798 14.7136C15.798 15.3129 15.3122 15.7988 14.7129 15.7988C14.1135 15.7988 13.6277 15.3129 13.6277 14.7136C13.6277 14.1143 14.1135 13.6285 14.7129 13.6285C15.3122 13.6285 15.798 14.1143 15.798 14.7136ZM9.28712 10.373C9.88643 10.373 10.3723 9.8872 10.3723 9.28789C10.3723 8.68858 9.88643 8.20275 9.28712 8.20275C8.68781 8.20275 8.20197 8.68858 8.20197 9.28789C8.20197 9.8872 8.68781 10.373 9.28712 10.373Z" fill="url(#paint0_linear_2225_5937)"/>
<defs>
<linearGradient id="paint0_linear_2225_5937" x1="12" y1="22.0003" x2="2.34052" y2="14.5877" gradientUnits="userSpaceOnUse">
<stop stop-color="#F5222D"/>
<stop offset="1" stop-color="#FF7875"/>
</linearGradient>
</defs>
</svg>
