<svg width="24" height="24" viewBox="0 0 24 24" fill="none" xmlns="http://www.w3.org/2000/svg">
<g clip-path="url(#clip0_2223_8608)">
<mask id="path-1-inside-1_2223_8608" fill="white">
<path fill-rule="evenodd" clip-rule="evenodd" d="M10.9353 0.0803223H13.0554C15.9672 0.0803223 17.6688 0.507999 19.1794 1.31786C20.6899 2.12771 21.8819 3.31064 22.6826 4.82118C23.4925 6.33169 23.9202 8.03329 23.9202 10.9451V13.0562C23.9202 15.968 23.4925 17.6696 22.6826 19.1801C21.8728 20.6906 20.6899 21.8827 19.1794 22.6835C17.6688 23.4933 15.9672 23.921 13.0554 23.921H10.9443C8.03251 23.921 6.33091 23.4933 4.8204 22.6835C3.3099 21.8736 2.11787 20.6906 1.31712 19.1801C0.507262 17.6696 0.0795898 15.968 0.0795898 13.0562V10.9451C0.0795898 8.03329 0.507262 6.33169 1.31712 4.82118C2.12697 3.31064 3.3099 2.11861 4.8204 1.31786C6.32184 0.507999 8.03251 0.0803223 10.9353 0.0803223ZM3.73382 20.9231C4.84881 21.0463 6.24283 20.7284 7.23264 20.2478C11.5307 22.6235 18.2494 22.51 22.3162 19.9074C22.4739 19.6708 22.6213 19.4247 22.758 19.1697C23.5709 17.6536 24.0001 15.9458 24.0001 13.0234V10.9046C24.0001 7.98216 23.5709 6.27437 22.758 4.75835C21.9544 3.24234 20.758 2.05509 19.242 1.24228C17.726 0.429479 16.0182 0.000244141 13.0957 0.000244141H10.9679C8.47881 0.000244141 6.86304 0.313566 5.50545 0.91173C5.43125 0.978182 5.35843 1.04577 5.28715 1.11449C1.30422 4.95399 1.00146 13.2767 4.37884 17.7978C4.38261 17.8045 4.38678 17.8112 4.39137 17.818C4.91193 18.5851 4.40963 19.9276 3.62423 20.713C3.49637 20.8318 3.54203 20.9048 3.73382 20.9231Z"/>
</mask>
<path fill-rule="evenodd" clip-rule="evenodd" d="M10.9353 0.0803223H13.0554C15.9672 0.0803223 17.6688 0.507999 19.1794 1.31786C20.6899 2.12771 21.8819 3.31064 22.6826 4.82118C23.4925 6.33169 23.9202 8.03329 23.9202 10.9451V13.0562C23.9202 15.968 23.4925 17.6696 22.6826 19.1801C21.8728 20.6906 20.6899 21.8827 19.1794 22.6835C17.6688 23.4933 15.9672 23.921 13.0554 23.921H10.9443C8.03251 23.921 6.33091 23.4933 4.8204 22.6835C3.3099 21.8736 2.11787 20.6906 1.31712 19.1801C0.507262 17.6696 0.0795898 15.968 0.0795898 13.0562V10.9451C0.0795898 8.03329 0.507262 6.33169 1.31712 4.82118C2.12697 3.31064 3.3099 2.11861 4.8204 1.31786C6.32184 0.507999 8.03251 0.0803223 10.9353 0.0803223ZM3.73382 20.9231C4.84881 21.0463 6.24283 20.7284 7.23264 20.2478C11.5307 22.6235 18.2494 22.51 22.3162 19.9074C22.4739 19.6708 22.6213 19.4247 22.758 19.1697C23.5709 17.6536 24.0001 15.9458 24.0001 13.0234V10.9046C24.0001 7.98216 23.5709 6.27437 22.758 4.75835C21.9544 3.24234 20.758 2.05509 19.242 1.24228C17.726 0.429479 16.0182 0.000244141 13.0957 0.000244141H10.9679C8.47881 0.000244141 6.86304 0.313566 5.50545 0.91173C5.43125 0.978182 5.35843 1.04577 5.28715 1.11449C1.30422 4.95399 1.00146 13.2767 4.37884 17.7978C4.38261 17.8045 4.38678 17.8112 4.39137 17.818C4.91193 18.5851 4.40963 19.9276 3.62423 20.713C3.49637 20.8318 3.54203 20.9048 3.73382 20.9231Z" fill="#024897"/>
<path d="M19.1794 1.31786L18.9431 1.75852L18.9431 1.75852L19.1794 1.31786ZM22.6826 4.82118L22.2409 5.05536L22.242 5.05744L22.6826 4.82118ZM19.1794 22.6835L18.9452 22.2417L18.9431 22.2428L19.1794 22.6835ZM4.8204 22.6835L4.58414 23.1241L4.58414 23.1241L4.8204 22.6835ZM1.31712 19.1801L1.75889 18.9459L1.75778 18.9439L1.31712 19.1801ZM1.31712 4.82118L1.75778 5.05744L1.75778 5.05743L1.31712 4.82118ZM4.8204 1.31786L5.05459 1.75963L5.05776 1.75792L4.8204 1.31786ZM3.73382 20.9231L3.78877 20.426L3.78116 20.4253L3.73382 20.9231ZM7.23264 20.2478L7.47451 19.8102L7.24756 19.6848L7.01427 19.798L7.23264 20.2478ZM22.3162 19.9074L22.5857 20.3285L22.6741 20.272L22.7322 20.1847L22.3162 19.9074ZM22.758 19.1697L22.3174 18.9334L22.3174 18.9334L22.758 19.1697ZM22.758 4.75835L22.3163 4.99254L22.3174 4.99462L22.758 4.75835ZM19.242 1.24228L19.4783 0.801621L19.4783 0.80162L19.242 1.24228ZM5.50545 0.91173L5.30385 0.454176L5.23112 0.486223L5.1719 0.539246L5.50545 0.91173ZM5.28715 1.11449L5.63416 1.47447L5.63418 1.47445L5.28715 1.11449ZM4.37884 17.7978L4.81421 17.5519L4.79851 17.5241L4.77941 17.4985L4.37884 17.7978ZM4.39137 17.818L3.9766 18.0972L3.97763 18.0987L4.39137 17.818ZM3.62423 20.713L3.9645 21.0794L3.97125 21.0731L3.97778 21.0666L3.62423 20.713ZM10.9353 0.0803223V0.580322H13.0554V0.0803223V-0.419678H10.9353V0.0803223ZM13.0554 0.0803223V0.580322C15.9116 0.580322 17.5257 0.99858 18.9431 1.75852L19.1794 1.31786L19.4156 0.877195C17.812 0.0174185 16.0229 -0.419678 13.0554 -0.419678V0.0803223ZM19.1794 1.31786L18.9431 1.75852C20.3682 2.52256 21.4877 3.63456 22.2409 5.05536L22.6826 4.82118L23.1244 4.587C22.2761 2.98673 21.0116 1.73285 19.4156 0.877194L19.1794 1.31786ZM22.6826 4.82118L22.242 5.05744C23.0019 6.47484 23.4202 8.0889 23.4202 10.9451H23.9202H24.4202C24.4202 7.97768 23.9831 6.18854 23.1233 4.58492L22.6826 4.82118ZM23.9202 10.9451H23.4202V13.0562H23.9202H24.4202V10.9451H23.9202ZM23.9202 13.0562H23.4202C23.4202 15.9124 23.0019 17.5265 22.242 18.9439L22.6826 19.1801L23.1233 19.4164C23.9831 17.8128 24.4202 16.0236 24.4202 13.0562H23.9202ZM22.6826 19.1801L22.242 18.9439C21.4779 20.369 20.3659 21.4885 18.9452 22.2417L19.1794 22.6835L19.4135 23.1252C21.0138 22.2769 22.2676 21.0123 23.1233 19.4164L22.6826 19.1801ZM19.1794 22.6835L18.9431 22.2428C17.5257 23.0027 15.9116 23.421 13.0554 23.421V23.921V24.421C16.0229 24.421 17.812 23.9839 19.4156 23.1241L19.1794 22.6835ZM13.0554 23.921V23.421H10.9443V23.921V24.421H13.0554V23.921ZM10.9443 23.921V23.421C8.08812 23.421 6.47406 23.0027 5.05666 22.2428L4.8204 22.6835L4.58414 23.1241C6.18776 23.9839 7.9769 24.421 10.9443 24.421V23.921ZM4.8204 22.6835L5.05666 22.2428C3.63159 21.4788 2.51207 20.3667 1.75888 18.9459L1.31712 19.1801L0.875353 19.4143C1.72367 21.0146 2.98821 22.2685 4.58414 23.1241L4.8204 22.6835ZM1.31712 19.1801L1.75778 18.9439C0.997843 17.5265 0.57959 15.9124 0.57959 13.0562H0.0795898H-0.42041C-0.42041 16.0236 0.016681 17.8128 0.876457 19.4164L1.31712 19.1801ZM0.0795898 13.0562H0.57959V10.9451H0.0795898H-0.42041V13.0562H0.0795898ZM0.0795898 10.9451H0.57959C0.57959 8.0889 0.997843 6.47484 1.75778 5.05744L1.31712 4.82118L0.876457 4.58492C0.016681 6.18854 -0.42041 7.97768 -0.42041 10.9451H0.0795898ZM1.31712 4.82118L1.75778 5.05743C2.52183 3.63233 3.63382 2.51281 5.05459 1.75962L4.8204 1.31786L4.58621 0.876092C2.98598 1.72441 1.73211 2.98896 0.876455 4.58492L1.31712 4.82118ZM4.8204 1.31786L5.05776 1.75792C6.46518 0.998779 8.08755 0.580322 10.9353 0.580322V0.0803223V-0.419678C7.97747 -0.419678 6.17849 0.0172202 4.58303 0.87779L4.8204 1.31786ZM3.73382 20.9231L3.67888 21.42C4.9068 21.5558 6.3956 21.21 7.451 20.6976L7.23264 20.2478L7.01427 19.798C6.09006 20.2467 4.79083 20.5369 3.78876 20.4261L3.73382 20.9231ZM7.23264 20.2478L6.99076 20.6854C9.23271 21.9246 12.0781 22.5025 14.8715 22.4444C17.6641 22.3862 20.4564 21.6912 22.5857 20.3285L22.3162 19.9074L22.0467 19.4862C20.1092 20.7262 17.5087 21.3892 14.8507 21.4446C12.1936 21.4999 9.53063 20.9467 7.47451 19.8102L7.23264 20.2478ZM22.3162 19.9074L22.7322 20.1847C22.899 19.9346 23.0545 19.6748 23.1987 19.4059L22.758 19.1697L22.3174 18.9334C22.188 19.1747 22.0489 19.407 21.9002 19.63L22.3162 19.9074ZM22.758 19.1697L23.1987 19.4059C24.0615 17.7968 24.5001 16.0014 24.5001 13.0234H24.0001H23.5001C23.5001 15.8902 23.0803 17.5105 22.3174 18.9334L22.758 19.1697ZM24.0001 13.0234H24.5001V10.9046H24.0001H23.5001V13.0234H24.0001ZM24.0001 10.9046H24.5001C24.5001 7.92656 24.0615 6.13122 23.1987 4.52209L22.758 4.75835L22.3174 4.99462C23.0803 6.41752 23.5001 8.03777 23.5001 10.9046H24.0001ZM22.758 4.75835L23.1998 4.52417C22.3486 2.91843 21.0797 1.66023 19.4783 0.801621L19.242 1.24228L19.0057 1.68294C20.4363 2.44995 21.5602 3.56625 22.3163 4.99254L22.758 4.75835ZM19.242 1.24228L19.4783 0.80162C17.8691 -0.0611017 16.0738 -0.499756 13.0957 -0.499756V0.000244141V0.500244C15.9626 0.500244 17.5828 0.920059 19.0057 1.68294L19.242 1.24228ZM13.0957 0.000244141V-0.499756H10.9679V0.000244141V0.500244H13.0957V0.000244141ZM10.9679 0.000244141V-0.499756C8.43614 -0.499756 6.74557 -0.181058 5.30385 0.454176L5.50545 0.91173L5.70706 1.36929C6.98051 0.80819 8.52148 0.500244 10.9679 0.500244V0.000244141ZM5.50545 0.91173L5.1719 0.539246C5.09327 0.609659 5.01595 0.681422 4.94012 0.754538L5.28715 1.11449L5.63418 1.47445C5.70091 1.41012 5.76922 1.3467 5.839 1.28421L5.50545 0.91173ZM5.28715 1.11449L4.94014 0.754517C2.82903 2.7896 1.72884 5.96824 1.57347 9.17636C1.41798 12.3868 2.20335 15.7211 3.97827 18.097L4.37884 17.7978L4.77941 17.4985C3.17695 15.3534 2.42501 12.2658 2.5723 9.22473C2.71969 6.18135 3.76235 3.27888 5.63416 1.47447L5.28715 1.11449ZM4.37884 17.7978L3.94347 18.0437C3.95425 18.0627 3.96541 18.0806 3.97661 18.0972L4.39137 17.818L4.80613 17.5388C4.80815 17.5418 4.81097 17.5462 4.81421 17.5519L4.37884 17.7978ZM4.39137 17.818L3.97763 18.0987C4.11766 18.3051 4.15655 18.6546 4.01857 19.1152C3.88433 19.5633 3.60651 20.0236 3.27068 20.3595L3.62423 20.713L3.97778 21.0666C4.42735 20.617 4.79339 20.0134 4.97651 19.4021C5.15589 18.8034 5.18564 18.098 4.8051 17.5372L4.39137 17.818ZM3.62423 20.713L3.28396 20.3467C3.22954 20.3972 3.15417 20.4775 3.10432 20.5885C3.04834 20.7132 3.01593 20.905 3.12075 21.0961C3.2117 21.262 3.35778 21.3349 3.43806 21.3658C3.52596 21.3997 3.61441 21.414 3.68648 21.4208L3.73382 20.9231L3.78116 20.4253C3.75734 20.423 3.76817 20.4213 3.79755 20.4327C3.81933 20.4411 3.92602 20.4848 3.99756 20.6153C4.08298 20.7711 4.05114 20.9212 4.01657 20.9982C3.98812 21.0615 3.95498 21.0882 3.9645 21.0794L3.62423 20.713Z" fill="#024897" mask="url(#path-1-inside-1_2223_8608)"/>
<path d="M9.8701 8.16025H5.2021V9.16119H8.44148L5.24756 13.1195C5.14748 13.265 5.07471 13.4016 5.07471 13.7109V13.9657H9.4788C9.6972 13.9657 9.87922 13.7837 9.87922 13.5653V13.0285H6.47602L9.4788 9.26127C9.52431 9.2067 9.60619 9.10662 9.64263 9.06111L9.66082 9.0338C9.83371 8.77902 9.8701 8.56062 9.8701 8.29676V8.16025Z" fill="#024897"/>
<path d="M15.8118 13.9657H16.476V8.16025H15.4751V13.629C15.4751 13.811 15.6207 13.9657 15.8118 13.9657Z" fill="#024897"/>
<path d="M12.3906 9.45259C11.1349 9.45259 10.1157 10.4717 10.1157 11.7275C10.1157 12.9832 11.1349 14.0023 12.3906 14.0023C13.6463 14.0023 14.6655 12.9832 14.6655 11.7275C14.6746 10.4717 13.6554 9.45259 12.3906 9.45259ZM12.3906 13.0651C11.6535 13.0651 11.053 12.4645 11.053 11.7275C11.053 10.9904 11.6535 10.3898 12.3906 10.3898C13.1276 10.3898 13.7282 10.9904 13.7282 11.7275C13.7282 12.4645 13.1367 13.0651 12.3906 13.0651Z" fill="#024897"/>
<path d="M19.4337 9.41602C18.1688 9.41602 17.1406 10.4443 17.1406 11.7091C17.1406 12.9739 18.1688 14.0022 19.4337 14.0022C20.6985 14.0022 21.7267 12.9739 21.7267 11.7091C21.7267 10.4443 20.6985 9.41602 19.4337 9.41602ZM19.4337 13.0649C18.6875 13.0649 18.0869 12.4644 18.0869 11.7182C18.0869 10.972 18.6875 10.3715 19.4337 10.3715C20.1798 10.3715 20.7804 10.972 20.7804 11.7182C20.7804 12.4644 20.1798 13.0649 19.4337 13.0649Z" fill="#024897"/>
<path d="M14.1391 13.9656H14.676V9.57961H13.7388V13.5743C13.7388 13.7836 13.9207 13.9656 14.1391 13.9656Z" fill="#024897"/>
<path d="M10.9351 0.205322H13.0552C15.7721 0.205322 17.4187 0.578669 18.8394 1.28247L19.1206 1.42798C20.5166 2.17648 21.6351 3.2477 22.4194 4.60474L22.5718 4.88013H22.5728C23.3701 6.36735 23.7954 8.04765 23.7954 10.9456V13.0559C23.7954 15.9538 23.3701 17.6341 22.5728 19.1213C21.8243 20.5173 20.753 21.6358 19.396 22.4202L19.1206 22.5735C17.6334 23.3709 15.9531 23.7961 13.0552 23.7961H10.9438C8.22714 23.7961 6.58123 23.4218 5.16064 22.718L4.87939 22.5735C3.48325 21.8249 2.36402 20.7539 1.57959 19.3967L1.42725 19.1213L1.28174 18.8401C0.577949 17.4195 0.20459 15.7728 0.20459 13.0559V10.9456C0.20459 8.22874 0.577988 6.58198 1.28174 5.16138L1.42725 4.88013C2.17515 3.48516 3.40324 2.23947 4.78076 1.43872L5.05811 1.28442H5.05908C6.53371 0.489032 8.04058 0.205336 10.9351 0.205322Z" stroke="#024897" stroke-width="0.25"/>
</g>
<defs>
<clipPath id="clip0_2223_8608">
<rect width="24" height="24" fill="white" transform="translate(0 0.000244141)"/>
</clipPath>
</defs>
</svg>
