<svg width="64" height="39" viewBox="0 0 64 39" fill="none" xmlns="http://www.w3.org/2000/svg">
<path d="M60.0206 15.8105C59.1907 15.8105 58.3607 15.8105 57.5249 15.8222C57.8251 14.5214 55.9181 10.7662 55.1705 9.56542C55.0881 9.43593 55.0057 9.30055 54.9233 9.17106C54.835 9.04157 54.7526 8.91207 54.6643 8.78258C54.576 8.65309 54.4877 8.52948 54.3936 8.40588C54.2994 8.28227 54.2111 8.15866 54.1169 8.03506C54.0228 7.91145 53.9286 7.78785 53.8285 7.67013C53.7285 7.54652 53.6284 7.4288 53.5283 7.31108C53.4283 7.19336 53.3282 7.07564 53.2223 6.95792C53.1163 6.8402 53.0162 6.72837 52.9103 6.61653C52.8044 6.5047 52.6984 6.39286 52.5866 6.28102C52.4747 6.16919 52.3688 6.06324 52.257 5.95141C52.1451 5.84546 52.0333 5.73951 51.9156 5.63356C51.8037 5.52762 51.686 5.42756 51.5683 5.32161C51.4506 5.22155 51.3328 5.12149 51.2151 5.02143C51.0974 4.92136 50.9738 4.82719 50.8561 4.72713C50.7325 4.63295 50.6089 4.53877 50.4853 4.44459C50.3617 4.35042 50.2381 4.26213 50.1086 4.16795C49.985 4.07966 49.8555 3.99137 49.726 3.90308C49.5965 3.81479 49.467 3.73239 49.3375 3.64998C49.208 3.56758 49.0726 3.48518 48.9431 3.40277C48.8078 3.32037 48.6783 3.24385 48.5429 3.16733C48.4075 3.09082 48.2721 3.01429 48.1368 2.94366C48.0014 2.87303 47.8601 2.79652 47.7247 2.72588C47.5894 2.65525 47.4481 2.58462 47.3068 2.51987C47.1656 2.45513 47.0243 2.39038 46.883 2.32563C46.7418 2.26089 46.6005 2.20203 46.4534 2.14317C46.3121 2.08431 46.1649 2.02545 46.0178 1.97247C45.8706 1.91361 45.7294 1.86064 45.5822 1.80766C45.4351 1.75469 45.2879 1.70171 45.1408 1.65463C44.9936 1.60754 44.8465 1.56045 44.6993 1.51336C44.5522 1.46627 44.3991 1.42507 44.252 1.38387C44.1048 1.34267 43.9518 1.30147 43.7988 1.26615C43.6516 1.23084 43.4986 1.19552 43.3455 1.1602C42.8864 1.06014 42.4214 0.971853 41.9623 0.907106C41.4973 0.84236 41.0265 0.789386 40.5615 0.759956C40.0906 0.730526 39.6197 0.71875 39.1547 0.71875C38.6838 0.724636 38.213 0.748184 37.748 0.789386C32.839 1.42507 28.036 3.82068 24.9812 7.79373C24.528 8.38233 23.9982 9.32998 23.4155 9.76554C23.3979 9.77732 23.3743 9.7832 23.3567 9.79497C22.0618 10.4071 20.3784 10.6955 18.9834 11.0781C14.7749 12.2023 10.5723 13.3619 6.38143 14.5568C4.78043 15.0217 2.96755 15.3867 1.4313 16.0283C1.15466 16.146 0.960421 16.2225 0.854473 16.5227C0.442453 17.6528 0.44245 21.4375 0.836812 22.5558C1.07814 22.803 1.33124 22.9443 1.64908 23.0561C2.97344 23.5152 4.47436 23.7801 5.83992 24.1392C10.1426 25.234 14.4511 26.2993 18.7715 27.3294C20.084 27.6531 21.5909 27.8709 22.8387 28.3771C23.9335 29.3836 24.7104 31.2141 25.8229 32.3972C26.6587 33.286 28.6305 34.5986 29.1426 35.3579C30.4728 36.0171 31.7383 36.7823 33.1216 37.3297C37.0063 38.866 41.5739 38.8601 45.5116 37.5181C50.2381 35.9112 53.905 32.4679 56.077 28.0122C56.4125 27.3176 57.3837 25.3752 57.1482 24.6571C58.6727 24.6807 61.3214 25.0809 62.5221 23.9861C63.3638 23.2151 63.4109 22.0379 63.4227 20.9784C63.4404 19.6305 63.664 17.7234 62.6811 16.6639C61.9983 15.9282 60.9741 15.8164 60.0206 15.8105ZM21.173 22.5912C21.2966 23.5094 22.2207 25.8932 22.0147 26.6348C20.6197 25.9521 18.124 25.5459 16.5583 25.1516C13.5094 24.3805 10.4369 23.474 7.35262 22.8796C6.48737 22.444 3.17355 21.7082 2.12584 21.5258C2.16116 21.4669 2.21414 21.3727 2.23768 21.3021C2.47312 20.6076 2.47312 18.1296 2.15527 17.5115C4.05057 17.229 7.38205 15.9988 9.34209 15.4161C13.5506 14.1918 17.7709 13.0087 22.0029 11.8668C22.2089 11.861 22.2854 11.8727 22.4561 11.9787C21.1141 15.7516 20.6197 18.5239 21.173 22.5912ZM56.5125 20.0896C56.5066 20.2367 56.5008 20.378 56.4949 20.5252C56.489 20.6723 56.4772 20.8136 56.4655 20.9607C56.4537 21.1079 56.4419 21.2491 56.4242 21.3904C56.4125 21.5317 56.3948 21.6788 56.3713 21.8201C56.3536 21.9613 56.3301 22.1085 56.3124 22.2498C56.2889 22.391 56.2653 22.5382 56.2418 22.6794C56.2182 22.8207 56.1888 22.962 56.1594 23.1032C56.1299 23.2445 56.1005 23.3858 56.0652 23.527C56.0299 23.6683 56.0005 23.8096 55.9651 23.9508C55.9298 24.0921 55.8886 24.2333 55.8533 24.3687C55.8121 24.51 55.7709 24.6454 55.7297 24.7866C55.6885 24.922 55.6414 25.0633 55.5943 25.1986C55.5472 25.334 55.5001 25.4753 55.453 25.6107C55.4001 25.746 55.353 25.8814 55.3 26.0168C55.247 26.1522 55.1941 26.2876 55.1411 26.4171C55.0822 26.5524 55.0293 26.6819 54.9704 26.8173C54.9115 26.9468 54.8527 27.0822 54.7879 27.2117C54.7232 27.3412 54.6584 27.4706 54.5937 27.6001C54.529 27.7296 54.4642 27.8591 54.3936 27.9827C54.3229 28.1122 54.2582 28.2358 54.1817 28.3594C54.111 28.483 54.0404 28.6125 53.9639 28.7361C53.8874 28.8597 53.8109 28.9834 53.7343 29.107C53.6578 29.2306 53.5754 29.3483 53.4989 29.4719C53.4165 29.5896 53.3341 29.7132 53.2517 29.8309C53.1693 29.9487 53.081 30.0664 52.9986 30.1841C52.9103 30.3018 52.822 30.4136 52.7337 30.5314C52.6454 30.6432 52.5571 30.7609 52.463 30.8728C52.3747 30.9787 52.2923 31.0847 52.204 31.1847C52.1157 31.2907 52.0274 31.3907 51.9332 31.4908C51.8449 31.5909 51.7508 31.6909 51.6566 31.791C51.5624 31.891 51.4682 31.9852 51.3741 32.0853C51.2799 32.1794 51.1798 32.2736 51.0856 32.3678C50.9856 32.462 50.8914 32.5562 50.7913 32.6444C50.6913 32.7386 50.5912 32.8269 50.4853 32.9152C50.3852 33.0035 50.2793 33.0918 50.1733 33.1801C50.0674 33.2684 49.9614 33.3508 49.8555 33.4332C49.7495 33.5156 49.6436 33.598 49.5317 33.6804C49.4258 33.7628 49.3139 33.8393 49.2021 33.9217C49.0903 33.9982 48.9785 34.0747 48.8666 34.1513C48.7548 34.2278 48.6429 34.2984 48.5252 34.3749C48.4075 34.4456 48.2957 34.5162 48.178 34.5868C48.0602 34.6575 47.9425 34.7222 47.8248 34.7928C47.7071 34.8576 47.5893 34.9223 47.4657 34.9871C47.348 35.0518 47.2244 35.1107 47.1067 35.1754C46.9831 35.2343 46.8654 35.2931 46.7418 35.352C46.6182 35.4109 46.4946 35.4638 46.371 35.5227C46.2473 35.5757 46.1237 35.6286 46.0001 35.6816C45.8765 35.7346 45.747 35.7817 45.6234 35.8288C45.4939 35.8759 45.3703 35.9229 45.2408 35.97C45.1113 36.0171 44.9877 36.0583 44.8582 36.0995C44.7287 36.1407 44.5993 36.1819 44.4698 36.2231C44.3403 36.2643 44.2108 36.2997 44.0754 36.335C43.9459 36.3703 43.8164 36.4056 43.681 36.435C43.5515 36.4703 43.4162 36.4998 43.2867 36.5292C43.1572 36.5586 43.0218 36.5881 42.8923 36.6116C42.7569 36.6352 42.6274 36.6587 42.4921 36.6822C42.3567 36.7058 42.2213 36.7234 42.0918 36.747C41.9564 36.7647 41.8211 36.7823 41.6857 36.8C41.5503 36.8176 41.4149 36.8294 41.2796 36.8412C37.6714 37.4886 33.2922 36.1584 30.2963 34.1689C26.6293 31.738 23.7746 27.7473 22.9034 23.4152C21.9676 18.7535 22.7033 13.8975 25.3638 9.93035C28.2244 5.65122 32.4564 3.42631 37.4007 2.45512L37.4831 2.44335C37.6244 2.42569 37.7656 2.41393 37.9069 2.40215C38.0481 2.39038 38.1894 2.37861 38.3366 2.37272C38.4778 2.36684 38.6191 2.35506 38.7662 2.35506C38.9075 2.34918 39.0488 2.34918 39.1959 2.34329C39.3372 2.34329 39.4784 2.34329 39.6256 2.34329C39.7668 2.34329 39.9081 2.34918 40.0553 2.35506C40.2024 2.36095 40.3378 2.36684 40.485 2.37861C40.6321 2.39038 40.7675 2.39626 40.9146 2.41392C41.0559 2.42569 41.1972 2.44335 41.3384 2.45512C41.4797 2.47278 41.6209 2.49044 41.7622 2.5081C41.9035 2.52576 42.0447 2.5493 42.186 2.57284C42.3273 2.59639 42.4685 2.61993 42.6039 2.64936C42.7452 2.67879 42.8805 2.70234 43.0218 2.73765C43.1631 2.76708 43.2985 2.8024 43.4397 2.83183C43.5751 2.86714 43.7164 2.90246 43.8517 2.93778C43.9871 2.97309 44.1284 3.0143 44.2638 3.0555C44.3991 3.0967 44.5345 3.1379 44.6699 3.18499C44.8053 3.23208 44.9407 3.27328 45.076 3.32037C45.2114 3.36746 45.3409 3.41454 45.4763 3.46752C45.6116 3.52049 45.7411 3.57346 45.8765 3.62644C46.006 3.67941 46.1414 3.73828 46.2709 3.79125C46.4004 3.85011 46.5299 3.90897 46.6594 3.96783C46.7889 4.02669 46.9183 4.09143 47.042 4.15618C47.1714 4.22092 47.2951 4.28567 47.4245 4.35042C47.5481 4.41517 47.6776 4.4858 47.8012 4.55643C47.9249 4.62706 48.0485 4.69769 48.1721 4.77421C48.2957 4.84484 48.4134 4.92136 48.537 4.99788C48.6606 5.0744 48.7783 5.15092 48.896 5.23332C49.0138 5.30984 49.1315 5.39224 49.2492 5.47465C49.3669 5.55705 49.4788 5.63946 49.5965 5.72775C49.7083 5.81015 49.826 5.89843 49.9379 5.98672C50.0497 6.07501 50.1615 6.1633 50.2734 6.2516C50.3793 6.33989 50.4911 6.43407 50.5971 6.52824C50.703 6.62242 50.809 6.71659 50.9149 6.81077C51.0209 6.90494 51.121 7.005 51.221 7.09918C51.3211 7.19924 51.4211 7.2993 51.5212 7.39937C51.6213 7.49943 51.7213 7.59949 51.8155 7.70544C51.9156 7.81139 52.0097 7.91145 52.1039 8.0174C52.1981 8.12334 52.2923 8.22929 52.3806 8.33524C52.4688 8.44119 52.563 8.55302 52.6513 8.65897C52.7396 8.77081 52.8279 8.87675 52.9162 8.98859C53.0045 9.10042 53.0869 9.21226 53.1693 9.32998C53.2517 9.44181 53.3341 9.55953 53.4165 9.67725C53.4989 9.79497 53.5754 9.91269 53.6578 10.0304C53.7343 10.1481 53.8109 10.2659 53.8874 10.3895C53.9639 10.5072 54.0345 10.6308 54.1111 10.7485C54.1817 10.8721 54.2523 10.9898 54.3229 11.1134C54.3936 11.237 54.4583 11.3606 54.5289 11.4843C54.5937 11.6079 54.6584 11.7374 54.7232 11.861C54.7879 11.9846 54.8468 12.1141 54.9057 12.2436C54.9645 12.373 55.0234 12.5025 55.0822 12.632C55.1411 12.7615 55.1941 12.891 55.247 13.0205C55.3 13.15 55.353 13.2795 55.406 13.4149C55.4589 13.5444 55.506 13.6797 55.5531 13.8151C55.6002 13.9505 55.6473 14.08 55.6885 14.2154C55.7297 14.3507 55.7768 14.4861 55.818 14.6215C55.8592 14.7569 55.9004 14.8923 55.9357 15.0276C55.971 15.163 56.0122 15.2984 56.0475 15.4397C56.0829 15.575 56.1123 15.7163 56.1476 15.8517C56.1829 15.9871 56.2065 16.1283 56.2359 16.2637C56.2653 16.405 56.2889 16.5403 56.3183 16.6816C56.3418 16.8229 56.3654 16.9582 56.3889 17.0995C56.4125 17.2408 56.4301 17.382 56.4478 17.5174C56.4655 17.6587 56.4831 17.7999 56.4949 17.9412C56.5067 18.0825 56.5184 18.2296 56.5302 18.3768C56.542 18.5239 56.5479 18.6652 56.5537 18.8123C56.5596 18.9595 56.5655 19.1007 56.5655 19.2479C56.5655 19.395 56.5655 19.5363 56.5655 19.6835C56.5184 19.8012 56.5184 19.9424 56.5125 20.0896ZM61.4156 22.8855C61.033 23.2739 59.7557 23.1209 59.226 23.115L57.6014 23.1091C57.7192 22.9384 57.778 22.8207 57.8133 22.6147C58.037 21.3904 58.3431 18.4062 57.6309 17.3938H59.7969C60.3502 17.382 61.0153 17.3114 61.498 17.6234C61.7629 18.0236 61.8276 18.4592 61.8629 18.9301C61.9277 19.8365 62.063 22.2321 61.4156 22.8855Z" fill="black" fill-opacity="0.6"/>
<path d="M61.4976 17.6235C61.015 17.3116 60.3498 17.3822 59.7966 17.394H57.6305C58.3427 18.4064 58.0366 21.3906 57.813 22.6149C57.7777 22.8209 57.7129 22.9386 57.6011 23.1093L59.2256 23.1152C59.7554 23.1211 61.0326 23.2741 61.4152 22.8856C62.0686 22.2264 61.9273 19.8367 61.8684 18.9302C61.8272 18.4593 61.7625 18.0238 61.4976 17.6235Z" fill="#FDFDFD"/>
<path d="M22.0025 11.8606C17.7705 13.0025 13.5502 14.1915 9.34174 15.4099C7.3817 15.9926 4.05021 17.2228 2.15492 17.5053C2.46688 18.1233 2.47277 20.6013 2.23733 21.2959C2.21379 21.3665 2.15492 21.4607 2.12549 21.5195C3.1732 21.702 6.48702 22.4436 7.35226 22.8733C10.4365 23.4737 13.509 24.3801 16.558 25.1453C18.1237 25.5397 20.6134 25.9399 22.0143 26.6286C22.2203 25.887 21.2962 23.5031 21.1726 22.5849C20.6193 18.5177 21.1196 15.7454 22.4616 11.9666C22.2851 11.8606 22.2086 11.8488 22.0025 11.8606Z" fill="#FDFDFD"/>
<path d="M56.5062 18.7889C56.5003 18.6417 56.4944 18.5005 56.4826 18.3533C56.4708 18.2062 56.465 18.0649 56.4473 17.9177C56.4355 17.7765 56.4179 17.6352 56.4002 17.4939C56.3825 17.3527 56.3649 17.2114 56.3413 17.076C56.3178 16.9348 56.2943 16.7994 56.2707 16.6581C56.2472 16.5169 56.2177 16.3815 56.1883 16.2402C56.1589 16.099 56.1294 15.9636 56.1 15.8282C56.0706 15.6928 56.0353 15.5516 56 15.4162C55.9646 15.2808 55.9293 15.1454 55.8881 15.0042C55.8528 14.8688 55.8116 14.7334 55.7704 14.598C55.7292 14.4627 55.688 14.3273 55.6409 14.1919C55.5938 14.0565 55.5526 13.927 55.5055 13.7917C55.4584 13.6563 55.4055 13.5268 55.3584 13.3914C55.3054 13.2619 55.2524 13.1265 55.1995 12.997C55.1465 12.8675 55.0935 12.738 55.0347 12.6086C54.9758 12.4791 54.9169 12.3496 54.8581 12.2201C54.7992 12.0906 54.7345 11.967 54.6756 11.8375C54.6109 11.7139 54.5461 11.5844 54.4814 11.4608C54.4166 11.3372 54.346 11.2136 54.2753 11.09C54.2047 10.9664 54.1341 10.8428 54.0635 10.725C53.9928 10.6014 53.9163 10.4837 53.8398 10.366C53.7633 10.2483 53.6868 10.1306 53.6102 10.0069C53.5337 9.88923 53.4513 9.77151 53.3689 9.65379C53.2865 9.53607 53.2041 9.42423 53.1217 9.30651C53.0393 9.19468 52.951 9.07696 52.8686 8.96513C52.7803 8.85329 52.692 8.74145 52.6037 8.6355C52.5154 8.52367 52.4271 8.41772 52.333 8.31177C52.2388 8.20583 52.1505 8.09988 52.0563 7.99394C51.9622 7.88799 51.868 7.78204 51.7679 7.68197C51.6737 7.58191 51.5737 7.47597 51.4736 7.3759C51.3736 7.27584 51.2735 7.17577 51.1734 7.07571C51.0734 6.97565 50.9674 6.88148 50.8674 6.7873C50.7614 6.69313 50.6614 6.59895 50.5495 6.50477C50.4436 6.4106 50.3376 6.32231 50.2258 6.22813C50.114 6.13984 50.0021 6.04567 49.8903 5.96326C49.7784 5.87497 49.6666 5.78668 49.5489 5.70428C49.4371 5.62187 49.3193 5.53358 49.2016 5.45118C49.0839 5.36877 48.9662 5.28637 48.8485 5.20985C48.7307 5.13333 48.613 5.05093 48.4894 4.97441C48.3658 4.89789 48.2481 4.82137 48.1245 4.75074C48.0009 4.68011 47.8773 4.60359 47.7537 4.53296C47.6301 4.46233 47.5064 4.3917 47.377 4.32695C47.2533 4.2622 47.1239 4.19746 46.9944 4.13271C46.8649 4.06796 46.7413 4.00911 46.6118 3.94436C46.4823 3.8855 46.3528 3.82664 46.2233 3.76778C46.0938 3.70892 45.9643 3.65594 45.8289 3.60297C45.6994 3.55 45.5641 3.49702 45.4287 3.44405C45.2933 3.39108 45.1638 3.34399 45.0284 3.2969C44.8931 3.24981 44.7577 3.20272 44.6223 3.16152C44.4869 3.12032 44.3516 3.07323 44.2162 3.03203C44.0808 2.99083 43.9454 2.94963 43.8042 2.91431C43.6688 2.87899 43.5275 2.84367 43.3921 2.80836C43.2509 2.77304 43.1155 2.74361 42.9742 2.71418C42.833 2.68475 42.6976 2.65532 42.5563 2.62589C42.4151 2.59646 42.2738 2.57292 42.1384 2.54938C41.9971 2.52584 41.8559 2.50229 41.7146 2.48463C41.5734 2.46697 41.4321 2.44932 41.2908 2.43166C41.1496 2.414 41.0083 2.40223 40.867 2.39045C40.7258 2.37868 40.5845 2.36691 40.4374 2.35514C40.2902 2.34337 40.1548 2.33748 40.0077 2.33159C39.8605 2.32571 39.7251 2.31982 39.578 2.31982C39.4367 2.31982 39.2955 2.31982 39.1483 2.31982C39.0071 2.31982 38.8658 2.32571 38.7187 2.33159C38.5774 2.33748 38.4361 2.34337 38.289 2.34925C38.1477 2.35514 38.0064 2.36691 37.8593 2.37868C37.718 2.39046 37.5768 2.40223 37.4355 2.41988L37.3531 2.43166C32.4088 3.40285 28.1768 5.62776 25.3162 9.90689C22.6616 13.8799 21.92 18.73 22.8559 23.3917C23.727 27.7297 26.5817 31.7145 30.2487 34.1455C33.2447 36.1349 37.6238 37.4652 41.232 36.8177C41.3673 36.8059 41.5027 36.7883 41.6381 36.7765C41.7735 36.7588 41.9089 36.7412 42.0442 36.7235C42.1796 36.7059 42.315 36.6823 42.4445 36.6588C42.5799 36.6352 42.7094 36.6117 42.8447 36.5881C42.9801 36.5646 43.1096 36.5352 43.2391 36.5057C43.3745 36.4763 43.504 36.4469 43.6335 36.4116C43.763 36.3821 43.8924 36.3468 44.0278 36.3115C44.1573 36.2762 44.2868 36.2409 44.4222 36.1997C44.5517 36.1585 44.6812 36.1173 44.8107 36.0761C44.9402 36.0349 45.0697 35.9878 45.1933 35.9466C45.3227 35.8995 45.4464 35.8524 45.5758 35.8053C45.7053 35.7582 45.8289 35.7052 45.9525 35.6582C46.0762 35.6052 46.1998 35.5522 46.3234 35.4992C46.447 35.4463 46.5706 35.3874 46.6942 35.3285C46.8178 35.2697 46.9414 35.2108 47.0591 35.152C47.1827 35.0931 47.3004 35.0284 47.4182 34.9636C47.5359 34.8989 47.6595 34.8341 47.7772 34.7694C47.8949 34.7046 48.0126 34.634 48.1304 34.5634C48.2481 34.4927 48.3599 34.4221 48.4776 34.3515C48.5895 34.2808 48.7072 34.2043 48.819 34.1278C48.9309 34.0513 49.0427 33.9748 49.1545 33.8982C49.2664 33.8217 49.3723 33.7393 49.4841 33.6569C49.5901 33.5745 49.7019 33.4921 49.8079 33.4097C49.9138 33.3273 50.0198 33.239 50.1257 33.1566C50.2317 33.0683 50.3317 32.98 50.4377 32.8917C50.5377 32.8034 50.6437 32.7152 50.7437 32.621C50.8438 32.5268 50.9439 32.4385 51.038 32.3443C51.1381 32.2502 51.2323 32.156 51.3265 32.0618C51.4206 31.9676 51.5148 31.8676 51.609 31.7675C51.7032 31.6674 51.7915 31.5674 51.8856 31.4673C51.9739 31.3673 52.0681 31.2672 52.1564 31.1613C52.2447 31.0553 52.333 30.9552 52.4154 30.8493C52.5096 30.7375 52.5978 30.6256 52.6861 30.5079C52.7744 30.3961 52.8627 30.2784 52.951 30.1606C53.0393 30.0429 53.1217 29.9252 53.2041 29.8075C53.2865 29.6898 53.3689 29.572 53.4513 29.4484C53.5337 29.3307 53.6102 29.2071 53.6867 29.0835C53.7633 28.9599 53.8398 28.8363 53.9163 28.7127C53.9928 28.5891 54.0635 28.4655 54.1341 28.336C54.2047 28.2124 54.2754 28.0829 54.346 27.9593C54.4166 27.8298 54.4814 27.7062 54.5461 27.5767C54.6109 27.4472 54.6756 27.3177 54.7404 27.1882C54.7992 27.0587 54.8639 26.9292 54.9228 26.7938C54.9817 26.6643 55.0405 26.529 55.0935 26.3936C55.1465 26.2582 55.2053 26.1287 55.2524 25.9933C55.3054 25.858 55.3584 25.7226 55.4055 25.5872C55.4526 25.4518 55.4996 25.3164 55.5467 25.1752C55.5938 25.0398 55.635 24.8985 55.6821 24.7632C55.7233 24.6278 55.7645 24.4865 55.8057 24.3453C55.8469 24.204 55.8822 24.0686 55.9176 23.9273C55.9529 23.7861 55.9882 23.6448 56.0176 23.5036C56.0529 23.3623 56.0824 23.221 56.1118 23.0798C56.1412 22.9385 56.1707 22.7972 56.1942 22.656C56.2177 22.5147 56.2472 22.3734 56.2648 22.2263C56.2884 22.085 56.306 21.9379 56.3237 21.7966C56.3413 21.6554 56.359 21.5082 56.3767 21.3669C56.3943 21.2257 56.4061 21.0785 56.4179 20.9373C56.4296 20.7901 56.4414 20.6488 56.4473 20.5017C56.4532 20.3545 56.4591 20.2133 56.465 20.0661C56.4708 19.919 56.4708 19.7777 56.4767 19.6306C56.4767 19.4834 56.4767 19.3421 56.4767 19.195C56.5179 19.0773 56.512 18.9301 56.5062 18.7889ZM53.7809 20.0779C52.8333 20.8784 49.8608 20.6076 48.5954 20.6312C48.6366 20.7607 48.666 20.8607 48.6719 20.9961C48.7131 21.8437 48.4482 23.3858 47.8243 24.0039C48.8249 24.2864 50.9556 25.3635 51.7326 26.0875C51.9916 26.3288 52.1564 26.5231 52.1682 26.8821C52.021 27.1352 51.9033 27.2588 51.6266 27.3707C50.9674 27.6296 48.0715 25.6402 47.1886 25.3459L47.0827 25.3106C47.0768 25.3576 47.0768 25.4106 47.065 25.4577C46.8237 26.2759 45.5876 27.3 44.8636 27.6826C44.8754 27.7003 44.8931 27.712 44.9048 27.7297C45.3816 28.2948 47.0709 31.0788 47.0297 31.7263C46.8708 32.0088 46.8531 32.0442 46.5647 32.1854C45.2521 32.1501 44.4928 29.4308 43.5687 28.595C43.5511 28.5773 43.5275 28.5596 43.504 28.542C42.6858 29.0776 41.4086 29.3072 40.455 29.3896C40.6728 30.296 40.7493 32.9565 40.4727 33.8512C40.3726 34.169 40.1489 34.2161 39.8723 34.3397C39.7663 34.3279 39.6251 34.3279 39.525 34.2867C38.5244 33.8982 39.3543 30.3313 38.9364 29.3719C37.8593 29.3013 36.841 28.9717 35.811 28.6715C35.8051 28.7774 35.811 28.7892 35.7698 28.901C35.4931 29.7074 33.9274 31.9559 33.1152 32.256C32.7855 32.2384 32.7738 32.2148 32.5383 32.0088C31.9085 30.6845 34.2688 29.266 34.3865 28.0064C34.3924 27.9593 34.3924 27.9063 34.3924 27.8592C34.3512 27.7179 31.7967 25.1752 31.5672 25.0221C31.1492 25.5637 29.095 26.7644 28.3887 26.9351C27.9943 27.0293 27.7236 27.0234 27.3704 26.8115C27.288 26.6585 27.2056 26.5702 27.2233 26.3877C27.2998 25.3989 30.1251 24.3865 30.9079 23.7213C30.9256 23.7037 30.9491 23.686 30.9668 23.6684C30.9727 23.6448 30.9844 23.6213 30.9903 23.5919C31.1022 23.0621 30.5842 20.8961 30.2722 20.4782C29.0067 20.484 27.4469 20.6665 26.2109 20.4193C25.8048 20.3369 25.5458 20.2251 25.3162 19.8837C25.2927 19.5246 25.3221 19.4658 25.4928 19.142C26.1873 18.5122 29.3717 18.836 30.3134 18.8477C30.3429 18.8124 30.3723 18.7771 30.4017 18.7418C30.7372 18.3121 31.161 16.3344 31.0727 15.7929C30.4253 14.9276 28.4946 14.3685 27.6294 13.4208C27.341 13.103 27.2998 12.897 27.3116 12.4967C27.4234 12.3437 27.494 12.1907 27.6765 12.1141C28.4476 11.8022 31.1669 13.9977 32.0262 14.4156L32.1381 14.4685C32.8032 13.6916 33.9863 12.7969 34.4984 11.9788C34.5749 11.0664 32.4383 9.37125 32.2794 8.25291C32.2264 7.88798 32.3264 7.63489 32.5383 7.35824C32.868 7.30527 33.0033 7.32881 33.2917 7.51128C33.9098 7.89975 35.6756 10.4778 35.8051 11.2195C36.8116 10.9193 37.7533 10.6191 38.7952 10.4543C39.4485 9.38303 38.6657 6.98154 39.2013 5.59833C39.3779 5.56301 39.5662 5.51592 39.7487 5.53358C39.9841 5.55713 40.1077 5.62187 40.2431 5.81022C40.7787 6.54597 40.5727 9.47132 40.4138 10.419C41.3497 10.519 42.7741 10.7839 43.4981 11.4078C44.6753 10.5073 44.74 8.40596 45.8996 7.43476C46.2351 7.34647 46.4058 7.31116 46.7354 7.43476C46.8472 7.60546 46.8943 7.65254 46.9061 7.85855C46.9414 8.69437 45.3639 11.6197 44.8048 12.2613C45.5523 12.7145 46.6942 13.5739 46.9414 14.445C48.1775 14.0212 50.4083 11.8905 51.5031 11.967C51.7974 12.1377 51.8621 12.1848 52.0387 12.4673C52.0387 12.6262 52.0328 12.791 51.9622 12.9382C51.5501 13.7563 48.5247 15.4221 47.6359 15.7223C47.8949 15.9636 48.0303 16.2108 48.1657 16.5286C48.4482 17.1879 48.8661 18.3121 48.5895 19.0125C49.7961 19.0184 52.3212 18.6653 53.363 19.0361C53.5573 19.1067 53.7515 19.2833 53.828 19.4834C53.934 19.7718 53.881 19.8307 53.7809 20.0779Z" fill="#FDFDFD"/>
<path d="M53.3691 19.0596C52.3273 18.6887 49.8022 19.0419 48.5956 19.036C48.8722 18.3356 48.4543 17.2113 48.1718 16.5521C48.0364 16.2284 47.901 15.9871 47.642 15.7457C48.5249 15.4455 51.5562 13.7798 51.9682 12.9616C52.0389 12.8145 52.0448 12.6556 52.0448 12.4908C51.8682 12.2024 51.8034 12.1553 51.5091 11.9905C50.4084 11.9139 48.1777 14.0447 46.9475 14.4685C46.7003 13.5973 45.5584 12.738 44.8109 12.2848C45.3759 11.6432 46.9475 8.71784 46.9122 7.88203C46.9004 7.6819 46.8533 7.62893 46.7415 7.45823C46.4119 7.32874 46.2412 7.36994 45.9057 7.45823C44.7402 8.42354 44.6814 10.5248 43.5042 11.4313C42.7802 10.8133 41.3499 10.5484 40.4199 10.4424C40.5788 9.49479 40.7848 6.56945 40.2492 5.8337C40.1138 5.64534 39.9902 5.5806 39.7548 5.55706C39.5723 5.5394 39.3898 5.58649 39.2074 5.6218C38.6718 6.99913 39.4487 9.40062 38.8013 10.4778C37.7594 10.6426 36.8177 10.9427 35.8112 11.2429C35.6817 10.5013 33.9159 7.92323 33.2978 7.53475C33.0094 7.35229 32.874 7.32874 32.5444 7.38172C32.3325 7.65836 32.2325 7.91734 32.2854 8.27639C32.4444 9.40062 34.581 11.0899 34.5045 12.0022C33.9983 12.8145 32.8093 13.7092 32.1442 14.492L32.0323 14.439C31.173 14.027 28.4537 11.8256 27.6826 12.1376C27.5001 12.2141 27.4295 12.3672 27.3177 12.5202C27.3059 12.9204 27.3471 13.1323 27.6355 13.4443C28.4949 14.392 30.4314 14.9511 31.0788 15.8164C31.1671 16.3579 30.7374 18.3415 30.4078 18.7653C30.3784 18.8006 30.3489 18.8359 30.3195 18.8712C29.3778 18.8594 26.1934 18.5357 25.4989 19.1655C25.3282 19.4833 25.3046 19.5481 25.3223 19.9071C25.5519 20.2544 25.8108 20.3662 26.217 20.4428C27.453 20.69 29.0128 20.5075 30.2783 20.5016C30.5962 20.9195 31.1082 23.0856 30.9964 23.6153C30.9905 23.6389 30.9788 23.6683 30.9729 23.6918C30.9552 23.7095 30.9375 23.7272 30.914 23.7448C30.1312 24.4158 27.3059 25.4223 27.2294 26.4112C27.2176 26.5877 27.2941 26.6819 27.3765 26.835C27.7238 27.041 28.0004 27.0527 28.3948 26.9586C29.1011 26.7879 31.1553 25.593 31.5732 25.0456C31.8028 25.1987 34.3632 27.7414 34.3985 27.8827C34.3926 27.9298 34.3926 27.9827 34.3926 28.0298C34.2749 29.2894 31.9146 30.708 32.5444 32.0323C32.7858 32.2383 32.7916 32.2619 33.1213 32.2795C33.9335 31.9734 35.4992 29.725 35.7759 28.9245C35.8171 28.8127 35.8112 28.795 35.8171 28.6949C36.8471 28.9951 37.8654 29.3247 38.9425 29.3954C39.3604 30.3548 38.5246 33.9217 39.5311 34.3102C39.6312 34.3514 39.7724 34.3514 39.8784 34.3632C40.155 34.2396 40.3787 34.1984 40.4788 33.8746C40.7495 32.9741 40.673 30.3195 40.4611 29.413C41.4205 29.3247 42.6978 29.1011 43.5101 28.5655C43.5336 28.5831 43.5513 28.6008 43.5748 28.6184C44.4989 29.4542 45.2582 32.1677 46.5708 32.2089C46.8592 32.0676 46.8827 32.0323 47.0358 31.7498C47.077 31.1023 45.3818 28.3182 44.9109 27.7532C44.8992 27.7355 44.8815 27.7237 44.8697 27.7061C45.5937 27.3294 46.8298 26.2993 47.0711 25.4812C47.0829 25.4341 47.0829 25.3811 47.0888 25.334L47.1947 25.3693C48.0776 25.6636 50.9735 27.6531 51.6327 27.3941C51.9094 27.2823 52.0271 27.1587 52.1743 26.9056C52.1625 26.5407 51.9977 26.3523 51.7387 26.111C50.9559 25.3811 48.831 24.3099 47.8304 24.0273C48.4543 23.4152 48.7192 21.8672 48.678 21.0196C48.6721 20.8842 48.6427 20.7842 48.6015 20.6547C49.8669 20.6311 52.8394 20.9019 53.787 20.1014C53.8871 19.8542 53.9401 19.7894 53.84 19.5304C53.7576 19.3068 53.5634 19.1302 53.3691 19.0596ZM47.2418 20.4251C47.2359 20.5546 47.23 20.69 47.2182 20.8195C47.2065 20.949 47.1947 21.0785 47.177 21.2138C47.1594 21.3433 47.1358 21.4728 47.1123 21.6023C47.0887 21.7318 47.0593 21.8613 47.0299 21.9849C47.0005 22.1144 46.9651 22.238 46.9239 22.3675C46.8886 22.4911 46.8474 22.6206 46.8003 22.7442C46.7591 22.8678 46.712 22.9914 46.6591 23.115C46.6061 23.2386 46.5531 23.3563 46.5002 23.4741C46.4472 23.5918 46.3883 23.7095 46.3236 23.8272C46.2647 23.9449 46.1941 24.0568 46.1293 24.1686C46.0587 24.2804 45.9939 24.3923 45.9174 24.5041C45.8468 24.6159 45.7703 24.7219 45.6879 24.8278C45.6114 24.9338 45.529 25.0338 45.4465 25.1398C45.3641 25.234 45.2817 25.334 45.1993 25.4223C45.111 25.5165 45.0228 25.6048 44.9345 25.6931C44.8462 25.7814 44.752 25.8697 44.6578 25.9521C44.5637 26.0345 44.4695 26.1169 44.3694 26.1993C44.2694 26.2758 44.1693 26.3523 44.0692 26.4288C43.9692 26.5053 43.8632 26.576 43.7573 26.6407C43.6513 26.7114 43.5454 26.7761 43.4335 26.8408C43.3217 26.9056 43.2099 26.9645 43.098 27.0233C42.9862 27.0822 42.8744 27.1352 42.7566 27.1881C42.6448 27.2411 42.5271 27.2882 42.4094 27.3353C42.2917 27.3824 42.1739 27.4236 42.0562 27.4648C41.9385 27.506 41.8149 27.5413 41.6972 27.5766C41.5736 27.6119 41.4558 27.6413 41.3322 27.6708C41.2086 27.7002 41.085 27.7238 40.9614 27.7473C40.8378 27.7708 40.7142 27.7885 40.5906 27.8062C40.467 27.8238 40.3375 27.8356 40.2139 27.8474C39.019 28.1887 37.2003 27.5589 36.1526 26.9762C34.2573 25.9226 32.7387 24.098 32.1736 21.9908C31.6321 19.9719 32.0323 17.747 33.0801 15.9576C34.3397 13.8151 36.2232 12.6968 38.5717 12.0905C40.6318 11.8669 42.4918 12.3142 44.134 13.6032C44.2399 13.6915 44.3459 13.7798 44.4518 13.8681C44.5519 13.9564 44.6519 14.0506 44.752 14.1506C44.8521 14.2448 44.9462 14.3449 45.0404 14.4449C45.1346 14.545 45.2229 14.6509 45.3112 14.751C45.3995 14.8569 45.4878 14.9629 45.5702 15.0747C45.6526 15.1866 45.735 15.2984 45.8115 15.4102C45.888 15.5221 45.9645 15.6398 46.0351 15.7575C46.1058 15.8752 46.1764 15.9929 46.2412 16.1166C46.3059 16.2343 46.3707 16.3579 46.4295 16.4815C46.4884 16.6051 46.5472 16.7287 46.6002 16.8582C46.6532 16.9818 46.7062 17.1113 46.7533 17.2408C46.8003 17.3703 46.8415 17.4998 46.8827 17.6293C46.9239 17.7587 46.9593 17.8941 46.9946 18.0236C47.0299 18.159 47.0593 18.2885 47.0888 18.4239C47.1182 18.5592 47.1417 18.6946 47.1594 18.83C47.1829 18.9654 47.1947 19.1008 47.2123 19.2361C47.2241 19.3656 47.2359 19.4951 47.2477 19.6305C47.2536 19.76 47.2594 19.8954 47.2594 20.0249C47.2477 20.1602 47.2477 20.2956 47.2418 20.4251Z" fill="black" fill-opacity="0.6"/>
<path d="M47.2003 19.2423C47.1886 19.1069 47.1709 18.9715 47.1474 18.8361C47.1238 18.7007 47.1003 18.5654 47.0767 18.43C47.0473 18.2946 47.0179 18.1592 46.9826 18.0297C46.9473 17.8944 46.9119 17.7649 46.8707 17.6354C46.8295 17.5059 46.7883 17.3764 46.7412 17.2469C46.6941 17.1174 46.6412 16.9879 46.5882 16.8643C46.5352 16.7407 46.4764 16.6112 46.4175 16.4876C46.3586 16.364 46.2939 16.2404 46.2292 16.1227C46.1644 15.9991 46.0938 15.8813 46.0231 15.7636C45.9525 15.6459 45.876 15.5282 45.7995 15.4164C45.723 15.3045 45.6406 15.1927 45.5582 15.0808C45.4758 14.969 45.3875 14.8631 45.2992 14.7571C45.2109 14.6512 45.1226 14.5511 45.0284 14.451C44.9342 14.351 44.8401 14.2509 44.74 14.1567C44.6399 14.0626 44.5399 13.9684 44.4398 13.8742C44.3339 13.7859 44.2338 13.6976 44.122 13.6093C42.4857 12.3144 40.6198 11.8671 38.5597 12.0966C36.2112 12.7029 34.3277 13.8212 33.0681 15.9637C32.0203 17.7531 31.6142 19.978 32.1616 21.9969C32.7267 24.1041 34.2453 25.9288 36.1405 26.9824C37.1883 27.5651 39.007 28.189 40.2019 27.8535C40.3255 27.8417 40.455 27.8299 40.5786 27.8123C40.7022 27.7946 40.8258 27.777 40.9494 27.7534C41.073 27.7299 41.1966 27.7063 41.3202 27.6769C41.4438 27.6475 41.5674 27.618 41.6852 27.5827C41.8088 27.5474 41.9265 27.5121 42.0442 27.4709C42.1619 27.4297 42.2797 27.3885 42.3974 27.3414C42.5151 27.2943 42.6328 27.2472 42.7446 27.1942C42.8624 27.1413 42.9742 27.0883 43.086 27.0294C43.1979 26.9706 43.3097 26.9117 43.4215 26.847C43.5275 26.7822 43.6393 26.7175 43.7453 26.6468C43.8512 26.5762 43.9572 26.5056 44.0572 26.4349C44.1573 26.3643 44.2573 26.2819 44.3574 26.2054C44.4575 26.1289 44.5517 26.0465 44.6458 25.9582C44.74 25.8699 44.8342 25.7875 44.9225 25.6992C45.0108 25.6109 45.099 25.5226 45.1873 25.4284C45.2756 25.3343 45.358 25.2401 45.4345 25.1459C45.517 25.0459 45.5994 24.9399 45.6759 24.834C45.7524 24.728 45.8289 24.6221 45.9054 24.5102C45.9761 24.3984 46.0467 24.2924 46.1173 24.1747C46.188 24.0629 46.2527 23.9452 46.3116 23.8333C46.3704 23.7156 46.4293 23.5979 46.4881 23.4802C46.5411 23.3625 46.5941 23.2389 46.6471 23.1211C46.7 22.9975 46.7471 22.8739 46.7883 22.7503C46.8295 22.6267 46.8707 22.5031 46.9119 22.3736C46.9473 22.25 46.9826 22.1205 47.0179 21.991C47.0473 21.8615 47.0767 21.732 47.1003 21.6084C47.1238 21.4789 47.1474 21.3494 47.165 21.22C47.1827 21.0905 47.2004 20.961 47.2062 20.8256C47.218 20.6961 47.2298 20.5607 47.2298 20.4312C47.2357 20.3017 47.2357 20.1664 47.2357 20.0369C47.2357 19.9074 47.2298 19.772 47.2239 19.6425C47.2239 19.5071 47.2121 19.3776 47.2003 19.2423ZM43.2155 23.6332C42.2973 24.6221 41.1201 25.0753 39.7958 25.1341C38.854 25.1695 37.924 24.9693 37.1 24.5043C35.9345 23.8451 35.1105 22.6738 34.7632 21.3906C34.7397 21.3082 34.722 21.22 34.6985 21.1317C34.6808 21.0434 34.6632 20.961 34.6514 20.8727C34.6396 20.7844 34.622 20.6961 34.6161 20.6137C34.6043 20.5254 34.5984 20.4371 34.5925 20.3488C34.5866 20.2605 34.5808 20.1722 34.5808 20.0839C34.5808 19.9957 34.5807 19.9074 34.5866 19.8191C34.5925 19.7308 34.5984 19.6425 34.6043 19.5542C34.6102 19.4659 34.622 19.3776 34.6337 19.2893C34.6455 19.201 34.6573 19.1128 34.6749 19.0304C34.6926 18.9421 34.7102 18.8597 34.7338 18.7714C34.7573 18.6831 34.775 18.6007 34.7985 18.5183C34.8221 18.4359 34.8515 18.3476 34.8809 18.2652C34.9104 18.1828 34.9398 18.1004 34.9751 18.018C35.0104 17.9356 35.0458 17.8532 35.0811 17.7766C35.1164 17.6942 35.1576 17.6177 35.1988 17.5412C35.24 17.4647 35.2812 17.3882 35.3283 17.3116C36.1935 15.8637 37.4355 15.175 39.0365 14.7924C39.1424 14.7807 39.2542 14.7748 39.3602 14.7689C40.6669 14.6865 41.8382 15.0926 42.8153 15.9696C42.88 16.0285 42.9448 16.0932 43.0095 16.1521C43.0743 16.2168 43.1331 16.2816 43.1979 16.3463C43.2567 16.4111 43.3156 16.4817 43.3744 16.5523C43.4333 16.623 43.4863 16.6936 43.5393 16.7642C43.5922 16.8349 43.6452 16.9114 43.6923 16.982C43.7394 17.0585 43.7865 17.1351 43.8336 17.2116C43.8806 17.2881 43.9218 17.3646 43.963 17.447C44.0042 17.5235 44.0455 17.6059 44.0867 17.6883C44.122 17.7708 44.1632 17.8532 44.1926 17.9356C44.2279 18.018 44.2573 18.1004 44.2868 18.1887C44.3162 18.2711 44.3456 18.3594 44.3692 18.4418C44.3927 18.53 44.4163 18.6124 44.4398 18.7007C44.4634 18.789 44.481 18.8773 44.4987 18.9656C44.5163 19.0539 44.5281 19.1422 44.5399 19.2305C44.5516 19.3188 44.5634 19.4071 44.5693 19.4953C44.5752 19.5836 44.5811 19.6719 44.587 19.7661C44.6517 21.1729 44.1749 22.5973 43.2155 23.6332Z" fill="#FDFDFD"/>
<path d="M44.575 19.5011C44.5691 19.4128 44.5573 19.3245 44.5456 19.2362C44.5338 19.1479 44.5161 19.0596 44.5043 18.9713C44.4867 18.883 44.469 18.7947 44.4455 18.7064C44.4219 18.6182 44.3984 18.5299 44.3749 18.4475C44.3513 18.3592 44.3219 18.2768 44.2925 18.1944C44.263 18.112 44.2277 18.0237 44.1983 17.9413C44.163 17.8589 44.1276 17.7765 44.0923 17.6941C44.057 17.6116 44.0158 17.5351 43.9687 17.4527C43.9275 17.3762 43.8804 17.2938 43.8392 17.2173C43.7922 17.1408 43.7451 17.0642 43.698 16.9877C43.645 16.9112 43.5979 16.8406 43.5449 16.77C43.492 16.6993 43.439 16.6287 43.3801 16.5581C43.3213 16.4874 43.2624 16.4227 43.2035 16.352C43.1447 16.2873 43.0799 16.2226 43.0152 16.1578C42.9505 16.0931 42.8857 16.0342 42.821 15.9753C41.8439 15.0983 40.6726 14.6922 39.3659 14.7746C39.2599 14.7805 39.1481 14.7923 39.0421 14.7981C37.4411 15.1807 36.1992 15.8694 35.334 17.3173C35.2869 17.3939 35.2457 17.4704 35.2045 17.5469C35.1633 17.6234 35.1221 17.7058 35.0867 17.7823C35.0514 17.8647 35.0161 17.9413 34.9808 18.0237C34.9455 18.1061 34.916 18.1885 34.8866 18.2709C34.8572 18.3533 34.8278 18.4357 34.8042 18.524C34.7807 18.6064 34.7571 18.6947 34.7395 18.7771C34.7218 18.8595 34.6983 18.9478 34.6806 19.0361C34.6629 19.1244 34.6512 19.2068 34.6394 19.2951C34.6276 19.3833 34.6159 19.4716 34.61 19.5599C34.6041 19.6482 34.5982 19.7365 34.5923 19.8248C34.5864 19.9131 34.5864 20.0014 34.5864 20.0897C34.5864 20.178 34.5923 20.2662 34.5982 20.3545C34.6041 20.4428 34.61 20.5311 34.6217 20.6194C34.6335 20.7077 34.6453 20.796 34.6571 20.8784C34.6688 20.9667 34.6865 21.0491 34.7041 21.1374C34.7218 21.2257 34.7454 21.3081 34.7689 21.3964C35.1162 22.6854 35.9402 23.8508 37.1056 24.51C37.9297 24.975 38.8656 25.1752 39.8014 25.1398C41.1317 25.081 42.303 24.6278 43.2212 23.6389C44.1747 22.603 44.6515 21.1727 44.5926 19.7718C44.5867 19.6776 44.5809 19.5894 44.575 19.5011ZM42.1853 22.5441C41.5496 23.2328 40.7255 23.5742 39.8014 23.6154C38.995 23.6095 38.3005 23.4623 37.6236 23.0032C37.5765 22.9679 37.5235 22.9326 37.4765 22.8973C37.4294 22.862 37.3823 22.8208 37.3352 22.7854C37.2881 22.7442 37.2469 22.7089 37.1998 22.6677C37.1586 22.6265 37.1115 22.5853 37.0703 22.5441C37.0291 22.5029 36.9879 22.4558 36.9467 22.4087C36.9055 22.3617 36.8702 22.3146 36.829 22.2675C36.7937 22.2204 36.7584 22.1733 36.723 22.1203C36.6877 22.0732 36.6524 22.0203 36.623 21.9732C36.5877 21.9202 36.5582 21.8731 36.5288 21.8201C36.4994 21.7672 36.4699 21.7142 36.4405 21.6612C36.4111 21.6082 36.3876 21.5553 36.364 21.4964C36.3405 21.4434 36.3169 21.3846 36.2934 21.3316C36.2698 21.2727 36.2522 21.2198 36.2345 21.1609C36.2168 21.1021 36.1992 21.0491 36.1815 20.9902C36.1639 20.9314 36.1521 20.8725 36.1403 20.8136C36.1286 20.7548 36.1168 20.6959 36.105 20.6371C36.0932 20.5782 36.0874 20.5193 36.0756 20.4546C36.0697 20.3957 36.0638 20.331 36.0579 20.2721C36.052 20.2133 36.052 20.1485 36.0462 20.0897C36.0462 20.0308 36.0462 19.966 36.0462 19.9072C36.0462 19.8483 36.052 19.7836 36.0579 19.7247C36.0638 19.6659 36.0697 19.6011 36.0756 19.5423C36.0815 19.4834 36.0932 19.4245 36.105 19.3598C36.1168 19.3009 36.1286 19.2421 36.1403 19.1832C36.1521 19.1244 36.1698 19.0655 36.1815 19.0066C36.1992 18.9478 36.2168 18.8889 36.2345 18.8301C36.2522 18.7712 36.2757 18.7123 36.2934 18.6594C36.3169 18.6005 36.3346 18.5475 36.364 18.4887C36.3876 18.4357 36.4111 18.3768 36.4405 18.3239C36.4699 18.2709 36.4994 18.2179 36.5288 18.1649C36.5582 18.112 36.5877 18.059 36.623 18.006C36.6583 17.953 36.6877 17.906 36.723 17.853C37.3587 16.9465 38.2181 16.5286 39.2835 16.3285C40.2782 16.2991 41.0963 16.4286 41.8556 17.1113C42.6208 17.8 43.0623 18.8301 43.1094 19.8483C43.1623 20.8254 42.8445 21.826 42.1853 22.5441Z" fill="black" fill-opacity="0.6"/>
<path d="M41.8617 17.1177C41.1024 16.4349 40.2843 16.3054 39.2895 16.3349C38.2242 16.535 37.3707 16.9529 36.7291 17.8594C36.6938 17.9064 36.6585 17.9594 36.6291 18.0124C36.5938 18.0654 36.5643 18.1183 36.5349 18.1713C36.5055 18.2243 36.476 18.2773 36.4466 18.3302C36.4172 18.3832 36.3936 18.4421 36.3701 18.495C36.3465 18.548 36.323 18.6069 36.2995 18.6657C36.2759 18.7246 36.2583 18.7776 36.2406 18.8364C36.2229 18.8953 36.2053 18.9541 36.1876 19.013C36.17 19.0719 36.1582 19.1307 36.1464 19.1896C36.1346 19.2484 36.1229 19.3073 36.1111 19.3662C36.0993 19.425 36.0934 19.4839 36.0817 19.5486C36.0758 19.6075 36.0699 19.6722 36.064 19.7311C36.0581 19.79 36.0581 19.8547 36.0522 19.9136C36.0522 19.9724 36.0522 20.0372 36.0522 20.096C36.0522 20.1549 36.0581 20.2196 36.064 20.2785C36.0699 20.3374 36.0758 20.4021 36.0817 20.461C36.0876 20.5198 36.0993 20.5787 36.1111 20.6434C36.1229 20.7023 36.1346 20.7611 36.1464 20.82C36.1582 20.8789 36.1759 20.9377 36.1876 20.9966C36.2053 21.0554 36.2229 21.1143 36.2406 21.1673C36.2583 21.2261 36.2818 21.2791 36.2995 21.338C36.323 21.3968 36.3465 21.4498 36.3701 21.5028C36.3936 21.5558 36.4172 21.6146 36.4466 21.6676C36.476 21.7206 36.5055 21.7735 36.5349 21.8265C36.5643 21.8795 36.5938 21.9325 36.6291 21.9796C36.6644 22.0325 36.6938 22.0796 36.7291 22.1267C36.7645 22.1738 36.7998 22.2209 36.8351 22.2739C36.8704 22.3209 36.9116 22.368 36.9528 22.4151C36.994 22.4622 37.0293 22.5034 37.0764 22.5505C37.1176 22.5917 37.1588 22.6388 37.2059 22.6741C37.2471 22.7153 37.2942 22.7565 37.3413 22.7918C37.3884 22.833 37.4355 22.8683 37.4825 22.9037C37.5296 22.939 37.5767 22.9743 37.6297 23.0096C38.3066 23.4687 39.0011 23.6159 39.8075 23.6218C40.7375 23.5805 41.5557 23.2392 42.1914 22.5505C42.8565 21.8324 43.1684 20.8318 43.1213 19.8606C43.0684 18.8364 42.621 17.8064 41.8617 17.1177Z" fill="#FDFDFD"/>
</svg>
