<svg width="64" height="40" viewBox="0 0 64 40" fill="none" xmlns="http://www.w3.org/2000/svg">
<path d="M62.5292 14.547C61.6287 13.6924 58.3247 14.0882 57.0456 14.0882C57.0628 11.0309 57.6651 7.6237 55.3248 5.25474C53.8736 3.78633 51.0228 0.384884 48.889 0.396356C48.0631 0.402092 47.4321 0.786405 46.8757 1.36C46.6061 1.64107 46.4168 1.95654 46.2677 2.31218C34.4516 2.29497 22.6182 2.1401 10.8078 2.32365C10.5038 1.50914 10.0679 0.855234 9.24766 0.482395C8.64538 0.207068 8.07752 0.178391 7.42935 0.212807C7.09667 0.333263 6.75824 0.45372 6.47145 0.665951C5.29557 1.54356 1.58439 5.31783 0.9649 6.55107C0.689573 7.09599 0.660893 7.8474 0.632213 8.44394C0.500285 10.962 0.483078 31.4911 0.804293 32.3859C1.34348 33.8773 5.54795 38.1621 7.01636 38.8332C7.5957 39.097 8.30696 39.0684 8.89777 38.8447C9.86141 38.4776 10.4522 37.6745 10.9226 36.7969C22.6699 36.7338 34.4172 36.7338 46.1645 36.7969C46.5717 37.6745 47.0363 38.489 48 38.8332C48.7973 39.12 49.6978 38.9536 50.432 38.5693C51.562 37.9785 52.5085 36.8657 53.4147 35.9709C55.2847 34.1928 57.0227 32.7416 57.0858 29.9539C57.1259 28.1126 57.08 26.2599 57.0686 24.4187C58.3534 24.4359 61.6918 24.8087 62.5923 23.9598C63.7739 22.847 63.4126 18.6368 63.3781 17.0307C63.3495 16.1875 63.1831 15.1608 62.5292 14.547ZM5.23247 6.99848L5.221 12.8893L5.23247 35.3801C4.73344 34.8524 4.22868 34.3247 3.71817 33.8085C3.12163 33.189 2.33006 32.5064 2.10062 31.6517C1.79088 30.4988 2.00885 27.3039 2.00885 25.9272L1.9859 11.5643C1.9859 6.86655 1.88839 7.37705 5.16938 4.09033C5.35866 4.95646 5.23247 6.09219 5.23247 6.99848ZM9.31076 36.2749C9.22472 36.8256 8.78305 37.0722 8.35858 37.3533C8.18077 37.3762 7.99722 37.3762 7.8194 37.3648C7.46951 37.3361 7.04504 37.0378 6.85002 36.751C6.67794 36.4986 6.69515 36.0168 6.68941 35.7185C6.55175 27.9119 6.68368 20.0823 6.6722 12.2756C6.6722 10.5949 6.45424 3.93546 6.74104 2.71943C6.84428 2.27776 7.29169 2.04259 7.64732 1.81315C7.77351 1.81315 7.8997 1.81888 8.0259 1.82462C8.45036 1.84756 8.80599 1.95081 9.08705 2.29497C9.37385 2.64487 9.36238 3.25861 9.37959 3.69455C9.47136 6.28721 9.39106 8.90282 9.38532 11.4955L9.37385 24.9234L9.38532 32.5121C9.37959 33.711 9.50004 35.0819 9.31076 36.2749ZM10.8537 3.89531L46.2218 3.88384V11.7651L10.8537 11.7938V3.89531ZM46.2103 13.3023L46.2046 18.9236L10.848 18.9179L10.8365 13.3023H46.2103ZM46.1931 20.4379L46.1817 26.237L10.8423 26.1681V20.4322C22.624 20.2945 34.4172 20.4264 46.1931 20.4379ZM46.153 35.2367L10.8595 35.2711L10.8423 27.7341L46.1874 27.7398C46.1931 30.2235 46.3079 32.7588 46.153 35.2367ZM50.2427 36.2291C50.1739 36.8371 49.8412 37.0378 49.3938 37.3992C49.2734 37.3935 49.1529 37.382 49.0324 37.3763C48.998 37.3763 48.9636 37.3705 48.9292 37.3705C48.585 37.3418 48.2179 37.2156 48 36.9346C47.7189 36.5732 47.7361 36.0455 47.7189 35.6096C47.6214 33.2349 47.7189 30.8143 47.7304 28.4339L47.7419 15.7V7.32543C47.7419 5.98321 47.6271 4.53774 47.7705 3.20699C47.8336 2.61618 48.1893 2.38675 48.6137 2.03685C48.7112 2.03685 48.803 2.03685 48.9005 2.04259C49.2848 2.0598 49.6175 2.13436 49.8756 2.44411C50.1567 2.78827 50.2542 3.39054 50.2772 3.82648C50.3689 5.85128 50.2657 7.93918 50.2714 9.97545L50.2772 23.5468L50.2944 31.6059C50.2944 33.1202 50.4091 34.7205 50.2427 36.2291ZM55.4854 15.0977L55.4797 29.1279C55.474 31.015 55.233 31.9787 53.8564 33.3381L51.78 35.3572L51.7743 4.05592C52.5199 4.56642 53.2656 5.34651 53.908 5.98894C54.4931 6.57401 55.17 7.34837 55.3535 8.18009C55.7206 9.84353 55.4854 13.2335 55.4854 15.0977ZM61.7147 22.7265C60.3209 23.1051 58.5083 22.8986 57.0571 22.8872C57.0399 20.4666 57.0399 18.0517 57.0686 15.6311C58.0551 15.6541 60.1947 15.4246 61.0092 15.6254C61.296 15.6942 61.5254 15.8606 61.6688 16.1187C62.0933 16.9045 61.9671 21.7457 61.7147 22.7265Z" fill="black" fill-opacity="0.6"/>
<path d="M61.0087 15.6258C60.1942 15.4251 58.0547 15.6603 57.0681 15.6316C57.0452 18.0522 57.0394 20.467 57.0566 22.8876C58.5021 22.8991 60.3204 23.1056 61.7143 22.727C61.9666 21.7461 62.0928 16.9107 61.6626 16.1191C61.525 15.861 61.2898 15.6947 61.0087 15.6258Z" fill="#FDFDFD"/>
<path d="M50.2705 23.5412L50.2648 9.96985C50.2648 7.93932 50.3623 5.84568 50.2705 3.82088C50.2533 3.38495 50.1558 2.78267 49.869 2.43851C49.6166 2.12877 49.2782 2.0542 48.8939 2.03699C48.7964 2.03126 48.7046 2.03125 48.6071 2.03125C48.1769 2.37541 47.827 2.61059 47.7639 3.20139C47.6148 4.53214 47.7352 5.97761 47.7352 7.31983V15.6944L47.7237 28.4283C47.718 30.8087 47.6205 33.2293 47.7123 35.604C47.7295 36.0399 47.7123 36.5676 47.9933 36.929C48.2113 37.21 48.5784 37.3362 48.9226 37.3649C48.957 37.3707 48.9914 37.3707 49.0258 37.3707C49.1463 37.3821 49.2667 37.3879 49.3872 37.3936C49.8403 37.038 50.1673 36.8372 50.2361 36.2235C50.4024 34.7206 50.2935 33.1146 50.2877 31.5945L50.2705 23.5412Z" fill="#FDFDFD"/>
<path d="M1.99101 11.5588L2.01395 25.9217C2.01395 27.2984 1.79598 30.4933 2.10572 31.6462C2.33516 32.5066 3.12673 33.1835 3.72327 33.803C4.23378 34.3249 4.73281 34.8469 5.23757 35.3746L5.2261 12.8838L5.23757 6.99298C5.23757 6.09243 5.36376 4.95671 5.18021 4.0791C1.89349 7.37156 1.99101 6.86106 1.99101 11.5588Z" fill="#FDFDFD"/>
<path d="M9.36196 24.912L9.37344 11.4841C9.37917 8.89144 9.45948 6.27583 9.3677 3.68316C9.35049 3.24723 9.36196 2.63921 9.07516 2.28358C8.7941 1.93942 8.43847 1.83618 8.01401 1.81323C7.88781 1.8075 7.76162 1.80176 7.63543 1.80176C7.2798 2.03693 6.83239 2.26638 6.72915 2.70805C6.44808 3.92408 6.66031 10.5836 6.66031 12.2642C6.67179 20.0709 6.53986 27.9005 6.67752 35.7072C6.68326 36.0054 6.66605 36.4873 6.83813 36.7396C7.03315 37.0207 7.45762 37.3247 7.80751 37.3534C7.98533 37.3649 8.16888 37.3649 8.34669 37.3419C8.77116 37.0609 9.21283 36.8142 9.29887 36.2636C9.48815 35.0762 9.3677 33.6996 9.3677 32.495L9.36196 24.912Z" fill="#FDFDFD"/>
<path d="M53.9019 5.98283C53.2652 5.3404 52.5137 4.56031 51.7681 4.0498L51.7738 35.3511L53.8502 33.332C55.2269 31.9668 55.462 31.0032 55.4735 29.1218L55.4792 15.0916C55.4792 13.2331 55.7144 9.83741 55.3416 8.17398C55.1638 7.34226 54.4869 6.57364 53.9019 5.98283Z" fill="#FDFDFD"/>
<path d="M46.2043 18.924L46.21 13.3027H10.8362L10.8477 18.9183L46.2043 18.924Z" fill="#FDFDFD"/>
<path d="M10.8474 26.168L46.1868 26.2368L46.1983 20.4377C34.4223 20.4263 22.6234 20.2886 10.8531 20.432L10.8474 26.168Z" fill="#FDFDFD"/>
<path d="M10.8413 27.7402L10.8585 35.2773L46.152 35.2429C46.3069 32.765 46.1979 30.2297 46.1922 27.746L10.8413 27.7402Z" fill="#FDFDFD"/>
<path d="M46.2156 3.88428L10.8533 3.89575V11.7999L46.2156 11.7713V3.88428Z" fill="#FDFDFD"/>
</svg>
