<svg width="64" height="47" viewBox="0 0 64 47" fill="none" xmlns="http://www.w3.org/2000/svg">
<path d="M0.616331 30.8512C1.25514 31.8008 3.54566 34.9143 4.54705 35.1502C5.01321 35.2596 5.61173 35.202 6.09516 35.1963C6.12394 36.7617 6.35989 38.1429 7.53968 39.2939C8.33389 40.0708 9.27196 40.4622 10.3654 40.5427C10.3597 41.8031 10.0777 45.0892 10.6877 46.0619C11.5164 46.4877 23.0093 46.3554 24.8625 46.2633C25.4034 46.2345 25.9329 46.1539 26.4624 46.0388L26.284 46.0619L26.589 45.964C27.0091 44.813 26.7329 41.8894 26.7156 40.5658C28.0277 40.3873 29.15 39.9097 29.9672 38.8162C30.7154 37.8091 30.8995 36.6523 30.8995 35.4265L40.8328 35.438C40.8098 36.3473 40.6083 37.6997 40.9076 38.5515C41.8169 39.0349 49.5978 39.0752 50.7142 38.7472C50.9329 38.6838 51.025 38.54 51.1229 38.327C51.3818 37.763 51.2437 36.7156 51.2264 36.0941L51.284 35.6221C52.6077 34.661 55.842 36.9286 56.6132 33.2913C58.1786 33.2971 61.505 33.7345 62.6503 32.6007C63.2776 31.9792 63.4272 31.1044 63.4042 30.2527C63.3812 29.447 63.1395 28.6412 63.1337 27.847C63.1279 27.237 63.4099 26.6212 63.4445 26.0054C63.4905 25.1364 63.2143 24.2444 63.1682 23.3754C63.0761 21.6431 63.715 20.5151 63.0128 18.7195C63.4215 17.6778 63.6689 16.1009 63.2085 15.0362C62.9323 14.3859 62.3971 13.9198 61.741 13.6781C60.3137 13.1486 58.2592 13.4651 56.7341 13.4651C56.4003 12.6824 56.1355 12.0494 55.278 11.7213C53.8508 11.1746 47.9633 11.5314 46.0699 11.5257C46.0814 9.89697 46.5303 5.41376 45.4368 4.32606C45.2239 4.11312 44.9764 3.94047 44.7232 3.78508C42.0011 3.62394 39.0602 3.60092 36.3381 3.77932C35.5957 4.28577 35.2619 4.69438 35.095 5.59217C34.7554 7.40502 35.0662 9.73007 35.0317 11.612H30.8995C30.865 9.89121 30.8823 2.47292 29.7946 1.43701C29.4895 1.1435 29.127 0.993868 28.7126 0.942073C27.7285 0.815461 26.6811 0.884522 25.6854 0.884522H20.2642L12.3739 0.890277C10.987 0.890277 9.56547 0.838481 8.1785 0.924807L8.09217 0.930562C7.42458 1.25285 7.06777 1.52333 6.81455 2.25423C6.10092 4.33181 6.16998 8.65387 6.10092 10.9732C4.67941 12.1817 1.64649 15.2204 0.627842 16.7167C0.587556 19.6979 0.576046 22.6847 0.587556 25.6659C0.576046 27.3694 0.47821 29.1534 0.616331 30.8512ZM56.5556 15.0593C57.8218 15.0765 60.0778 14.7197 61.1942 15.1686C61.4935 15.2895 61.7179 15.5082 61.8446 15.8074C62.0748 16.3599 61.81 17.2347 61.6086 17.7757C60.1296 18.0404 58.0807 17.8217 56.5499 17.816L56.5556 15.0593ZM56.5499 19.5137C57.8505 19.5482 59.1742 19.3871 60.4633 19.4504C60.872 19.4677 61.3209 19.5828 61.5856 19.9166C62.0805 20.5381 61.833 21.5625 61.7352 22.2819C60.7741 22.6963 57.7642 22.443 56.5499 22.4373V19.5137ZM61.0619 24.1523C61.436 24.2731 61.6834 24.4861 61.8388 24.8429C62.0805 25.3896 61.8331 26.4025 61.6259 26.9493C60.6015 27.2715 57.793 27.0471 56.5499 27.0356L56.5441 24.0717C57.9081 24.089 59.7842 23.7437 61.0619 24.1523ZM61.1482 28.8024C61.4762 28.9232 61.6834 29.1304 61.8331 29.447C62.092 30.0052 61.8561 30.9836 61.6604 31.5476C60.7856 31.9331 57.6894 31.6914 56.5384 31.6742L56.5269 28.7218C57.8045 28.7448 60.026 28.388 61.1482 28.8024ZM52.176 26.9205L52.1818 13.1716C52.8724 13.1428 53.5803 13.1198 54.2651 13.1486C54.5644 13.1601 54.8349 13.1889 55.0478 13.4133C55.1917 14.806 55.1054 16.2506 55.0939 17.6548L55.0708 24.3537L55.0593 30.2009C55.0536 31.3404 55.1572 32.572 54.95 33.6884C54.2191 34.0395 53.0163 33.8899 52.2106 33.8899C52.1242 31.5763 52.1818 29.2398 52.176 26.9205ZM49.7647 37.3314C47.3072 37.3544 44.8498 37.3544 42.3924 37.3372C42.3694 36.6926 42.3694 36.048 42.3579 35.4035C44.8268 35.438 47.2957 35.3632 49.7704 35.415L49.7647 37.3314ZM42.8643 5.27564L44.4815 5.32168C44.5793 6.82951 44.5045 8.38338 44.5045 9.89697C44.5045 12.0379 44.5506 14.1903 44.4585 16.3254L42.8586 16.3311L42.8643 5.27564ZM39.6472 5.27564L41.3162 5.26989C41.3968 8.95314 41.345 12.6479 41.3565 16.3311H39.63C39.7105 12.6536 39.6357 8.95314 39.6472 5.27564ZM36.6316 5.8454C36.6719 5.57491 36.7006 5.47132 36.9193 5.31593C37.2704 5.29291 37.7135 5.19507 38.0186 5.39074C38.2257 5.92597 38.2027 15.56 38.0358 16.2391L37.8114 16.3542C37.6445 16.3542 37.4718 16.3599 37.3049 16.3484C36.9942 16.3369 36.833 16.3254 36.6316 16.0952C36.4302 14.76 36.4244 7.22086 36.6316 5.8454ZM35.0259 13.1946C35.0029 14.4032 34.7497 16.147 35.4748 17.1886C35.8086 17.6663 36.3496 17.7699 36.8963 17.8447C38.2257 18.0346 42.9161 18.0404 44.2513 17.8275C44.7635 17.7469 45.2584 17.6088 45.6728 17.2922C46.3577 16.2736 46.0929 14.3456 46.0699 13.1658L50.6855 13.1543L50.6912 29.3836L50.7085 33.8726H30.9168L30.8995 13.1831L35.0259 13.1946ZM11.879 44.7727L11.8675 40.5658L25.2193 40.5945V44.767C20.7879 44.9108 16.3104 44.7727 11.879 44.7727ZM7.6145 10.484C7.66054 8.84954 7.73536 4.06132 8.25331 2.72039C8.33389 2.51896 8.38568 2.53047 8.58711 2.43839L21.4382 2.4499C23.8956 2.4499 26.376 2.38084 28.8335 2.49594C29.5298 6.94461 29.455 11.6753 29.4147 16.1642L29.3859 25.0616L29.4032 31.9331C29.4147 33.3719 29.4953 34.8452 29.3687 36.2782C29.2708 37.389 28.7932 37.9069 27.9644 38.586C27.8839 38.632 27.8033 38.6781 27.7227 38.7184C27.3141 38.9198 26.8998 38.9946 26.4451 39.0234C23.8611 39.1903 21.1792 39.0061 18.5894 38.9946C16.0342 38.9889 13.4386 39.15 10.8891 39.0349C10.4345 39.0119 9.96257 38.9543 9.53094 38.799C8.80005 38.54 8.16699 37.8551 7.86772 37.1472C7.72385 36.8019 7.68356 36.4106 7.6663 36.0423C7.49364 32.618 7.6663 29.1132 7.65479 25.6774C7.62601 20.6302 7.47062 15.5369 7.6145 10.484ZM5.99157 13.1831C6.29659 14.5413 6.09516 19.8015 6.10667 21.528L6.1412 29.2398C6.14696 30.6095 6.25055 32.0598 6.08365 33.418C5.87071 33.6654 5.83618 33.6597 5.53692 33.7345C4.69668 33.5273 4.28807 32.9518 3.75285 32.336C3.16007 31.6684 2.59608 30.9951 2.06086 30.2872C2.16445 25.9709 2.09539 21.6258 2.04935 17.3037C3.32122 15.8995 4.6679 14.5471 5.99157 13.1831Z" fill="black" fill-opacity="0.6"/>
<path d="M9.51351 31.8701C9.59984 32.0486 9.8991 32.1579 10.0775 32.2097C11.2631 32.578 24.2695 32.3593 26.6291 32.3421C27.055 32.2212 27.4693 32.1176 27.688 31.6917C27.9643 31.1565 28.0046 17.6609 27.688 16.9242C27.4808 16.4408 27.101 15.9516 26.5888 15.7847C25.4896 15.4279 12.6615 15.6006 10.607 15.6524C10.043 15.9171 9.50776 16.2279 9.27755 16.8494C8.91498 17.8278 9.00706 28.3711 9.11641 30.0343C9.15094 30.6443 9.23727 31.3234 9.51351 31.8701ZM26.2838 23.0764L26.2723 24.5497L10.5206 24.5209V23.0246C15.775 23.0016 21.0294 23.0188 26.2838 23.0764ZM10.6185 20.0262C12.2759 19.9974 25.8291 19.8651 26.2435 20.1183C26.3183 20.5499 26.2723 20.9643 26.2378 21.3959L10.5609 21.3902C10.5437 20.9355 10.584 20.4809 10.6185 20.0262ZM26.2378 30.817L10.5552 30.7422C10.5379 30.3163 10.4401 29.6084 10.6933 29.2746C15.8786 29.171 21.0927 29.2746 26.2838 29.2804C26.2953 29.7983 26.2896 30.299 26.2378 30.817ZM26.2895 27.738L10.607 27.7265L10.5609 26.1899L26.3011 26.1956L26.2895 27.738ZM10.6127 17.4364C11.0271 17.0336 12.1724 17.1774 12.7248 17.1832L21.651 17.1717C23.0552 17.1717 24.6033 17.0336 25.9845 17.2465C26.2435 17.4307 26.2723 17.5285 26.4046 17.8047C26.3816 17.9659 26.4046 18.0234 26.278 18.1443C25.8752 18.5241 24.6839 18.3803 24.1487 18.3745C22.5257 18.386 11.2918 18.5472 10.7106 18.2767C10.5322 18.1961 10.5206 18.0004 10.4631 17.822C10.4919 17.6436 10.4689 17.5745 10.6127 17.4364Z" fill="black" fill-opacity="0.6"/>
</svg>
