<svg width="64" height="42" viewBox="0 0 64 42" fill="none" xmlns="http://www.w3.org/2000/svg">
<path d="M63.2348 18.4561C63.1588 18.1349 62.9661 17.8195 62.75 17.5742C62.4288 17.218 61.9908 16.9669 61.5411 16.815L59.5378 16.7975C59.7364 16.3244 59.6254 15.5009 59.4152 15.0337C59.1115 14.3621 58.4165 13.9182 57.7332 13.6963C56.7286 13.375 55.7358 13.4685 54.6962 13.521C55.2218 12.5399 54.9298 9.82995 54.6027 8.767C54.1705 7.37116 53.1485 6.25565 51.8578 5.59569C50.1057 4.69628 48.0615 4.85397 46.1576 4.87733C46.4496 4.3517 46.4438 2.56455 46.251 1.99804C46.2218 1.91043 46.1809 1.84619 46.1401 1.75858C46.0817 1.33224 45.813 1.01102 45.4801 0.748202C45.153 0.491227 44.8143 0.351059 44.4113 0.286815C42.8695 0.0298395 41.0765 0.193369 39.5113 0.19921C37.7066 0.20505 35.8085 0.0882425 34.0155 0.263453C33.3263 0.619714 32.7131 0.970135 32.4386 1.75274C32.0999 2.7164 32.5437 3.91951 32.094 4.84813L19.1401 4.83645C16.5996 4.83645 13.6035 4.53275 11.1272 5.09342C9.69629 5.41464 8.47566 6.12132 7.43607 7.16091C6.74691 7.85007 6.23295 8.60931 5.719 9.4328C4.38156 9.23423 2.45425 9.03566 1.28618 9.89419C0.87736 10.1979 0.778077 10.3848 0.719674 10.8695C0.392614 13.6028 0.620391 16.9844 0.620391 19.7877C0.620391 24.3549 0.474376 28.9863 0.672948 33.5476C0.690469 33.9155 0.672948 34.8558 0.906562 35.1479C1.50228 35.8896 2.55939 36.0473 3.45296 36.1349C3.98443 36.1874 4.53925 36.1641 5.07657 36.129C5.09409 36.1466 5.11745 36.1641 5.14081 36.1816C6.41401 37.3263 6.82867 38.763 8.51069 39.7442C8.77935 39.8961 9.04801 40.0362 9.32834 40.1589C9.60868 40.2874 9.88902 40.3983 10.181 40.4976C10.4731 40.5969 10.7651 40.6787 11.0629 40.7488C11.3608 40.8188 11.6586 40.8772 11.9623 40.9181C13.9189 41.1926 16.0623 41.0233 18.048 41.0233L29.6761 41.0174L43.6813 41.0057C45.8539 41.0057 48.593 41.2569 50.7072 40.8364C51.63 40.6495 52.5177 40.1122 53.1835 39.458C54.521 38.1323 54.959 36.4444 54.9473 34.6047C54.9415 34.0791 54.9999 33.3782 54.7195 32.9168C56.057 32.9344 57.7916 33.1329 58.8487 32.1284C59.532 31.4801 59.7714 30.6216 59.8065 29.7105C60.4022 29.144 62.6449 29.7222 63.1764 28.2095C63.3808 27.6255 63.3808 26.9071 63.3983 26.2939C63.4275 24.6002 63.5793 19.887 63.2348 18.4561ZM4.9364 34.4587C4.62102 34.6514 4.39326 34.6164 4.03699 34.6281C3.64569 34.6105 3.16677 34.5872 2.79883 34.4529C2.58858 34.3769 2.39001 34.2426 2.29657 34.0324C2.03375 33.4425 2.22064 31.4684 2.22064 30.7267C2.22648 28.3789 2.50098 12.3238 2.08048 11.2842C2.44842 11.2141 2.79883 11.0447 3.14925 10.9046C3.73913 10.8403 4.25892 10.8462 4.84295 10.9455C5.00648 11.2491 5.01817 11.4828 5.02985 11.8215C5.19338 16.6632 5.01233 21.5749 5.01233 26.4282C5.00649 28.5541 5.2693 32.5781 4.9364 34.4587ZM34.1498 1.91043C34.1907 1.90459 34.2374 1.89875 34.2783 1.89291C35.2828 1.75858 43.7922 1.69434 44.3296 1.90459C44.4288 1.93963 44.5807 2.109 44.6741 2.17909C44.972 2.7164 44.972 3.93119 44.8493 4.54443C44.6508 4.80724 44.6041 4.7722 44.2887 4.81893L33.595 4.81309C34.1265 3.90783 33.449 2.85657 34.1498 1.91043ZM36.3224 6.58271C37.619 6.24981 40.7611 6.48927 42.2387 6.49511C42.2445 6.51263 42.2562 6.53015 42.2679 6.54767C42.2796 6.57103 42.2913 6.58855 42.303 6.61191C42.6008 7.22515 42.5424 10.4957 42.3146 11.1791L41.9993 11.2959C41.9817 11.2784 41.9642 11.2608 41.9409 11.2492C40.7027 10.4257 37.7124 10.963 36.2874 11.2667C36.2991 11.2433 36.3107 11.2199 36.3224 11.1966C36.6437 10.4899 36.6028 7.26603 36.3224 6.58271ZM24.303 38.7046C24.2913 39.0083 24.268 39.2186 24.1103 39.4814C21.412 39.4814 12.9318 39.8201 10.7651 39.0492C9.62621 38.6404 8.70927 37.8636 7.68137 37.2504L16.8507 37.2329C18.2174 37.2329 19.9811 37.4256 21.3127 37.1394C21.634 37.0693 21.6632 37.046 21.8384 36.7656C21.8734 36.4152 21.8851 36.1991 21.7099 35.8896C20.1797 35.2588 9.7839 36.0473 6.98637 35.6676C6.15704 35.0719 6.82868 33.9331 6.34393 33.1563C8.23621 33.1563 20.8747 33.3432 21.4704 33.0862C21.7917 32.946 21.9435 32.6599 22.0837 32.3562C22.0662 32.1693 22.0953 32.105 21.961 31.959C21.6865 31.6612 21.1726 31.5969 20.7813 31.556C19.2511 31.3925 17.5632 31.521 16.0155 31.521L6.34393 31.5385C6.41986 31.41 6.47241 31.3224 6.5133 31.1764C6.68267 30.5106 6.68267 29.1557 6.34393 28.5483C9.70213 28.5833 13.0603 28.5249 16.4185 28.5074C17.8085 28.5015 19.2219 28.6008 20.6061 28.5541C20.9098 28.5424 21.2894 28.5249 21.5522 28.3672C21.8442 28.192 21.8559 28.0402 21.9377 27.7306C21.8909 27.5554 21.8851 27.4386 21.7566 27.2984C21.1784 26.6852 16.2433 26.9538 15.0694 26.9422L6.37897 26.948C6.44905 26.8312 6.50162 26.7494 6.53082 26.6093C6.67683 25.9844 6.68851 24.4659 6.36729 23.8993C8.20116 23.8993 20.974 24.0921 21.5989 23.6949C21.9026 23.5022 22.0136 23.2511 22.0778 22.924C22.0428 22.8306 22.0428 22.8189 21.9727 22.7313C21.7449 22.4451 21.1317 22.3575 20.7871 22.3225C19.1051 22.1472 17.3063 22.2991 15.6067 22.3049L6.34393 22.2933C6.38481 22.2232 6.43737 22.1531 6.46657 22.0713C6.69434 21.4698 6.64762 19.8345 6.34976 19.2504C8.08435 19.2563 20.8572 19.4023 21.4879 19.1395C21.7099 19.046 21.8384 18.9234 21.9085 18.6781C21.9902 18.4036 21.8851 18.1641 21.7391 17.9363C21.0791 17.4166 8.27708 17.7027 6.36144 17.7086C6.43153 17.5918 6.48409 17.51 6.5133 17.3757C6.65931 16.7683 6.68267 15.1155 6.34393 14.5723L15.8345 14.5606C17.4756 14.5606 19.5606 14.841 21.1434 14.4438C21.4646 14.3621 21.8851 14.2044 22.0486 13.8948C22.1421 13.7196 22.0778 13.6612 22.0253 13.4802C21.7508 13.2173 21.4938 13.1064 21.1258 13.048C19.5665 12.8027 17.7793 12.9604 16.1908 12.9604L6.34393 12.9545C6.63011 12.499 6.92212 10.7352 6.89292 10.192C10.3212 10.1103 13.767 10.1745 17.1953 10.1745C18.451 10.1745 20.3257 10.4198 21.5171 10.0752C21.7683 9.88251 21.8442 9.74234 21.9377 9.43864C21.9026 9.21087 21.9085 9.08822 21.7391 8.90717C21.558 8.71444 21.3069 8.66188 21.0558 8.63268C19.6307 8.46914 18.048 8.59763 16.6054 8.59763L8.04347 8.60347C8.43477 8.4049 8.77351 8.08368 9.12978 7.82671C10.3037 6.9857 11.279 6.63527 12.7041 6.46006C13.9481 6.39582 15.2329 6.47174 16.4769 6.47758L24.0168 6.50679C24.0811 6.61191 24.1336 6.7112 24.1628 6.82801C24.4315 7.85591 24.2329 11.3601 24.2504 12.6859C24.3205 18.2985 24.3497 23.911 24.3264 29.5236C24.3205 32.5781 24.4023 35.656 24.303 38.7046ZM34.7689 6.48342C34.7806 6.50095 34.7864 6.51847 34.7981 6.54183C34.839 6.62359 34.8857 6.70536 34.9149 6.79296C35.1076 7.44124 35.1018 11.0564 34.8098 11.6755C33.8695 12.4698 32.5145 12.9136 31.51 13.6963C30.4295 14.5373 29.8221 15.7404 28.8643 16.669C28.8468 16.6865 28.8234 16.7099 28.8059 16.7274C28.8409 17.1129 27.6904 19.338 27.5152 19.9513C27.2699 20.8098 27.3517 21.7618 27.1297 22.6378C26.8202 22.8247 26.4522 22.7488 26.096 22.7488C26.0317 22.7079 25.95 22.6904 25.9033 22.632C25.5528 22.1706 26.2654 7.92015 25.6638 6.58271C27.1356 6.25565 32.8241 6.47758 34.7689 6.48342ZM34.7981 39.3704C34.5762 39.5865 34.4302 39.534 34.1323 39.5456L25.6813 39.534C26.0493 38.7397 25.8624 26.5917 25.8741 24.682C26.0434 24.4717 26.0551 24.5009 26.3296 24.46C26.4931 24.4542 26.937 24.425 27.0655 24.5009C27.1297 24.5359 27.1764 24.5943 27.2115 24.6528C27.4509 25.0382 27.9999 27.7657 28.5723 28.8461C29.5651 30.7034 31.1771 32.2277 32.9526 33.3198C33.4548 33.6294 34.0739 33.8688 34.5294 34.2309C34.5703 34.2601 34.6112 34.2952 34.6521 34.3302C35.0434 34.9434 34.8565 38.4652 34.7981 39.3704ZM42.2854 39.4288C41.5963 39.7384 37.1751 39.5281 36.1647 39.5223C36.1764 39.5048 36.1823 39.4814 36.1939 39.4639C36.5444 38.7922 36.4801 35.5742 36.2699 34.8558C36.778 34.8325 37.3153 34.9785 37.8176 35.0427C39.3361 35.2355 40.7261 35.2355 42.2212 34.8617C42.2737 34.9551 42.3205 35.0486 42.3555 35.1479C42.595 35.7903 42.5424 38.5878 42.2621 39.1777L42.2854 39.4288ZM43.6521 32.6949C43.4944 32.765 43.3309 32.8351 43.1673 32.8993C43.0038 32.9636 42.8403 33.022 42.6767 33.0804C42.5132 33.1388 42.3438 33.1913 42.1745 33.2381C42.0051 33.2848 41.8357 33.3315 41.6663 33.3724C41.497 33.4133 41.3276 33.4483 41.1524 33.4775C40.9772 33.5067 40.8078 33.5359 40.6326 33.5593C40.4574 33.5826 40.288 33.6002 40.1128 33.6177C39.9376 33.6352 39.7624 33.641 39.5872 33.6527C39.4412 33.6527 39.301 33.6527 39.155 33.6527C39.009 33.6469 38.8688 33.641 38.7228 33.6352C38.5768 33.6235 38.4366 33.6119 38.2965 33.6002C38.1505 33.5826 38.0103 33.5651 37.8701 33.5476C37.73 33.5242 37.584 33.5009 37.4438 33.4775C37.3036 33.4483 37.1634 33.4191 37.0233 33.3899C36.8831 33.3607 36.7429 33.3257 36.6086 33.2848C36.4684 33.2497 36.3341 33.2089 36.1939 33.1621C36.0596 33.1213 35.9194 33.0745 35.7851 33.022C35.6508 32.9753 35.5165 32.9227 35.3821 32.8701C35.2478 32.8176 35.1193 32.7592 34.985 32.7008C34.8565 32.6423 34.7222 32.5781 34.5995 32.5139C34.471 32.4496 34.3426 32.3795 34.2199 32.3153C34.0914 32.2452 33.9688 32.1751 33.8461 32.0992C33.7235 32.0233 33.6067 31.9473 33.484 31.8656C33.3672 31.7838 33.2446 31.7021 33.1278 31.6203C30.9084 30.02 29.3082 27.5788 28.8818 24.863C28.8526 24.6878 28.8293 24.5126 28.8059 24.3374C28.7825 24.1622 28.7709 23.9869 28.7592 23.8117C28.7475 23.6365 28.7417 23.4613 28.7358 23.2861C28.7358 23.1109 28.7358 22.9357 28.7417 22.7605C28.7475 22.5853 28.7592 22.4101 28.7709 22.2348C28.7826 22.0596 28.8059 21.8844 28.8293 21.7092C28.8526 21.534 28.8818 21.3588 28.911 21.1894C28.9461 21.0142 28.9811 20.8448 29.022 20.6755C29.0629 20.5061 29.1096 20.3367 29.1563 20.1674C29.203 19.998 29.2614 19.8286 29.314 19.6651C29.3724 19.5016 29.4367 19.3322 29.5009 19.1687C29.5652 19.0051 29.6352 18.8416 29.7112 18.6839C29.7871 18.5262 29.863 18.3685 29.9448 18.2108C30.0265 18.0532 30.1142 17.9013 30.2018 17.7495C30.2894 17.5976 30.3828 17.4516 30.4821 17.2998C30.5814 17.1537 30.6807 17.0077 30.7858 16.8676C32.7774 14.146 35.4697 12.9429 38.6995 12.4406C38.8338 12.4289 38.9681 12.4172 39.1024 12.4114C41.6839 12.2771 44.5632 13.6846 46.4496 15.4133C46.5781 15.5301 46.7007 15.6528 46.8234 15.7754C46.946 15.8981 47.0628 16.0266 47.1796 16.155C47.2965 16.2835 47.4074 16.4179 47.5184 16.5522C47.6294 16.6865 47.7345 16.8267 47.8338 16.9669C47.933 17.107 48.0323 17.253 48.1316 17.399C48.2251 17.545 48.3185 17.6911 48.4061 17.8429C48.4937 17.9948 48.5813 18.1466 48.6573 18.2985C48.739 18.4503 48.8149 18.608 48.885 18.7657C48.9609 18.9234 49.0252 19.0811 49.0894 19.2446C49.1537 19.4081 49.2179 19.5716 49.2705 19.7352C49.3289 19.8987 49.3815 20.0681 49.4282 20.2316C49.4749 20.401 49.5216 20.5645 49.5625 20.7339C49.6034 20.9032 49.6384 21.0726 49.6735 21.2478C49.7085 21.4172 49.7319 21.5924 49.7552 21.7618C49.7786 21.937 49.7961 22.1064 49.8136 22.2816C49.8312 22.4568 49.8428 22.6261 49.8487 22.8014C49.8545 22.9707 49.8545 23.1459 49.8487 23.3153C49.8428 23.4847 49.837 23.6599 49.8253 23.8293C49.8136 23.9986 49.7961 24.168 49.7786 24.3374C49.7552 24.5067 49.7319 24.6761 49.7027 24.8455C49.6735 25.0149 49.6443 25.1842 49.6034 25.3478C49.5683 25.5171 49.5275 25.6807 49.4807 25.8442C49.434 26.0077 49.3873 26.1712 49.3347 26.3348C49.2822 26.4983 49.2238 26.656 49.1654 26.8195C49.107 26.9772 49.0427 27.1407 48.9726 27.2926C48.9025 27.4503 48.8325 27.6021 48.7565 27.7598C48.6806 27.9117 48.5988 28.0635 48.5171 28.2154C48.4353 28.3672 48.3477 28.5132 48.2601 28.6592C48.1725 28.8052 48.0732 28.9454 47.9798 29.0856C47.8805 29.2257 47.7812 29.3659 47.6819 29.5002C47.5768 29.6346 47.4717 29.7689 47.3607 29.8974C47.2497 30.0259 47.1388 30.1544 47.022 30.2829C46.8993 30.4113 46.7767 30.534 46.654 30.6566C46.5255 30.7793 46.397 30.8961 46.2685 31.0071C46.1342 31.1239 45.9999 31.2348 45.8656 31.34C45.7254 31.4509 45.5852 31.5502 45.4451 31.6553C45.3049 31.7546 45.1589 31.8539 45.0129 31.9473C44.8669 32.0408 44.715 32.1342 44.5632 32.2218C44.4113 32.3094 44.2595 32.3912 44.1018 32.473C43.9675 32.5489 43.8098 32.6248 43.6521 32.6949ZM53.3646 34.4762C53.3704 35.8487 53.2244 37.2971 52.1907 38.3133C50.5963 39.8785 47.9564 39.5398 45.9006 39.5281H43.7514C43.763 39.5106 43.7689 39.4872 43.7806 39.4697C43.7922 39.4464 43.8039 39.4288 43.8156 39.4055C44.1135 38.7922 44.0434 34.996 43.7981 34.2718C45.8597 33.7345 48.0615 31.7546 49.2997 30.0492C50.1641 28.852 51.5249 26.0895 51.2854 24.5768C51.8811 24.4775 52.5236 24.5126 53.131 24.5009C53.5456 25.2017 53.3587 32.946 53.3646 34.4762ZM53.3062 16.0733C53.3003 18.0473 53.4288 20.033 53.3295 22.0012C53.3179 22.264 53.277 22.4626 53.166 22.7021L53.1193 22.778C52.728 23.0058 51.8169 22.8831 51.3438 22.8773C51.373 22.8072 51.3847 22.7897 51.4081 22.7079C51.7935 21.423 50.6313 18.4269 49.9772 17.2413C48.7624 15.0512 46.1926 12.5924 43.7572 11.8857C44.1018 11.1849 44.0784 7.41788 43.8273 6.57687C45.1297 6.33158 49.7144 6.3491 50.9291 6.88641C51.9337 7.33028 52.6696 8.15961 53.055 9.18167C53.2478 9.68978 53.3354 10.2154 53.3704 10.7586C53.4755 12.5048 53.312 14.3212 53.3062 16.0733ZM58.1712 29.0389C58.1595 29.728 58.2471 30.3821 57.7215 30.8844L57.628 31.1122C56.9914 31.5502 55.4554 31.3341 54.6845 31.3224C54.8188 31.0947 54.8655 30.9253 54.8831 30.6625C55.0816 28.0986 54.8947 25.1141 54.8889 22.5093C54.8889 20.2258 55.1108 17.3056 54.813 15.1096C55.2218 15.0804 55.6365 15.0629 56.0453 15.0395C56.7753 15.0103 57.3711 15.0279 57.9434 15.5476C58.4398 16.7741 58.2062 26.913 58.1712 29.0389ZM61.7863 27.4328C61.7338 27.5204 61.5936 27.6313 61.5177 27.7131L61.4651 27.8241C60.922 28.0285 60.1861 27.9701 59.6021 27.9876C59.8707 27.2575 59.824 19.2154 59.5845 18.5087C59.6546 18.497 59.7189 18.4853 59.789 18.4795C60.4197 18.4036 61.1556 18.2809 61.6812 18.7131C61.8915 19.2212 61.9032 19.8111 61.909 20.3543C61.9207 21.2361 62.0959 26.9013 61.7863 27.4328Z" fill="black" fill-opacity="0.6"/>
<path d="M61.6868 18.7013C61.1611 18.2691 60.4253 18.3918 59.7945 18.4677C59.7244 18.4736 59.6543 18.4852 59.5901 18.4969C59.8354 19.2094 59.8763 27.2516 59.6076 27.9758C60.1916 27.9583 60.9217 28.0167 61.4707 27.8123L61.5232 27.7013C61.5992 27.6254 61.7452 27.5144 61.7919 27.421C62.0956 26.8953 61.9262 21.2302 61.9145 20.3308C61.9029 19.7993 61.897 19.2094 61.6868 18.7013Z" fill="#FDFDFD"/>
<path d="M36.2869 11.2615C37.7061 10.952 40.7022 10.4205 41.9403 11.244C41.9578 11.2556 41.9812 11.2732 41.9987 11.2907L42.3141 11.1739C42.5419 10.4906 42.6061 7.21997 42.3024 6.60673C42.2907 6.58337 42.2791 6.56585 42.2674 6.54249C42.2557 6.52497 42.2499 6.50745 42.2382 6.48993C40.7606 6.47825 37.6185 6.24463 36.3219 6.57753C36.5964 7.26085 36.6373 10.4847 36.3219 11.1914C36.3102 11.2206 36.2985 11.244 36.2869 11.2615Z" fill="#FDFDFD"/>
<path d="M42.3546 35.1541C42.3195 35.0548 42.2728 34.9614 42.2203 34.8679C40.7251 35.2417 39.3351 35.2417 37.8166 35.049C37.3085 34.9847 36.7712 34.8329 36.2689 34.8621C36.4734 35.5804 36.5434 38.7985 36.193 39.4701C36.1813 39.4876 36.1755 39.5052 36.1638 39.5285C37.18 39.5344 41.5953 39.7388 42.2845 39.4351L42.267 39.1898C42.5415 38.5999 42.594 35.8024 42.3546 35.1541Z" fill="#FDFDFD"/>
<path d="M44.2879 4.81336C44.6033 4.76663 44.65 4.80168 44.8486 4.53886C44.9712 3.92562 44.9712 2.71083 44.6734 2.17352C44.5858 2.10343 44.4281 1.93406 44.3288 1.89902C43.7973 1.69461 35.2821 1.75885 34.2776 1.88734C34.2367 1.89318 34.1958 1.89902 34.1491 1.90486C33.4424 2.85684 34.1257 3.90226 33.5942 4.80168L44.2879 4.81336Z" fill="#FDFDFD"/>
<path d="M56.0505 15.0458C55.6417 15.0634 55.227 15.0867 54.8182 15.1159C55.1102 17.3119 54.8941 20.2321 54.8941 22.5156C54.8941 25.1204 55.0868 28.1049 54.8883 30.6688C54.8708 30.9316 54.824 31.101 54.6897 31.3287C55.4606 31.3404 56.9966 31.5565 57.6332 31.1185L57.7267 30.8907C58.2523 30.3826 58.1589 29.7285 58.1764 29.0452C58.2173 26.9193 58.4509 16.7804 57.9545 15.5539C57.3763 15.0283 56.7805 15.0108 56.0505 15.0458Z" fill="#FDFDFD"/>
<path d="M5.02897 11.8219C5.01729 11.489 5.00559 11.2495 4.84206 10.9458C4.25803 10.8466 3.73824 10.8349 3.14836 10.905C2.80378 11.0451 2.44753 11.2145 2.07959 11.2846C2.50009 12.3183 2.21975 28.3793 2.21975 30.7271C2.21975 31.4688 2.03286 33.4429 2.29568 34.0327C2.38913 34.243 2.58769 34.3773 2.79794 34.4532C3.16588 34.5876 3.6448 34.6109 4.03611 34.6285C4.39237 34.6168 4.62598 34.6577 4.93551 34.4591C5.26257 32.5843 5.0056 28.5545 5.0056 26.4286C5.0056 21.5753 5.1925 16.6635 5.02897 11.8219Z" fill="#FDFDFD"/>
<path d="M34.529 34.231C34.0735 33.8689 33.4544 33.6294 32.9521 33.3199C31.1767 32.2278 29.5647 30.7034 28.5719 28.8462C27.9995 27.7657 27.4447 25.0383 27.2111 24.6528C27.176 24.5944 27.1293 24.536 27.0651 24.501C26.9307 24.425 26.4927 24.4542 26.3292 24.4601C26.0547 24.501 26.043 24.4718 25.8736 24.682C25.862 26.5918 26.0489 38.7397 25.6809 39.534L34.1319 39.5457C34.4297 39.534 34.5816 39.5866 34.7977 39.3705C34.8561 38.4711 35.0371 34.9494 34.6458 34.3303C34.605 34.2952 34.5699 34.2602 34.529 34.231Z" fill="#FDFDFD"/>
<path d="M25.9028 22.6266C25.9495 22.685 26.0313 22.7083 26.0955 22.7434C26.4518 22.7434 26.8197 22.8193 27.1293 22.6324C27.3454 21.7564 27.2636 20.8044 27.5147 19.9459C27.6899 19.3326 28.8405 17.1075 28.8054 16.722C28.823 16.7045 28.8463 16.6811 28.8638 16.6636C29.8275 15.735 30.4349 14.5319 31.5095 13.6908C32.5141 12.9082 33.8632 12.4644 34.8093 11.6701C35.0955 11.051 35.1072 7.43584 34.9145 6.78756C34.8852 6.69995 34.8385 6.61819 34.7976 6.53642C34.786 6.5189 34.7801 6.50138 34.7684 6.47802C32.8294 6.47802 27.1351 6.25608 25.6633 6.5773C26.2649 7.91474 25.5524 22.1652 25.9028 22.6266Z" fill="#FDFDFD"/>
<path d="M53.1247 24.5011C52.5232 24.507 51.8749 24.4719 51.2792 24.5771C51.5186 26.0897 50.1637 28.8522 49.2934 30.0495C48.0611 31.7549 45.8535 33.7347 43.7918 34.272C44.0371 34.9962 44.1072 38.7925 43.8094 39.4057C43.7977 39.4291 43.786 39.4466 43.7743 39.47C43.7626 39.4875 43.7568 39.5108 43.7451 39.5284H45.8944C47.9502 39.54 50.59 39.8788 52.1844 38.3136C53.2182 37.2973 53.3642 35.8548 53.3583 34.4765C53.3583 32.9463 53.5452 25.202 53.1247 24.5011Z" fill="#FDFDFD"/>
<path d="M53.0603 9.18778C52.6807 8.16572 51.9448 7.33639 50.9344 6.89252C49.7138 6.35521 45.1349 6.33769 43.8325 6.58298C44.0837 7.41815 44.1012 11.191 43.7625 11.8919C46.1979 12.5985 48.7676 15.0573 49.9824 17.2475C50.6365 18.4331 51.7988 21.4291 51.4133 22.714C51.3899 22.7958 51.3783 22.8133 51.3491 22.8834C51.8163 22.8892 52.7274 23.0119 53.1245 22.7841L53.1712 22.7082C53.2822 22.4687 53.3231 22.2702 53.3348 22.0073C53.4341 20.0391 53.3056 18.0476 53.3114 16.0794C53.3173 14.3214 53.4808 12.5109 53.3757 10.7647C53.3406 10.2215 53.2472 9.69005 53.0603 9.18778Z" fill="#FDFDFD"/>
<path d="M44.5861 32.2163C44.738 32.1287 44.8898 32.0411 45.0359 31.9418C45.1819 31.8484 45.3279 31.7491 45.468 31.6498C45.6082 31.5505 45.7484 31.4454 45.8885 31.3344C46.0229 31.2235 46.1572 31.1125 46.2915 31.0015C46.4259 30.8847 46.5543 30.7679 46.677 30.6511C46.8055 30.5285 46.9281 30.4058 47.0449 30.2773C47.1617 30.1547 47.2727 30.0262 47.3837 29.8919C47.4946 29.7634 47.5998 29.629 47.7049 29.4947C47.81 29.3604 47.9093 29.2202 48.0027 29.08C48.102 28.9399 48.1955 28.7939 48.2831 28.6537C48.3707 28.5077 48.4583 28.3617 48.5401 28.2098C48.6218 28.058 48.7036 27.9061 48.7795 27.7543C48.8554 27.6024 48.9255 27.4448 48.9956 27.2871C49.0657 27.1294 49.1299 26.9717 49.1883 26.814C49.2467 26.6563 49.3051 26.4928 49.3577 26.3292C49.4103 26.1657 49.457 26.0022 49.5037 25.8387C49.5504 25.6751 49.5913 25.5058 49.6264 25.3422C49.6614 25.1729 49.6964 25.0093 49.7256 24.84C49.7548 24.6706 49.7782 24.5012 49.8016 24.3318C49.8191 24.1625 49.8366 23.9931 49.8483 23.8237C49.86 23.6544 49.8658 23.485 49.8716 23.3098C49.8775 23.1404 49.8716 22.9652 49.8716 22.7958C49.8658 22.6206 49.8541 22.4454 49.8366 22.276C49.8191 22.1008 49.8016 21.9315 49.7782 21.7563C49.7548 21.581 49.7256 21.4117 49.6964 21.2423C49.6614 21.0729 49.6264 20.9036 49.5855 20.7284C49.5446 20.559 49.4979 20.3896 49.4511 20.2261C49.4044 20.0567 49.3519 19.8932 49.2935 19.7297C49.2351 19.5661 49.1766 19.4026 49.1124 19.2391C49.0482 19.0755 48.9781 18.9178 48.908 18.7602C48.8379 18.6025 48.7561 18.4448 48.6802 18.2929C48.5985 18.1411 48.5167 17.9834 48.4291 17.8374C48.3415 17.6914 48.248 17.5395 48.1546 17.3935C48.0611 17.2475 47.9619 17.1015 47.8567 16.9613C47.7516 16.8212 47.6465 16.681 47.5414 16.5467C47.4304 16.4123 47.3194 16.278 47.2026 16.1495C47.0858 16.021 46.969 15.8925 46.8464 15.7699C46.7237 15.6472 46.6011 15.5246 46.4726 15.4078C44.5861 13.6791 41.7068 12.2715 39.1254 12.4059C38.9911 12.4117 38.8568 12.4234 38.7224 12.4351C35.4927 12.9373 32.8062 14.1463 30.8088 16.862C30.7036 17.0022 30.6043 17.1482 30.5051 17.2942C30.4058 17.4402 30.3123 17.5921 30.2247 17.7439C30.1371 17.8958 30.0495 18.0476 29.9678 18.2053C29.886 18.363 29.8101 18.5207 29.7341 18.6784C29.6582 18.8361 29.5881 18.9996 29.5239 19.1631C29.4596 19.3267 29.3954 19.4902 29.337 19.6596C29.2786 19.8231 29.226 19.9925 29.1793 20.1618C29.1267 20.3312 29.0859 20.5006 29.045 20.6699C29.0041 20.8393 28.969 21.0145 28.934 21.1839C28.899 21.3591 28.8756 21.5285 28.8522 21.7037C28.8289 21.8789 28.8114 22.0541 28.7938 22.2293C28.7763 22.4045 28.7705 22.5797 28.7646 22.755C28.7588 22.9302 28.7588 23.1054 28.7588 23.2806C28.7646 23.4558 28.7705 23.631 28.7822 23.8062C28.7938 23.9814 28.8114 24.1566 28.8289 24.3318C28.8464 24.5071 28.8756 24.6823 28.9048 24.8575C29.3311 27.5732 30.9314 30.0145 33.1507 31.6148C33.2675 31.6965 33.3843 31.7783 33.507 31.8601C33.6238 31.9418 33.7464 32.0177 33.8691 32.0937C33.9917 32.1696 34.1144 32.2397 34.2429 32.3098C34.3714 32.3798 34.494 32.4441 34.6225 32.5083C34.751 32.5726 34.8795 32.6368 35.008 32.6952C35.1364 32.7536 35.2708 32.812 35.4051 32.8646C35.5394 32.9172 35.6738 32.9697 35.8081 33.0164C35.9424 33.0632 36.0768 33.1099 36.2169 33.1566C36.3513 33.1975 36.4914 33.2384 36.6316 33.2793C36.7717 33.3143 36.9061 33.3493 37.0463 33.3844C37.1864 33.4136 37.3266 33.4428 37.4668 33.472C37.6069 33.5012 37.7471 33.5246 37.8931 33.5421C38.0333 33.5654 38.1793 33.583 38.3195 33.5946C38.4596 33.6122 38.6056 33.6238 38.7458 33.6297C38.8918 33.6414 39.032 33.6472 39.178 33.6472C39.324 33.653 39.4641 33.653 39.6102 33.6472C39.7854 33.6414 39.9606 33.6297 40.1358 33.6122C40.311 33.5946 40.4862 33.5771 40.6556 33.5538C40.8308 33.5304 41.0002 33.5012 41.1754 33.472C41.3447 33.4428 41.52 33.4019 41.6893 33.3669C41.8587 33.326 42.0281 33.2851 42.1974 33.2325C42.3668 33.1858 42.5303 33.1333 42.6997 33.0749C42.8632 33.0164 43.0326 32.958 43.1903 32.8938C43.3538 32.8296 43.5115 32.7595 43.675 32.6894C43.8327 32.6193 43.9904 32.5434 44.1481 32.4616C44.2766 32.3915 44.4343 32.3039 44.5861 32.2163ZM39.651 32.4266C39.5226 32.4324 39.3999 32.4324 39.2773 32.4324C39.1488 32.4324 39.0261 32.4266 38.9035 32.4207C38.775 32.4149 38.6523 32.409 38.5297 32.3974C38.4012 32.3857 38.2786 32.374 38.1559 32.3565C38.0333 32.339 37.9048 32.3214 37.7821 32.3039C37.6595 32.2806 37.5368 32.263 37.4142 32.2338C37.2915 32.2105 37.1689 32.1813 37.0463 32.1521C36.9236 32.1229 36.801 32.0878 36.6842 32.0528C36.5615 32.0177 36.4447 31.9769 36.3279 31.9418C36.2111 31.9009 36.0884 31.8601 35.9716 31.8133C35.8548 31.7666 35.738 31.7199 35.6212 31.6732C35.5044 31.6264 35.3934 31.5739 35.2825 31.5155C35.1715 31.4629 35.0547 31.4045 34.9437 31.3461C34.8328 31.2877 34.7218 31.2293 34.6167 31.1651C34.5115 31.1008 34.4006 31.0366 34.2954 30.9723C34.1903 30.9022 34.0852 30.838 33.9801 30.7621C33.8516 30.6686 33.7231 30.5752 33.6004 30.4817C33.4778 30.3824 33.3551 30.2832 33.2325 30.1839C33.1157 30.0788 32.9989 29.9736 32.8821 29.8685C32.7653 29.7575 32.6543 29.6466 32.5492 29.5356C32.4382 29.4188 32.3331 29.302 32.2338 29.1852C32.1287 29.0684 32.0294 28.9457 31.9359 28.8172C31.8367 28.6946 31.7432 28.5661 31.6556 28.4376C31.568 28.3091 31.4804 28.1748 31.3928 28.0463C31.311 27.912 31.2293 27.7777 31.1533 27.6433C31.0774 27.509 31.0015 27.3688 30.9314 27.2287C30.8613 27.0885 30.7912 26.9425 30.7328 26.8023C30.6686 26.6563 30.6102 26.5103 30.5518 26.3643C30.4934 26.2183 30.4408 26.0664 30.3941 25.9204C30.3474 25.7686 30.3007 25.6226 30.2598 25.4707C30.2189 25.3189 30.178 25.167 30.1488 25.0093C30.1138 24.8575 30.0846 24.6998 30.0612 24.5479C29.6699 22.2176 30.2014 19.6596 31.5855 17.7381C33.3493 15.2968 35.8607 14.2047 38.74 13.7316C41.0586 13.5447 43.5466 14.4675 45.3162 15.9509C45.433 16.0502 45.5498 16.1554 45.6666 16.2663C45.7834 16.3715 45.8944 16.4824 45.9995 16.5992C46.1105 16.7102 46.2156 16.827 46.3207 16.9438C46.4259 17.0606 46.5251 17.1833 46.6186 17.3059C46.7179 17.4286 46.8113 17.557 46.9048 17.6797C46.9982 17.8082 47.0858 17.9367 47.1676 18.071C47.2552 18.2053 47.3369 18.3396 47.4129 18.474C47.4888 18.6083 47.5647 18.7485 47.6348 18.8886C47.7049 19.0288 47.775 19.169 47.8392 19.315C47.9035 19.4552 47.9677 19.6012 48.0203 19.7472C48.0787 19.8932 48.1312 20.0392 48.1838 20.191C48.2364 20.337 48.2831 20.4889 48.324 20.6407C48.3648 20.7926 48.4057 20.9444 48.4466 21.0963C48.4816 21.2481 48.5167 21.4 48.5459 21.5577C48.5751 21.7095 48.5985 21.8672 48.6218 22.0249C48.6452 22.1826 48.6569 22.3344 48.6744 22.4921C48.8729 24.8984 47.956 27.398 46.3966 29.2144C44.6913 31.1651 42.2266 32.2455 39.651 32.4266Z" fill="#FDFDFD"/>
<path d="M46.3903 29.1851C47.9497 27.3688 48.8666 24.8691 48.668 22.4629C48.6563 22.3052 48.6388 22.1475 48.6155 21.9957C48.5921 21.838 48.5687 21.6861 48.5395 21.5285C48.5103 21.3766 48.4811 21.2189 48.4402 21.0671C48.4052 20.9152 48.3643 20.7634 48.3176 20.6115C48.2709 20.4597 48.2242 20.3137 48.1774 20.1618C48.1249 20.0158 48.0723 19.864 48.0139 19.7179C47.9555 19.5719 47.8971 19.4259 47.8329 19.2858C47.7686 19.1456 47.6985 18.9996 47.6284 18.8594C47.5584 18.7192 47.4824 18.5849 47.4065 18.4447C47.3247 18.3104 47.243 18.1761 47.1612 18.0418C47.0736 17.9074 46.986 17.7789 46.8984 17.6505C46.805 17.522 46.7115 17.3993 46.6122 17.2767C46.5129 17.154 46.4136 17.0314 46.3144 16.9146C46.2092 16.7978 46.1041 16.681 45.9931 16.57C45.8822 16.459 45.7712 16.3481 45.6602 16.2371C45.5434 16.132 45.4266 16.0268 45.3098 15.9217C43.5402 14.4383 41.0522 13.5213 38.7336 13.7024C35.8543 14.1755 33.3429 15.2676 31.5792 17.7089C30.1892 19.6362 29.6577 22.1884 30.0548 24.5187C30.0782 24.6764 30.1132 24.8282 30.1424 24.9801C30.1775 25.1319 30.2125 25.2896 30.2534 25.4415C30.2943 25.5933 30.341 25.7452 30.3877 25.8912C30.4345 26.043 30.487 26.189 30.5454 26.3351C30.6038 26.4811 30.6622 26.6271 30.7265 26.7731C30.7907 26.9191 30.855 27.0593 30.925 27.1994C30.9951 27.3396 31.0711 27.4798 31.147 27.6141C31.2229 27.7543 31.3047 27.8886 31.3864 28.0171C31.4682 28.1514 31.5558 28.2799 31.6492 28.4084C31.7368 28.5369 31.8303 28.6654 31.9296 28.788C32.0289 28.9107 32.1282 29.0333 32.2274 29.1559C32.3326 29.2728 32.4377 29.3896 32.5428 29.5064C32.6479 29.6232 32.7647 29.7341 32.8757 29.8393C32.9867 29.9502 33.1035 30.0554 33.2261 30.1546C33.3429 30.2598 33.4656 30.3591 33.5941 30.4525C33.7167 30.5518 33.8452 30.6452 33.9737 30.7328C34.0788 30.8029 34.1781 30.873 34.2891 30.9431C34.3942 31.0132 34.4993 31.0774 34.6103 31.1358C34.7154 31.2001 34.8264 31.2585 34.9374 31.3169C35.0483 31.3753 35.1593 31.4337 35.2761 31.4862C35.3871 31.5388 35.5039 31.5914 35.6148 31.6439C35.7317 31.6907 35.8485 31.7432 35.9653 31.7841C36.0821 31.8308 36.1989 31.8717 36.3215 31.9126C36.4383 31.9535 36.561 31.9885 36.6778 32.0236C36.8004 32.0586 36.9172 32.0936 37.0399 32.1228C37.1625 32.152 37.2852 32.1812 37.4078 32.2046C37.5305 32.228 37.6531 32.2513 37.7758 32.2747C37.8984 32.2981 38.0211 32.3156 38.1496 32.3273C38.2722 32.3448 38.3949 32.3565 38.5233 32.3681C38.646 32.3798 38.7745 32.3857 38.8971 32.3915C39.0198 32.3973 39.1482 32.4032 39.2709 32.4032C39.3935 32.4032 39.522 32.4032 39.6447 32.3973C42.2261 32.2455 44.6907 31.165 46.3903 29.1851ZM40.1177 30.7854C38.6226 31.0365 36.7946 30.5985 35.4922 29.8568C35.3754 29.7925 35.2644 29.7225 35.1476 29.6465C35.0367 29.5765 34.9257 29.5005 34.8147 29.4246C34.7096 29.3487 34.5986 29.2669 34.4935 29.1851C34.3884 29.1034 34.2832 29.0158 34.184 28.9282C34.0847 28.8406 33.9854 28.7471 33.8919 28.6595C33.7985 28.5661 33.7051 28.4726 33.6116 28.3733C33.5182 28.2741 33.4305 28.1748 33.3429 28.0755C33.2553 27.9762 33.1736 27.8711 33.0918 27.7659C33.0101 27.6608 32.9341 27.5499 32.8582 27.4447C32.7823 27.3338 32.7064 27.2228 32.6363 27.1118C32.5662 27.0009 32.5019 26.8841 32.4377 26.7672C32.3734 26.6504 32.3092 26.5336 32.2508 26.411C32.1924 26.2883 32.1398 26.1715 32.0814 26.0489C32.0289 25.9262 31.9763 25.8036 31.9354 25.6751C31.8887 25.5525 31.8478 25.424 31.8069 25.2955C31.7661 25.167 31.731 25.0385 31.696 24.91C31.6668 24.7874 31.6376 24.6647 31.6142 24.5421C31.5908 24.4194 31.5675 24.2968 31.55 24.1683C31.5324 24.0456 31.5149 23.9172 31.5032 23.7945C31.4916 23.6719 31.4799 23.5434 31.474 23.4207C31.4682 23.2922 31.4682 23.1696 31.4682 23.0411C31.4682 22.9126 31.474 22.79 31.4799 22.6615C31.4857 22.533 31.4974 22.4103 31.5091 22.2877C31.5208 22.165 31.5383 22.0366 31.5558 21.9139C31.5733 21.7913 31.5967 21.6628 31.62 21.5401C31.6434 21.4175 31.6726 21.2948 31.7018 21.1722C31.731 21.0495 31.7661 20.9269 31.8011 20.8101C31.8361 20.6874 31.877 20.5706 31.9237 20.4538C31.9646 20.337 32.0113 20.2202 32.0581 20.1034C32.1048 19.9866 32.1574 19.8698 32.2099 19.7588C32.2625 19.6479 32.3209 19.5311 32.3793 19.4201C32.4377 19.3091 32.5019 19.1982 32.5662 19.093C33.8452 16.973 35.8017 15.9509 38.1262 15.361C40.1061 15.0865 42.2553 15.6647 43.8614 16.8445C43.9665 16.9204 44.0717 17.0022 44.171 17.0839C44.2702 17.1657 44.3695 17.2533 44.4688 17.3351C44.5681 17.4227 44.6615 17.5103 44.755 17.6037C44.8484 17.6972 44.936 17.7906 45.0236 17.8841C45.1112 17.9834 45.1989 18.0768 45.2806 18.1819C45.3624 18.2812 45.4441 18.3863 45.5201 18.4915C45.596 18.5966 45.6719 18.7017 45.7479 18.8127C45.8179 18.9237 45.888 19.0288 45.9581 19.1456C46.0282 19.2566 46.0924 19.3734 46.1508 19.4843C46.2092 19.6011 46.2676 19.7179 46.326 19.8348C46.3844 19.9516 46.437 20.0742 46.4837 20.191C46.5363 20.3137 46.583 20.4363 46.6239 20.559C46.6648 20.6816 46.7057 20.8042 46.7465 20.9327C46.7816 21.0554 46.8166 21.1839 46.8517 21.3124C46.8809 21.4408 46.9101 21.5693 46.9334 21.6978C46.9568 21.8263 46.9802 21.9548 46.9977 22.0833C47.278 24.0807 46.7057 26.2475 45.485 27.8477C44.1651 29.5648 42.2495 30.4992 40.1177 30.7854Z" fill="black" fill-opacity="0.6"/>
<path d="M47.0039 22.0596C46.9863 21.9311 46.963 21.8026 46.9396 21.6742C46.9162 21.5457 46.8871 21.4172 46.8579 21.2887C46.8286 21.1602 46.7936 21.0376 46.7527 20.9091C46.7177 20.7864 46.6768 20.6579 46.6301 20.5353C46.5892 20.4126 46.5425 20.29 46.4899 20.1673C46.4432 20.0447 46.3906 19.9279 46.3322 19.8111C46.2797 19.6943 46.2213 19.5775 46.157 19.4607C46.0986 19.3439 46.0285 19.2329 45.9643 19.1219C45.9 19.011 45.8299 18.9 45.754 18.789C45.6839 18.6781 45.608 18.5729 45.5262 18.4678C45.4503 18.3627 45.3686 18.2576 45.2868 18.1583C45.205 18.059 45.1174 17.9597 45.0298 17.8604C44.9422 17.767 44.8488 17.6677 44.7612 17.5801C44.6736 17.4925 44.5743 17.399 44.475 17.3114C44.3757 17.2238 44.2764 17.142 44.1771 17.0603C44.0778 16.9785 43.9727 16.8968 43.8676 16.8208C42.2615 15.6411 40.1122 15.0629 38.1324 15.3374C35.8137 15.9331 33.8514 16.9493 32.5724 19.0694C32.5081 19.1745 32.4439 19.2855 32.3855 19.3964C32.3271 19.5074 32.2687 19.6184 32.2161 19.7352C32.1635 19.8461 32.111 19.9629 32.0642 20.0797C32.0175 20.1966 31.9708 20.3134 31.9299 20.4302C31.889 20.547 31.8482 20.6696 31.8073 20.7864C31.7722 20.9091 31.7372 21.0259 31.708 21.1485C31.6788 21.2712 31.6496 21.3938 31.6262 21.5165C31.6029 21.6391 31.5795 21.7618 31.562 21.8903C31.5444 22.0129 31.5269 22.1414 31.5153 22.264C31.5036 22.3867 31.4919 22.5152 31.4861 22.6378C31.4802 22.7663 31.4744 22.889 31.4744 23.0174C31.4744 23.1459 31.4744 23.2686 31.4802 23.3971C31.4861 23.5255 31.4977 23.6482 31.5094 23.7708C31.5211 23.8935 31.5386 24.022 31.5561 24.1446C31.5737 24.2673 31.597 24.3958 31.6204 24.5184C31.6437 24.6411 31.6729 24.7637 31.7021 24.8863C31.7372 25.0148 31.7722 25.1433 31.8131 25.2718C31.854 25.4003 31.8949 25.5229 31.9416 25.6514C31.9883 25.7741 32.035 25.9026 32.0876 26.0252C32.1402 26.1479 32.1986 26.2705 32.257 26.3873C32.3154 26.51 32.3796 26.6268 32.4439 26.7436C32.5081 26.8604 32.5724 26.9772 32.6424 27.0882C32.7125 27.1991 32.7884 27.3159 32.8644 27.4211C32.9403 27.532 33.0162 27.6372 33.098 27.7423C33.1797 27.8474 33.2615 27.9525 33.3491 28.0518C33.4367 28.1511 33.5243 28.2562 33.6178 28.3497C33.7112 28.449 33.8047 28.5424 33.8981 28.6359C33.9974 28.7293 34.0908 28.8169 34.1901 28.9045C34.2894 28.9921 34.3945 29.0797 34.4997 29.1615C34.6048 29.2433 34.7099 29.325 34.8209 29.4009C34.9319 29.4769 35.0428 29.5528 35.1538 29.6229C35.2648 29.693 35.3816 29.763 35.4984 29.8331C36.8008 30.5807 38.6288 31.0187 40.1239 30.7617C42.2557 30.4756 44.1713 29.5411 45.497 27.8007C46.7118 26.2238 47.2842 24.057 47.0039 22.0596Z" fill="#FDFDFD"/>
<path d="M24.2439 12.6918C24.2264 11.3719 24.425 7.86181 24.1563 6.83391C24.1271 6.7171 24.0687 6.61781 24.0103 6.51269L16.4704 6.48349C15.2206 6.47765 13.9415 6.40756 12.6975 6.46597C11.2667 6.64118 10.2972 6.98576 9.12325 7.83261C8.76698 8.08958 8.42825 8.4108 8.03695 8.60937L16.5989 8.60353C18.0415 8.60353 19.6242 8.47504 21.0492 8.63857C21.3004 8.66778 21.5515 8.72034 21.7326 8.91307C21.9019 9.09412 21.8961 9.21677 21.9311 9.44454C21.8435 9.74824 21.7618 9.88841 21.5106 10.0811C20.325 10.4257 18.4444 10.1804 17.1888 10.1804C13.7605 10.1804 10.3147 10.1162 6.88639 10.1979C6.92143 10.7411 6.62358 12.5049 6.3374 12.9604L16.1842 12.9663C17.7728 12.9663 19.56 12.8086 21.1193 13.0539C21.4931 13.1123 21.7442 13.2232 22.0187 13.4861C22.0713 13.6671 22.1355 13.7255 22.0421 13.9007C21.8786 14.2103 21.4581 14.368 21.1368 14.4497C19.5541 14.8527 17.4691 14.5724 15.828 14.5665L6.3374 14.5782C6.67614 15.1214 6.64694 16.7742 6.50677 17.3816C6.47757 17.5159 6.42501 17.5977 6.35493 17.7145C8.27056 17.7086 21.0726 17.4225 21.7326 17.9423C21.8786 18.17 21.9837 18.4095 21.9019 18.684C21.8318 18.9234 21.7092 19.0519 21.4814 19.1454C20.8448 19.4082 8.07783 19.2563 6.34325 19.2563C6.64111 19.8404 6.68783 21.4698 6.46006 22.0772C6.43085 22.1531 6.38413 22.2232 6.3374 22.2992L15.6002 22.3108C17.2939 22.305 19.0986 22.1473 20.7806 22.3284C21.1252 22.3634 21.7442 22.451 21.9662 22.7372C22.0363 22.8248 22.0363 22.8365 22.0713 22.9299C22.0071 23.257 21.8961 23.5081 21.5924 23.7008C20.9733 24.098 8.20047 23.9111 6.36076 23.9052C6.68782 24.4718 6.6703 25.9961 6.52429 26.6152C6.48925 26.7495 6.44253 26.8313 6.37245 26.9539L15.0629 26.9481C16.2368 26.9597 21.1719 26.6911 21.7501 27.3043C21.8786 27.4387 21.8844 27.5613 21.9311 27.7365C21.8552 28.0402 21.8377 28.1979 21.5457 28.3731C21.2828 28.5308 20.9032 28.5483 20.5995 28.56C19.2212 28.6067 17.802 28.5074 16.412 28.5133C13.0538 28.5308 9.6956 28.5892 6.3374 28.5542C6.67614 29.1557 6.67614 30.5107 6.50677 31.1823C6.47172 31.3283 6.41917 31.4159 6.3374 31.5444L16.009 31.5269C17.5567 31.5269 19.2446 31.3926 20.7747 31.5619C21.1602 31.6028 21.6742 31.6671 21.9545 31.9649C22.083 32.1051 22.0596 32.1752 22.0771 32.3621C21.937 32.6658 21.791 32.9519 21.4639 33.0921C20.8623 33.3491 8.22383 33.1622 6.3374 33.1622C6.82215 33.939 6.15635 35.0778 6.97984 35.6735C9.77737 36.0532 20.1732 35.2647 21.7034 35.8955C21.8786 36.205 21.8669 36.4211 21.8319 36.7715C21.6566 37.0519 21.6274 37.0752 21.3062 37.1453C19.9805 37.4315 18.2167 37.2388 16.8442 37.2388L7.67484 37.2563C8.70274 37.8695 9.61384 38.6463 10.7585 39.0551C12.9253 39.826 21.3997 39.4873 24.1037 39.4873C24.2614 39.2245 24.2906 39.0142 24.2965 38.7105C24.3899 35.6619 24.314 32.584 24.314 29.5295C24.3374 23.9111 24.314 18.3044 24.2439 12.6918Z" fill="#FDFDFD"/>
</svg>
