<svg width="64" height="32" viewBox="0 0 64 32" fill="none" xmlns="http://www.w3.org/2000/svg">
<path d="M63.4406 14.1899C63.4353 14.0666 63.4246 13.9379 63.4138 13.8146C63.4031 13.6913 63.3924 13.5626 63.3817 13.4393C63.3709 13.3159 63.3549 13.1873 63.3388 13.0639C63.3227 12.9406 63.3066 12.8119 63.2852 12.6886C63.2637 12.5653 63.2476 12.442 63.2262 12.3133C63.2047 12.19 63.1833 12.0666 63.1565 11.9433C63.1297 11.82 63.1028 11.6967 63.076 11.5734C63.0492 11.45 63.0171 11.3267 62.9903 11.2034C62.9581 11.0801 62.9259 10.9567 62.8937 10.8388C62.8616 10.7155 62.824 10.5975 62.7865 10.4742C62.749 10.3509 62.7114 10.2329 62.6739 10.1149C61.5747 6.84424 59.4032 3.99712 56.2773 2.43683C56.0413 2.31887 55.8054 2.20628 55.5588 2.10976C55.3175 2.00789 55.0655 1.9221 54.8188 1.84167C54.5668 1.76125 54.3148 1.6969 54.0575 1.63792C53.8001 1.57894 53.5427 1.53605 53.28 1.49852C51.1353 1.21434 48.7815 1.41809 46.6099 1.42881C44.9424 1.43418 43.232 1.31622 41.5752 1.41273C41.3875 1.42345 41.1945 1.4449 41.0068 1.47707C40.8192 1.5146 40.6369 1.56286 40.4546 1.62184C38.9318 2.14193 37.7951 3.38051 36.5726 4.35636L12.2836 4.37245C11.801 2.78535 11.2595 1.13928 9.95122 0.0347434C9.18984 0.00793439 8.4231 0.013296 7.66173 0.0454669C6.4017 1.29477 5.54918 2.84433 4.84678 4.45824C3.71007 4.77994 3.09883 5.24642 2.51975 6.28125C0.0854887 10.6243 0.106939 17.2247 1.46348 21.8948C2.02647 23.8358 2.70205 25.6106 4.54115 26.6561C5.80654 27.3746 6.63226 31.6962 9.09333 31.16C10.3641 30.8866 11.356 29.1279 11.9673 28.0824C12.2675 27.573 12.5517 27.0583 12.8251 26.5328L37.4251 26.5596C38.4278 27.2674 39.4305 27.9698 40.4385 28.6722L47.1997 28.6775C49.5696 28.6829 52.0414 28.8706 54.3524 28.2754C57.7249 27.1441 60.2718 25.0851 61.8643 21.8895C61.9179 21.7769 61.9715 21.6643 62.0251 21.5463C62.0787 21.4337 62.127 21.3158 62.1806 21.2032C62.2289 21.0852 62.2771 20.9726 62.3254 20.8546C62.3736 20.7367 62.4165 20.6187 62.4648 20.5008C62.5077 20.3828 62.5506 20.2648 62.5935 20.1469C62.6364 20.0289 62.6739 19.9056 62.7114 19.7877C62.749 19.6697 62.7865 19.5464 62.824 19.4284C62.8616 19.3051 62.8937 19.1871 62.9259 19.0638C62.9581 18.9405 62.9903 18.8172 63.0171 18.6992C63.0439 18.5812 63.076 18.4526 63.1028 18.3292C63.1297 18.2059 63.1565 18.0826 63.1779 17.9593C63.1994 17.836 63.2262 17.7126 63.2423 17.5893C63.2637 17.466 63.2798 17.3427 63.3012 17.214C63.3173 17.0907 63.3334 16.962 63.3495 16.8387C63.3656 16.7153 63.3763 16.5866 63.387 16.4633C63.3977 16.34 63.4085 16.2113 63.4192 16.088C63.4299 15.9647 63.4353 15.836 63.4406 15.7127C63.446 15.5894 63.4514 15.4607 63.4514 15.332C63.4514 15.2033 63.4567 15.08 63.4567 14.9513C63.4567 14.8226 63.4567 14.6993 63.4514 14.5706C63.4514 14.4419 63.446 14.3186 63.4406 14.1899ZM18.455 5.8255L35.4734 5.84158L34.7174 7.16059L8.92175 7.10161C9.20593 6.5976 9.51155 6.21691 9.92441 5.81477C12.7394 5.94346 15.624 5.8255 18.455 5.8255ZM33.1679 11.5948C33.1089 12.0935 33.0499 12.5975 33.0016 13.1015L7.22206 13.0907L7.45262 11.5573L33.1679 11.5948ZM7.74216 10.0989C7.86548 9.60021 8.02633 9.11229 8.18182 8.62436H34.0794L33.5164 10.1096L7.74216 10.0989ZM32.9534 14.6081V16.1094L7.12019 16.0987V14.5867L32.9534 14.6081ZM33.0982 17.6483L33.2644 19.2354L16.8411 19.23C13.7045 19.23 10.5088 19.3533 7.37755 19.1496L7.17917 17.6429C15.817 17.6858 24.4549 17.6912 33.0982 17.6483ZM7.80649 20.8118L8.00489 20.6884L33.8113 20.6938C33.9882 21.1603 34.3046 21.7662 34.2831 22.2594H8.15501C8.01024 21.8037 7.79041 21.2943 7.80649 20.8118ZM3.02912 20.0986C3.21679 21.1442 3.72616 22.4793 3.71007 23.5141L3.59747 23.3908C3.32938 22.7581 3.08274 22.104 2.86827 21.4444C1.42594 16.9352 1.69403 11.1069 3.88701 6.87105C4.01033 7.50911 3.24895 9.46617 3.09346 10.2383C2.82001 11.6055 2.70741 13.08 2.66452 14.4687C2.61626 16.3239 2.69669 18.2756 3.02912 20.0986ZM10.3694 27.8304C10.0316 28.4202 9.53836 29.3638 8.81452 29.5193C8.60004 29.5622 8.36949 29.514 8.19791 29.3853C6.12825 27.8089 4.6055 20.978 4.3106 18.4526C3.65646 12.7798 4.78243 5.98099 8.39629 1.41273C8.48744 1.41809 8.57859 1.42881 8.66974 1.4449L8.77698 1.46099C8.86813 1.47171 8.96465 1.48243 9.05044 1.5146C9.88688 1.81486 10.4767 3.62179 10.8198 4.38317C10.6912 4.38317 10.5571 4.37781 10.4284 4.37781C9.533 4.38317 8.9432 4.68879 8.32659 5.32685C5.98884 7.75575 5.59743 12.7851 5.67786 15.9969C5.74756 18.7957 6.35345 24.1254 8.52498 26.136C9.22201 26.7848 10.2515 26.5703 11.1308 26.5328L10.3694 27.8304ZM26.5782 24.9618L9.48474 24.9403C9.18448 24.5597 8.95929 24.2165 8.7609 23.7715C11.8386 23.6964 14.9323 23.7447 18.0154 23.7447L35.2697 23.7286C35.5539 24.1146 35.7737 24.5436 36.0043 24.9618C32.8622 25.0208 29.7148 24.9618 26.5782 24.9618ZM43.9236 27.1601C42.9103 27.1655 41.8915 27.1601 40.8781 27.1494C39.0069 26.0288 37.4144 24.6026 36.3099 22.6991C34.2241 19.096 33.8381 14.7154 34.9319 10.7316C35.8809 7.27319 37.838 4.73705 40.9693 2.95693L44.4759 2.94621C43.1623 3.92206 42.0845 4.91399 41.1462 6.27589C38.7763 9.7289 38.1061 14.1202 38.8835 18.2059C38.905 18.3185 38.9264 18.4257 38.9479 18.5383C38.9693 18.6509 38.9962 18.7582 39.023 18.8708C39.0498 18.9834 39.0766 19.0906 39.1034 19.1979C39.1302 19.3051 39.1624 19.4177 39.1945 19.5249C39.2267 19.6322 39.2589 19.7394 39.291 19.8466C39.3232 19.9539 39.3608 20.0611 39.3983 20.1683C39.4358 20.2756 39.4733 20.3828 39.5109 20.49C39.5484 20.5973 39.5913 20.6992 39.6342 20.8064C39.6771 20.9136 39.72 21.0155 39.7629 21.1174C39.8058 21.2193 39.854 21.3265 39.9023 21.4284C39.9505 21.5302 39.9988 21.6321 40.0471 21.734C40.0953 21.8359 40.1489 21.9377 40.1972 22.0342C40.2508 22.1361 40.3044 22.2326 40.358 22.3345C40.4117 22.4364 40.4706 22.5329 40.5243 22.6294C40.5832 22.7259 40.6422 22.8224 40.7012 22.9189C40.7602 23.0155 40.8192 23.112 40.8835 23.2031C40.9478 23.2996 41.0068 23.3908 41.0712 23.4819C41.1355 23.5731 41.1998 23.6696 41.2696 23.7607C41.3339 23.8519 41.4036 23.9431 41.4733 24.0342C41.543 24.1254 41.6127 24.2111 41.6824 24.3023C41.7521 24.3881 41.8272 24.4792 41.8969 24.565C41.9719 24.6508 42.0417 24.7366 42.1167 24.8224C42.1918 24.9082 42.2669 24.9886 42.3473 25.0744C42.4223 25.1548 42.5028 25.2406 42.5832 25.321C42.6636 25.4015 42.744 25.4819 42.8245 25.5623C42.9049 25.6427 42.9853 25.7178 43.0711 25.7929C43.1569 25.8679 43.2373 25.943 43.3231 26.0181C43.4089 26.0931 43.4947 26.1682 43.5805 26.2379C43.6663 26.3076 43.7574 26.3827 43.8432 26.4524C43.9344 26.5221 44.0202 26.5918 44.1113 26.6615C44.2025 26.7312 44.2936 26.7955 44.3848 26.8599C44.4759 26.9242 44.5671 26.9886 44.6636 27.0529C44.5242 27.1923 44.1381 27.1494 43.9236 27.1601ZM61.9983 15.4017C61.993 15.5143 61.9876 15.6322 61.9822 15.7448C61.9769 15.8574 61.9661 15.9754 61.9608 16.088C61.9501 16.2006 61.9393 16.3132 61.9286 16.4312C61.9179 16.5438 61.9018 16.6564 61.8911 16.7743C61.875 16.8869 61.8589 16.9995 61.8428 17.1121C61.8267 17.2247 61.8053 17.3373 61.7838 17.4499C61.7624 17.5625 61.741 17.6751 61.7195 17.7877C61.6981 17.9003 61.6712 18.0129 61.6444 18.1201C61.6176 18.2327 61.5908 18.34 61.564 18.4526C61.5372 18.5652 61.505 18.6724 61.4729 18.785C61.4407 18.8976 61.4085 19.0048 61.3763 19.1121C61.3442 19.2193 61.3066 19.3319 61.2691 19.4391C61.2316 19.5464 61.194 19.6536 61.1565 19.7608C61.119 19.8681 61.0761 19.9753 61.0332 20.0826C60.9903 20.1898 60.9474 20.297 60.9045 20.3989C60.8616 20.5061 60.8134 20.608 60.7651 20.7152C60.7168 20.8171 60.6686 20.9244 60.6203 21.0262C60.5721 21.1281 60.5185 21.23 60.4702 21.3319C60.4166 21.4337 60.363 21.5356 60.3093 21.6375C58.7759 24.4524 56.422 26.1146 53.3926 26.9993C51.843 27.2567 49.071 27.2406 47.575 26.8223C46.7225 26.5811 45.929 26.1468 45.2051 25.6374C42.5403 23.7607 40.7816 20.7474 40.2294 17.5571C39.602 13.9647 40.2401 10.0292 42.3687 7.02654C43.8754 4.90327 45.9879 3.40196 48.5777 2.96229C50.8886 2.58697 53.9502 2.90331 55.9984 4.01321C58.5936 5.41264 60.5882 8.19006 61.4139 10.9996C61.446 11.1069 61.4782 11.2195 61.505 11.3321C61.5372 11.4447 61.564 11.5519 61.5908 11.6645C61.6176 11.7771 61.6444 11.8843 61.6659 11.9969C61.6927 12.1095 61.7141 12.2221 61.7356 12.3347C61.757 12.4473 61.7785 12.5599 61.7946 12.6725C61.816 12.7851 61.8321 12.8977 61.8482 13.0103C61.8643 13.1229 61.8804 13.2355 61.8911 13.3481C61.9072 13.4607 61.9179 13.5733 61.9286 13.6913C61.9393 13.8039 61.9501 13.9165 61.9554 14.0344C61.9608 14.147 61.9715 14.265 61.9769 14.3776C61.9822 14.4902 61.9876 14.6081 61.9876 14.7207C61.9876 14.8333 61.993 14.9513 61.9876 15.0639C62.009 15.1711 62.0037 15.2891 61.9983 15.4017Z" fill="black" fill-opacity="0.6"/>
<path d="M58.6092 14.3184C58.577 14.1844 58.5341 14.1415 58.6038 14.0075C58.9845 13.3104 60.7914 13.3801 60.3196 11.4552C60.1963 10.9566 59.896 10.3614 59.4295 10.1148C59.0756 9.92712 58.5931 10.0772 58.2446 10.2113C57.8961 10.3453 57.5583 10.5169 57.2258 10.6778L56.561 9.98074C56.8344 9.34268 57.3277 8.48479 57.0489 7.79312C56.8451 7.28911 56.3679 6.8548 55.8639 6.66714C55.4725 6.52237 55.0436 6.50092 54.6629 6.68322C53.7835 7.10681 53.8693 7.8092 53.4136 8.22206C53.3975 8.23279 53.0972 8.21134 53.0651 8.20062C52.9793 8.17917 52.8935 8.12555 52.8184 8.08266C52.5074 7.34273 52.99 5.55724 52.0892 5.20873C51.8908 5.13366 51.5101 5.15511 51.3064 5.21409C50.6469 5.29988 50.1161 5.46073 49.5263 5.75563L49.789 8.6242L48.6684 9.31587C48.2823 8.86548 47.6925 7.99687 47.0652 7.95933C46.5076 7.92716 45.9339 8.42581 45.5585 8.79041C45.017 9.31587 44.2288 10.2006 44.2556 11.0156C44.2663 11.3534 44.4486 11.5946 44.7006 11.8038C45.1028 12.1415 45.6068 12.415 46.0572 12.6938C45.9285 13.2514 45.7944 13.8091 45.6765 14.3667C44.899 14.297 44.0894 14.1201 43.4245 14.6455C43.0599 14.9351 42.8937 15.3854 42.8669 15.8412C42.8294 16.4524 43.0224 17.2353 43.4245 17.7071C43.6444 17.9645 43.8642 18.0342 44.1966 18.0503C44.7972 18.0717 45.462 17.9269 46.0572 17.8412L46.5987 19.0797C46.2609 19.514 45.3762 20.4363 45.4674 21.01C45.5746 21.6748 46.2287 22.3504 46.7757 22.699C47.033 22.8598 47.3762 23.0314 47.6925 22.967C48.2287 22.8598 48.7542 22.0287 49.0866 21.6105L50.0839 22.0019C50.0196 22.6721 49.7568 23.8517 50.1965 24.3933C50.5075 24.7793 51.0329 24.9348 51.5155 24.967C51.9927 24.9992 52.8506 24.9509 53.2313 24.6399C53.3492 24.5381 53.4565 24.4201 53.553 24.3021C53.6549 23.6158 53.5959 22.9081 53.5691 22.2164C54.0999 22.0394 54.6039 21.8571 55.1025 21.5998C55.4403 22.0019 56.0516 22.9295 56.5878 23.0099C56.9899 23.0689 57.4135 22.833 57.7084 22.5864C58.2017 22.1681 58.7379 21.4496 58.7593 20.7794C58.7807 20.1896 58.073 19.5569 57.7137 19.1173C57.8692 18.699 58.0247 18.2915 58.2124 17.8894C58.8451 18.0503 59.703 18.3934 60.3089 18.0181C60.5823 17.8465 60.6949 17.5731 60.7539 17.2674C60.8879 16.5865 60.8075 15.7822 60.7968 15.0905C60.0837 14.8546 59.2419 14.7045 58.6092 14.3184ZM44.5666 16.6133C44.3199 16.3023 44.3414 16.1039 44.3039 15.7179C44.6899 15.6911 45.0706 15.6428 45.4459 15.734C45.7247 16.0074 45.7408 16.2219 45.8373 16.5918C45.4191 16.6455 44.9634 16.7581 44.5666 16.6133ZM46.6952 11.5357C46.3574 11.2837 46.0411 10.9888 45.7194 10.7099L46.8293 9.44456C47.1188 9.70192 47.4352 9.93784 47.7408 10.1791C47.3869 10.6295 47.0384 11.0799 46.6952 11.5357ZM52.1857 23.589C51.9498 23.5729 51.7729 23.5408 51.553 23.455C51.3332 23.1279 51.4404 22.6561 51.4672 22.2807C51.6763 22.3183 51.8426 22.3665 52.041 22.4416C52.2554 22.8169 52.1857 23.1601 52.1857 23.589ZM52.9417 20.9564C51.8694 21.0046 51.0061 20.9349 50.0356 20.4255C48.722 19.7392 47.7622 18.4953 47.3333 17.0905C47.3065 16.994 47.2743 16.9028 47.2529 16.8063C47.2261 16.7098 47.2046 16.6133 47.1885 16.5168C47.1724 16.4203 47.151 16.3238 47.1349 16.2219C47.1188 16.1254 47.1081 16.0235 47.0974 15.927C47.0866 15.8305 47.0813 15.7286 47.0759 15.6321C47.0706 15.5356 47.0706 15.4337 47.0652 15.3372C47.0652 15.2407 47.0652 15.1388 47.0706 15.0423C47.0759 14.9458 47.0813 14.8439 47.092 14.7474C47.1027 14.6509 47.1135 14.549 47.1295 14.4525C47.1456 14.356 47.1617 14.2595 47.1778 14.1576C47.1992 14.0611 47.2207 13.9646 47.2421 13.868C47.2636 13.7715 47.2904 13.675 47.3226 13.5839C47.3494 13.4874 47.3815 13.3962 47.4137 13.2997C47.4459 13.2032 47.4834 13.112 47.521 13.0209C47.5585 12.9297 47.6014 12.8386 47.6443 12.7474C47.6872 12.6563 47.7301 12.5705 47.7783 12.4847C48.5987 10.9619 49.8909 10.088 51.5209 9.61613C52.545 9.55715 53.4672 9.67511 54.3894 10.163C55.6494 10.8225 56.5234 12.0611 56.9202 13.4069C57.3813 14.9833 57.2526 16.7795 56.4537 18.2272C55.6602 19.6695 54.5127 20.4899 52.9417 20.9564ZM56.9256 21.3746C56.888 21.3799 56.8451 21.3907 56.8076 21.3907C56.5931 21.3853 56.4698 21.262 56.3572 21.1011C56.3787 20.6775 56.4698 20.581 56.7057 20.2486C56.9309 20.3666 57.0757 20.4738 57.2473 20.6668C57.2312 20.9993 57.1079 21.1172 56.9256 21.3746Z" fill="black" fill-opacity="0.6"/>
<path d="M56.1803 14.7422C56.1696 14.6617 56.1589 14.5867 56.1482 14.5062C56.1374 14.4258 56.1214 14.3507 56.1053 14.2703C56.0892 14.1952 56.0731 14.1148 56.0517 14.0398C55.7782 12.9728 55.1509 11.9647 54.1911 11.3964C53.4029 10.9245 52.5665 10.828 51.6603 10.8924C50.4164 11.2516 49.521 11.7556 48.8668 12.9138C48.8293 12.9835 48.7864 13.0532 48.7542 13.1282C48.7167 13.198 48.6845 13.273 48.6524 13.3481C48.6202 13.4231 48.588 13.4982 48.5612 13.5733C48.5344 13.6483 48.5076 13.7234 48.4808 13.8038C48.454 13.8789 48.4325 13.9593 48.4111 14.0344C48.3896 14.1148 48.3682 14.1899 48.3521 14.2703C48.336 14.3507 48.3199 14.4312 48.3038 14.5062C48.2878 14.5867 48.277 14.6671 48.2717 14.7475C48.261 14.8279 48.2556 14.9084 48.2502 14.9888C48.2449 15.0692 48.2395 15.1496 48.2395 15.2301C48.2395 15.3105 48.2395 15.3909 48.2395 15.4714C48.2395 15.5518 48.2449 15.6322 48.2556 15.7126C48.261 15.7931 48.2717 15.8735 48.2824 15.9539C48.2931 16.0343 48.3038 16.1148 48.3199 16.1952C48.336 16.2756 48.3521 16.3561 48.3682 16.4311C48.3843 16.5115 48.4057 16.5866 48.4272 16.667C48.7382 17.7287 49.4352 18.6884 50.4164 19.2193C51.21 19.6482 51.9445 19.734 52.8346 19.6589C54.0249 19.364 54.915 18.7742 55.553 17.7072C55.5906 17.6375 55.6334 17.5678 55.6656 17.4981C55.7031 17.4284 55.7353 17.3587 55.7675 17.2837C55.7997 17.2139 55.8318 17.1389 55.8586 17.0638C55.8908 16.9887 55.9176 16.9137 55.9391 16.844C55.9659 16.7689 55.9873 16.6939 56.0088 16.6188C56.0302 16.5437 56.0517 16.4687 56.0677 16.3882C56.0838 16.3132 56.1053 16.2327 56.116 16.1577C56.1321 16.0772 56.1428 16.0022 56.1535 15.9217C56.1643 15.8413 56.175 15.7663 56.1803 15.6858C56.1857 15.6054 56.1911 15.5303 56.1964 15.4499C56.2018 15.3695 56.2018 15.2891 56.2018 15.214C56.2018 15.1336 56.1964 15.0531 56.1911 14.9781C56.1911 14.8976 56.1857 14.8226 56.1803 14.7422ZM54.8238 15.4392C54.8184 15.4928 54.8131 15.5464 54.8077 15.6C54.8024 15.6537 54.7916 15.7073 54.7863 15.7609C54.7756 15.8145 54.7648 15.8681 54.7541 15.9164C54.7434 15.97 54.7273 16.0183 54.7166 16.0719C54.7005 16.1255 54.6898 16.1738 54.6683 16.2274C54.6522 16.2756 54.6361 16.3292 54.6147 16.3775C54.2608 17.3105 53.6496 17.8359 52.7595 18.2273C52.4003 18.2649 52.0303 18.2809 51.6818 18.1683C50.9419 17.9324 50.3467 17.4499 50.0035 16.7475C49.9821 16.6992 49.9553 16.6456 49.9338 16.5973C49.9124 16.5491 49.8909 16.4955 49.8749 16.4418C49.8534 16.3882 49.8373 16.34 49.8212 16.2864C49.8052 16.2327 49.7891 16.1791 49.7783 16.1255C49.7623 16.0719 49.7515 16.0183 49.7408 15.9646C49.7301 15.911 49.7194 15.8574 49.714 15.8038C49.7033 15.7502 49.6979 15.6966 49.6926 15.6376C49.6872 15.584 49.6818 15.5303 49.6818 15.4714C49.6765 15.4177 49.6765 15.3641 49.6765 15.3051C49.6765 15.2515 49.6765 15.1925 49.6818 15.1389C49.6818 15.0853 49.6872 15.0263 49.6926 14.9727C49.6979 14.9191 49.7033 14.8655 49.714 14.8065C49.7194 14.7529 49.7301 14.6993 49.7408 14.6456C49.7515 14.592 49.7623 14.5384 49.7783 14.4848C49.7944 14.4312 49.8052 14.3775 49.8212 14.3239C49.8373 14.2703 49.8534 14.2167 49.8749 14.1684C50.2395 13.1765 50.8936 12.6993 51.8266 12.2704C52.218 12.2543 52.5665 12.2543 52.9418 12.3883C52.9847 12.4044 53.0276 12.4205 53.0705 12.4366C53.1134 12.4527 53.1563 12.4741 53.1992 12.4956C53.2421 12.517 53.285 12.5384 53.3225 12.5599C53.3654 12.5813 53.4029 12.6028 53.4458 12.6296C53.4834 12.6564 53.5262 12.6779 53.5638 12.7047C53.6013 12.7315 53.6389 12.7583 53.6764 12.7851C53.7139 12.8119 53.7514 12.8441 53.789 12.8709C53.8265 12.9031 53.8587 12.9299 53.8962 12.962C53.9284 12.9942 53.9659 13.0264 53.9981 13.0585C54.0303 13.0907 54.0624 13.1282 54.0946 13.1604C54.1268 13.1979 54.1536 13.2301 54.1858 13.2677C54.2126 13.3052 54.2447 13.3427 54.2715 13.3803C54.2983 13.4178 54.3252 13.4553 54.352 13.4982C54.3788 13.5357 54.4002 13.5786 54.427 13.6162C54.4485 13.6591 54.4753 13.6966 54.4967 13.7395C54.5182 13.7824 54.5396 13.8253 54.5557 13.8682C54.5772 13.9164 54.5986 13.9647 54.6201 14.0129C54.6415 14.0612 54.6576 14.1148 54.6737 14.1631C54.6898 14.2113 54.7059 14.2649 54.7219 14.3132C54.738 14.3668 54.7487 14.4151 54.7648 14.4687C54.7755 14.5223 54.7863 14.5706 54.797 14.6242C54.8077 14.6778 54.8131 14.7314 54.8238 14.785C54.8292 14.8387 54.8345 14.8923 54.8399 14.9459C54.8453 14.9995 54.8453 15.0531 54.8506 15.1068C54.8506 15.1604 54.8506 15.214 54.8506 15.2676C54.8292 15.332 54.8292 15.3856 54.8238 15.4392Z" fill="black" fill-opacity="0.6"/>
</svg>
