<svg width="47" height="24" viewBox="0 0 47 24" fill="none" xmlns="http://www.w3.org/2000/svg">
<path d="M46.6908 10.9219C46.6868 10.8304 46.6788 10.7348 46.6709 10.6433C46.6629 10.5518 46.6549 10.4562 46.647 10.3647C46.639 10.2731 46.6271 10.1776 46.6151 10.0861C46.6032 9.99452 46.5913 9.899 46.5753 9.80745C46.5594 9.7159 46.5475 9.62436 46.5316 9.52883C46.5156 9.43729 46.4997 9.34574 46.4798 9.2542C46.4599 9.16265 46.44 9.07111 46.4201 8.97956C46.4002 8.88801 46.3763 8.79647 46.3564 8.70492C46.3325 8.61338 46.3087 8.52183 46.2848 8.43427C46.2609 8.34272 46.233 8.25516 46.2052 8.16361C46.1773 8.07206 46.1494 7.9845 46.1216 7.89693C45.3056 5.46899 43.6936 3.35548 41.3732 2.19723C41.198 2.10966 41.0229 2.02608 40.8398 1.95443C40.6607 1.87881 40.4736 1.81512 40.2905 1.75542C40.1035 1.69572 39.9164 1.64795 39.7253 1.60417C39.5343 1.56039 39.3432 1.52855 39.1482 1.50069C37.5561 1.28973 35.8088 1.44098 34.1968 1.44894C32.9589 1.45292 31.6892 1.36536 30.4593 1.437C30.32 1.44496 30.1767 1.46088 30.0374 1.48476C29.8981 1.51263 29.7628 1.54845 29.6275 1.59223C28.4971 1.97831 27.6533 2.89775 26.7458 3.62215L8.71527 3.63409C8.35705 2.45594 7.95504 1.23401 6.98386 0.414079C6.41867 0.394178 5.84949 0.398158 5.2843 0.422039C4.34894 1.34944 3.71608 2.49973 3.19467 3.69778C2.35086 3.93659 1.89711 4.28287 1.46725 5.05106C-0.339783 8.27506 -0.32386 13.1747 0.683141 16.6415C1.10107 18.0824 1.60257 19.3998 2.9678 20.176C3.90713 20.7093 4.52009 23.9174 6.34702 23.5194C7.29034 23.3164 8.02668 22.0109 8.48043 21.2347C8.70333 20.8566 8.91428 20.4745 9.11727 20.0844L27.3786 20.1043C28.1229 20.6297 28.8672 21.1511 29.6155 21.6725L34.6346 21.6765C36.3939 21.6805 38.2288 21.8198 39.9442 21.378C42.4478 20.5382 44.3384 19.0098 45.5206 16.6375C45.5604 16.554 45.6002 16.4704 45.64 16.3828C45.6798 16.2992 45.7156 16.2117 45.7554 16.1281C45.7912 16.0405 45.827 15.9569 45.8629 15.8694C45.8987 15.7818 45.9305 15.6942 45.9664 15.6067C45.9982 15.5191 46.03 15.4315 46.0619 15.344C46.0937 15.2564 46.1216 15.1649 46.1495 15.0773C46.1773 14.9897 46.2052 14.8982 46.233 14.8106C46.2609 14.7191 46.2848 14.6315 46.3087 14.54C46.3325 14.4484 46.3564 14.3569 46.3763 14.2693C46.3962 14.1817 46.4201 14.0862 46.44 13.9947C46.4599 13.9031 46.4798 13.8116 46.4957 13.72C46.5117 13.6285 46.5316 13.5369 46.5435 13.4454C46.5594 13.3538 46.5714 13.2623 46.5873 13.1668C46.5992 13.0752 46.6112 12.9797 46.6231 12.8882C46.635 12.7966 46.643 12.7011 46.651 12.6095C46.6589 12.518 46.6669 12.4225 46.6748 12.3309C46.6828 12.2394 46.6868 12.1439 46.6908 12.0523C46.6947 11.9608 46.6987 11.8652 46.6987 11.7697C46.6987 11.6742 46.7027 11.5826 46.7027 11.4871C46.7027 11.3916 46.7027 11.3 46.6987 11.2045C46.6987 11.109 46.6947 11.0174 46.6908 10.9219ZM13.2965 4.71274L25.9298 4.72468L25.3686 5.70382L6.21966 5.66004C6.43061 5.28589 6.65748 5.0033 6.96396 4.70478C9.05359 4.8003 11.195 4.71274 13.2965 4.71274ZM24.2183 8.99548C24.1745 9.36564 24.1307 9.73979 24.0949 10.1139L4.95792 10.106L5.12907 8.96762L24.2183 8.99548ZM5.344 7.88499C5.43555 7.51483 5.55496 7.15263 5.67038 6.79043H24.895L24.477 7.89295L5.344 7.88499ZM24.0591 11.2324V12.3468L4.8823 12.3389V11.2165L24.0591 11.2324ZM24.1666 13.4892L24.29 14.6673L12.0985 14.6633C9.77003 14.6633 7.39781 14.7549 5.07335 14.6036L4.92608 13.4852C11.3382 13.517 17.7504 13.521 24.1666 13.4892ZM5.39176 15.8375L5.53904 15.746L24.6959 15.7499C24.8273 16.0962 25.0621 16.546 25.0462 16.9122H5.65048C5.54301 16.5739 5.37982 16.1957 5.39176 15.8375ZM1.84537 15.3081C1.98468 16.0843 2.3628 17.0754 2.35086 17.8436L2.26727 17.752C2.06826 17.2823 1.88517 16.7968 1.72596 16.3072C0.655277 12.9598 0.85429 8.63328 2.48221 5.48889C2.57375 5.96254 2.00856 7.41532 1.89313 7.98848C1.69014 9.00344 1.60655 10.098 1.57471 11.1289C1.53889 12.5061 1.59859 13.9549 1.84537 15.3081ZM7.29432 21.0477C7.04357 21.4855 6.67739 22.186 6.14005 22.3014C5.98084 22.3333 5.80969 22.2974 5.68232 22.2019C4.14595 21.0317 3.01556 15.9609 2.79665 14.0862C2.31106 9.87511 3.14691 4.82817 5.82959 1.437C5.89726 1.44098 5.96492 1.44894 6.03258 1.46088L6.11219 1.47282C6.17985 1.48078 6.2515 1.48874 6.31518 1.51263C6.9361 1.73552 7.37393 3.07686 7.62866 3.64206C7.53314 3.64206 7.43363 3.63807 7.3381 3.63807C6.6734 3.64206 6.23558 3.86893 5.77785 4.34258C4.04247 6.14563 3.75191 9.87909 3.81161 12.2633C3.86335 14.3409 4.31312 18.2973 5.92512 19.7899C6.44255 20.2715 7.20676 20.1123 7.85952 20.0844L7.29432 21.0477ZM19.3266 18.9182L6.63758 18.9023C6.41469 18.6197 6.24752 18.365 6.10025 18.0346C8.38491 17.9789 10.6815 18.0147 12.9701 18.0147L25.7786 18.0028C25.9895 18.2893 26.1527 18.6078 26.3239 18.9182C23.9914 18.962 21.655 18.9182 19.3266 18.9182ZM32.2027 20.5501C31.4504 20.5541 30.6942 20.5501 29.9419 20.5422C28.5528 19.7103 27.3707 18.6515 26.5507 17.2386C25.0024 14.5638 24.7158 11.312 25.5278 8.35466C26.2323 5.78741 27.6851 3.90475 30.0096 2.58331L32.6126 2.57535C31.6375 3.29975 30.8375 4.0361 30.1409 5.04708C28.3816 7.61036 27.8841 10.8702 28.4613 13.9031C28.4772 13.9867 28.4931 14.0663 28.509 14.1499C28.5249 14.2335 28.5448 14.3131 28.5647 14.3967C28.5846 14.4803 28.6045 14.5599 28.6244 14.6395C28.6443 14.7191 28.6682 14.8027 28.6921 14.8823C28.716 14.9619 28.7399 15.0415 28.7638 15.1211C28.7876 15.2007 28.8155 15.2803 28.8434 15.3599C28.8712 15.4395 28.8991 15.5191 28.9269 15.5987C28.9548 15.6783 28.9866 15.7539 29.0185 15.8335C29.0503 15.9131 29.0822 15.9888 29.114 16.0644C29.1459 16.14 29.1817 16.2196 29.2175 16.2952C29.2533 16.3709 29.2891 16.4465 29.325 16.5221C29.3608 16.5977 29.4006 16.6734 29.4364 16.745C29.4762 16.8206 29.516 16.8923 29.5558 16.9679C29.5956 17.0435 29.6394 17.1152 29.6792 17.1868C29.723 17.2585 29.7668 17.3301 29.8106 17.4018C29.8543 17.4734 29.8981 17.545 29.9459 17.6127C29.9936 17.6843 30.0374 17.752 30.0852 17.8197C30.133 17.8873 30.1807 17.959 30.2325 18.0266C30.2802 18.0943 30.332 18.162 30.3837 18.2296C30.4355 18.2973 30.4872 18.361 30.5389 18.4287C30.5907 18.4923 30.6464 18.56 30.6981 18.6237C30.7539 18.6874 30.8056 18.7511 30.8613 18.8147C30.9171 18.8784 30.9728 18.9381 31.0325 19.0018C31.0882 19.0615 31.1479 19.1252 31.2076 19.1849C31.2673 19.2446 31.327 19.3043 31.3867 19.364C31.4464 19.4237 31.5061 19.4794 31.5698 19.5352C31.6335 19.5909 31.6932 19.6466 31.7569 19.7023C31.8206 19.7581 31.8843 19.8138 31.9479 19.8655C32.0116 19.9173 32.0793 19.973 32.143 20.0247C32.2106 20.0765 32.2743 20.1282 32.342 20.18C32.4097 20.2317 32.4773 20.2795 32.545 20.3272C32.6126 20.375 32.6803 20.4228 32.752 20.4705C32.6485 20.574 32.3619 20.5422 32.2027 20.5501ZM45.6201 11.8215C45.6161 11.905 45.6121 11.9926 45.6081 12.0762C45.6042 12.1598 45.5962 12.2473 45.5922 12.3309C45.5843 12.4145 45.5763 12.4981 45.5683 12.5857C45.5604 12.6692 45.5484 12.7528 45.5405 12.8404C45.5285 12.924 45.5166 13.0076 45.5046 13.0911C45.4927 13.1747 45.4768 13.2583 45.4609 13.3419C45.445 13.4255 45.429 13.5091 45.4131 13.5927C45.3972 13.6762 45.3773 13.7598 45.3574 13.8394C45.3375 13.923 45.3176 14.0026 45.2977 14.0862C45.2778 14.1698 45.2539 14.2494 45.23 14.333C45.2061 14.4166 45.1822 14.4962 45.1584 14.5758C45.1345 14.6554 45.1066 14.739 45.0788 14.8186C45.0509 14.8982 45.023 14.9778 44.9952 15.0574C44.9673 15.137 44.9355 15.2166 44.9036 15.2962C44.8718 15.3758 44.8399 15.4554 44.8081 15.531C44.7763 15.6106 44.7404 15.6863 44.7046 15.7659C44.6688 15.8415 44.633 15.9211 44.5972 15.9967C44.5613 16.0723 44.5215 16.148 44.4857 16.2236C44.4459 16.2992 44.4061 16.3748 44.3663 16.4505C43.228 18.5401 41.4806 19.774 39.2318 20.4307C38.0815 20.6218 36.0237 20.6098 34.9132 20.2994C34.2804 20.1203 33.6913 19.7979 33.154 19.4197C31.1758 18.0266 29.8703 15.7898 29.4603 13.4215C28.9946 10.7547 29.4683 7.83325 31.0484 5.60431C32.1669 4.02814 33.7351 2.91367 35.6575 2.58729C37.373 2.30867 39.6457 2.54351 41.1662 3.36742C43.0926 4.40626 44.5733 6.46803 45.1862 8.55367C45.2101 8.63328 45.234 8.71686 45.2539 8.80045C45.2778 8.88403 45.2977 8.96364 45.3176 9.04722C45.3375 9.13081 45.3574 9.21041 45.3733 9.294C45.3932 9.37758 45.4091 9.46117 45.425 9.54475C45.441 9.62834 45.4569 9.71192 45.4688 9.79551C45.4847 9.87909 45.4967 9.96268 45.5086 10.0463C45.5206 10.1298 45.5325 10.2134 45.5405 10.297C45.5524 10.3806 45.5604 10.4642 45.5683 10.5518C45.5763 10.6353 45.5843 10.7189 45.5882 10.8065C45.5922 10.8901 45.6002 10.9776 45.6042 11.0612C45.6081 11.1448 45.6121 11.2324 45.6121 11.316C45.6121 11.3995 45.6161 11.4871 45.6121 11.5707C45.628 11.6503 45.6241 11.7379 45.6201 11.8215Z" fill="black" fill-opacity="0.6"/>
<path d="M1.90071 7.99245C2.01614 7.4193 2.57735 5.96651 2.48978 5.49286C0.861864 8.63725 0.662852 12.9638 1.73354 16.3112C1.88877 16.7967 2.07584 17.2823 2.27485 17.756L2.35844 17.8475C2.37038 17.0754 1.99225 16.0883 1.85294 15.3121C1.60617 13.9588 1.55045 12.51 1.59025 11.1368C1.61413 10.102 1.69374 9.00741 1.90071 7.99245Z" fill="#FDFDFD"/>
<path d="M12.9698 18.0108C10.6811 18.0148 8.38849 17.975 6.09985 18.0307C6.24712 18.3571 6.41429 18.6158 6.63719 18.8984L19.3262 18.9143C21.6586 18.9143 23.995 18.9581 26.3235 18.9183C26.1523 18.6039 25.9891 18.2894 25.7782 18.0029L12.9698 18.0108Z" fill="#FDFDFD"/>
<path d="M6.21533 5.66007L25.3643 5.70386L25.9255 4.72472L13.2922 4.71278C11.1906 4.71278 9.04926 4.80034 6.95566 4.70084C6.65316 5.00333 6.42628 5.28593 6.21533 5.66007Z" fill="#FDFDFD"/>
<path d="M24.8945 6.78647H5.66988C5.55446 7.14867 5.43505 7.51087 5.34351 7.88104L24.4765 7.88899L24.8945 6.78647Z" fill="#FDFDFD"/>
<path d="M4.88171 12.3351L24.0585 12.347V11.2325L4.88171 11.2126V12.3351Z" fill="#FDFDFD"/>
<path d="M4.95764 10.106L24.0946 10.1139C24.1345 9.73979 24.1743 9.36963 24.218 8.99548L5.12879 8.96762L4.95764 10.106Z" fill="#FDFDFD"/>
<path d="M12.0981 14.6633L24.2895 14.6673L24.1662 13.4892C17.754 13.521 11.3378 13.517 4.92566 13.4852L5.07293 14.6036C7.39739 14.7549 9.76961 14.6594 12.0981 14.6633Z" fill="#FDFDFD"/>
<path d="M25.0461 16.9122C25.0621 16.5461 24.8272 16.0963 24.6959 15.75L5.53898 15.746L5.39171 15.8376C5.37579 16.1958 5.53898 16.5739 5.65042 16.9122H25.0461Z" fill="#FDFDFD"/>
<path d="M5.9247 19.7899C4.31271 18.2973 3.86294 14.341 3.8112 12.2633C3.75149 9.87911 4.04205 6.14166 5.77744 4.34259C6.23118 3.86894 6.67299 3.64207 7.33769 3.63809C7.43322 3.63809 7.53272 3.63809 7.62825 3.64207C7.37351 3.07687 6.93569 1.73155 6.31477 1.51264C6.24711 1.48876 6.17944 1.48079 6.11177 1.47283L6.03217 1.46089C5.9645 1.45293 5.89684 1.44497 5.82918 1.43701C3.15047 4.8242 2.31462 9.87114 2.79623 14.0862C3.01117 15.9609 4.14554 21.0357 5.68191 22.2019C5.80928 22.3014 5.98043 22.3373 6.13964 22.3014C6.67697 22.19 7.03917 21.4855 7.29391 21.0477L7.8591 20.0844C7.20634 20.1123 6.44612 20.2675 5.9247 19.7899Z" fill="#FDFDFD"/>
<path d="M32.3456 20.172C32.2779 20.1203 32.2103 20.0685 32.1466 20.0168C32.0789 19.9651 32.0152 19.9133 31.9516 19.8576C31.8879 19.8058 31.8242 19.7501 31.7605 19.6944C31.6968 19.6387 31.6331 19.583 31.5734 19.5272C31.5097 19.4715 31.4501 19.4118 31.3903 19.3561C31.3306 19.2964 31.2709 19.2407 31.2112 19.177C31.1515 19.1173 31.0958 19.0576 31.0361 18.9939C30.9804 18.9342 30.9207 18.8705 30.865 18.8068C30.8092 18.7431 30.7535 18.6794 30.7018 18.6157C30.646 18.5521 30.5943 18.4884 30.5426 18.4207C30.4908 18.357 30.4391 18.2894 30.3873 18.2217C30.3356 18.154 30.2878 18.0864 30.2361 18.0187C30.1883 17.951 30.1366 17.8834 30.0888 17.8117C30.041 17.7441 29.9933 17.6724 29.9495 17.6048C29.9017 17.5331 29.858 17.4655 29.8142 17.3938C29.7704 17.3222 29.7266 17.2505 29.6828 17.1789C29.639 17.1072 29.5992 17.0316 29.5594 16.96C29.5196 16.8883 29.4798 16.8127 29.44 16.7371C29.4002 16.6615 29.3644 16.5898 29.3286 16.5142C29.2928 16.4386 29.2569 16.3629 29.2211 16.2873C29.1853 16.2117 29.1534 16.1361 29.1176 16.0565C29.0818 15.9768 29.0539 15.9012 29.0221 15.8256C28.9903 15.75 28.9624 15.6704 28.9306 15.5908C28.9027 15.5112 28.8748 15.4316 28.847 15.352C28.8191 15.2723 28.7952 15.1927 28.7674 15.1131C28.7435 15.0335 28.7196 14.9539 28.6957 14.8743C28.6718 14.7947 28.6519 14.7111 28.6281 14.6315C28.6082 14.5519 28.5883 14.4683 28.5683 14.3887C28.5484 14.3051 28.5325 14.2255 28.5126 14.142C28.4967 14.0584 28.4808 13.9788 28.4649 13.8952C27.8877 10.8662 28.3853 7.6064 30.1445 5.03914C30.8371 4.02816 31.6411 3.29182 32.6163 2.56741L30.0132 2.57537C27.6887 3.89681 26.2359 5.77947 25.5314 8.34672C24.7195 11.304 25.006 14.5559 26.5544 17.2306C27.3743 18.6436 28.5564 19.7063 29.9455 20.5342C30.6978 20.5422 31.454 20.5462 32.2063 20.5422C32.3655 20.5342 32.6521 20.5621 32.7595 20.4546C32.6919 20.4069 32.6202 20.3591 32.5526 20.3113C32.4809 20.2715 32.4133 20.2238 32.3456 20.172Z" fill="#FDFDFD"/>
<path d="M45.6156 11.0573C45.6116 10.9737 45.6076 10.8862 45.5997 10.8026C45.5957 10.719 45.5877 10.6314 45.5798 10.5478C45.5718 10.4643 45.5638 10.3807 45.5519 10.2931C45.5439 10.2095 45.532 10.1259 45.5201 10.0424C45.5081 9.95877 45.4962 9.87519 45.4802 9.7916C45.4643 9.70802 45.4524 9.62443 45.4365 9.54085C45.4205 9.45726 45.4046 9.37368 45.3847 9.29009C45.3648 9.20651 45.3489 9.12292 45.329 9.04332C45.3091 8.95973 45.2892 8.88013 45.2653 8.79654C45.2414 8.71296 45.2215 8.63335 45.1976 8.54977C44.5847 6.46412 43.1001 4.40235 41.1776 3.36351C39.6571 2.54358 37.3844 2.30476 35.6689 2.58338C33.7505 2.90976 32.1783 4.02423 31.0598 5.60041C29.4797 7.82934 29.006 10.7508 29.4717 13.4176C29.8857 15.7858 31.1912 18.0188 33.1654 19.4158C33.7027 19.794 34.2878 20.1164 34.9246 20.2955C36.0312 20.6059 38.0929 20.6179 39.2432 20.4268C41.492 19.7701 43.2354 18.5362 44.3777 16.4466C44.4175 16.3709 44.4573 16.2953 44.4971 16.2197C44.5369 16.1441 44.5727 16.0684 44.6086 15.9928C44.6444 15.9172 44.6802 15.8376 44.716 15.762C44.7519 15.6863 44.7837 15.6067 44.8195 15.5271C44.8514 15.4475 44.8832 15.3719 44.9151 15.2923C44.9469 15.2127 44.9748 15.1331 45.0066 15.0535C45.0345 14.9739 45.0623 14.8943 45.0902 14.8147C45.118 14.7351 45.1419 14.6555 45.1698 14.5719C45.1937 14.4923 45.2176 14.4087 45.2414 14.3291C45.2653 14.2495 45.2852 14.1659 45.3091 14.0823C45.329 13.9987 45.3489 13.9191 45.3688 13.8355C45.3887 13.7519 45.4046 13.6684 45.4245 13.5888C45.4404 13.5052 45.4564 13.4216 45.4723 13.338C45.4882 13.2544 45.5001 13.1708 45.5161 13.0872C45.528 13.0037 45.54 12.9201 45.5519 12.8365C45.5638 12.7529 45.5718 12.6693 45.5798 12.5818C45.5877 12.4982 45.5957 12.4146 45.6036 12.327C45.6116 12.2434 45.6156 12.1559 45.6196 12.0723C45.6235 11.9887 45.6275 11.9011 45.6315 11.8175C45.6355 11.734 45.6355 11.6464 45.6355 11.5628C45.6355 11.4792 45.6355 11.3917 45.6355 11.3081C45.6235 11.2285 45.6196 11.1409 45.6156 11.0573ZM44.6922 13.2106C44.6484 13.4375 44.5608 13.6405 44.3618 13.7679C43.916 14.0465 43.2752 13.7957 42.8055 13.6723C42.6622 13.9709 42.5468 14.2734 42.4354 14.5838C42.6981 14.9102 43.2274 15.3799 43.2115 15.8177C43.1916 16.3152 42.7976 16.8486 42.4314 17.159C42.2125 17.3461 41.894 17.5173 41.5995 17.4735C41.2055 17.4138 40.7517 16.7252 40.497 16.4267C40.1268 16.6137 39.7527 16.753 39.3586 16.8844C39.3785 17.3978 39.4223 17.9232 39.3467 18.4327C39.2711 18.5203 39.1954 18.6078 39.1079 18.6835C38.8293 18.9143 38.1884 18.9501 37.8342 18.9263C37.476 18.9024 37.0899 18.787 36.8551 18.5004C36.5287 18.0984 36.7237 17.2227 36.7715 16.7252L36.0311 16.4346C35.7844 16.7451 35.3983 17.362 34.9963 17.4416C34.7654 17.4894 34.5067 17.362 34.3157 17.2426C33.9097 16.9839 33.4241 16.4824 33.3445 15.9888C33.2768 15.5669 33.9336 14.8823 34.1843 14.556L33.7823 13.6365C33.3405 13.7042 32.847 13.8116 32.4012 13.7917C32.1544 13.7838 31.9912 13.7281 31.828 13.537C31.5295 13.1867 31.3862 12.6056 31.4141 12.1519C31.434 11.8175 31.5574 11.4792 31.828 11.2643C32.3216 10.8742 32.9266 11.0056 33.4997 11.0573C33.5873 10.6434 33.6868 10.2294 33.7823 9.81548C33.448 9.60851 33.0738 9.40552 32.7753 9.15476C32.5882 8.99953 32.4529 8.82042 32.445 8.56967C32.4251 7.96865 33.0101 7.31191 33.4122 6.91787C33.6908 6.64721 34.1206 6.27705 34.5306 6.30093C34.9963 6.32879 35.4341 6.97359 35.7207 7.30793L36.5526 6.79448L36.3575 4.66505C36.7954 4.44215 37.1894 4.32673 37.679 4.26304C37.8302 4.21528 38.1088 4.19936 38.2601 4.25906C38.9288 4.51778 38.5705 5.8432 38.8014 6.39247C38.8571 6.42432 38.9208 6.4681 38.9845 6.48004C39.0084 6.48402 39.2313 6.50392 39.2432 6.49596C39.5855 6.18948 39.5218 5.66807 40.1706 5.35363C40.4532 5.2183 40.7716 5.23422 41.0622 5.34169C41.4363 5.481 41.7906 5.8034 41.9418 6.17754C42.1488 6.69099 41.7786 7.32783 41.5796 7.80148L42.0732 8.31891C42.3199 8.1995 42.5707 8.07214 42.8294 7.97263C43.0881 7.87312 43.4463 7.76566 43.709 7.90099C44.0553 8.08408 44.2782 8.52588 44.3698 8.89605C44.72 10.325 43.3747 10.2732 43.0961 10.7906C43.0443 10.8862 43.0762 10.918 43.1001 11.0215C43.5737 11.3081 44.1946 11.4195 44.72 11.5947C44.732 12.1081 44.7917 12.7051 44.6922 13.2106Z" fill="#FDFDFD"/>
<path d="M43.1042 11.0175C43.0803 10.9179 43.0485 10.8861 43.1002 10.7866C43.3828 10.2692 44.7242 10.3209 44.3739 8.892C44.2823 8.52184 44.0595 8.08003 43.7132 7.89694C43.4505 7.75764 43.0923 7.86908 42.8335 7.96859C42.5748 8.06809 42.3241 8.19546 42.0773 8.31487L41.5837 7.79744C41.7867 7.32379 42.1529 6.68695 41.9459 6.1735C41.7947 5.79936 41.4405 5.47696 41.0663 5.33765C40.7758 5.23018 40.4573 5.21426 40.1747 5.34959C39.522 5.66403 39.5857 6.18544 39.2473 6.49192C39.2354 6.49988 39.0125 6.48396 38.9886 6.476C38.9249 6.46008 38.8613 6.42027 38.8055 6.38843C38.5747 5.83916 38.9329 4.51374 38.2642 4.25502C38.117 4.1993 37.8344 4.21522 37.6831 4.259C37.1935 4.32269 36.7995 4.44209 36.3617 4.66101L36.5567 6.79044L35.7248 7.30389C35.4382 6.96955 35.0004 6.32475 34.5347 6.29689C34.1208 6.273 33.6949 6.64317 33.4163 6.91382C33.0143 7.30389 32.4292 7.96063 32.4491 8.56562C32.457 8.81638 32.5924 8.99549 32.7794 9.15072C33.078 9.40147 33.4521 9.60447 33.7864 9.81144C33.6909 10.2254 33.5914 10.6393 33.5038 11.0533C32.9267 11.0015 32.3257 10.8702 31.8321 11.2602C31.5615 11.4752 31.4381 11.8095 31.4182 12.1478C31.3903 12.6016 31.5336 13.1827 31.8321 13.533C31.9953 13.724 32.1585 13.7758 32.4053 13.7877C32.8511 13.8036 33.3446 13.6962 33.7864 13.6325L34.1885 14.5519C33.9377 14.8743 33.281 15.5589 33.3486 15.9848C33.4282 16.4783 33.9138 16.9799 34.3198 17.2386C34.5108 17.358 34.7656 17.4853 35.0004 17.4376C35.3984 17.358 35.7885 16.741 36.0353 16.4306L36.7756 16.7211C36.7279 17.2187 36.5328 18.0943 36.8592 18.4963C37.09 18.7829 37.4801 18.8983 37.8383 18.9222C38.1926 18.9461 38.8294 18.9103 39.112 18.6794C39.1996 18.6038 39.2792 18.5162 39.3508 18.4287C39.4265 17.9192 39.3827 17.3938 39.3628 16.8804C39.7568 16.749 40.131 16.6137 40.5011 16.4226C40.7519 16.7211 41.2056 17.4097 41.6036 17.4694C41.9022 17.5132 42.2166 17.3381 42.4355 17.155C42.8017 16.8445 43.1997 16.3112 43.2156 15.8136C43.2316 15.3758 42.7062 14.9062 42.4395 14.5798C42.5549 14.2693 42.6703 13.9668 42.8097 13.6683C43.2793 13.7877 43.9162 14.0424 44.3659 13.7638C44.5689 13.6365 44.6525 13.4335 44.6963 13.2066C44.7958 12.7011 44.7361 12.1041 44.7281 11.5906C44.1988 11.4155 43.5739 11.304 43.1042 11.0175ZM32.6799 12.721C32.4968 12.4901 32.5128 12.3429 32.4849 12.0563C32.7715 12.0364 33.0541 12.0006 33.3327 12.0682C33.5397 12.2712 33.5516 12.4304 33.6233 12.7051C33.3128 12.7449 32.9745 12.8285 32.6799 12.721ZM34.2601 8.95171C34.0093 8.76464 33.7745 8.54572 33.5357 8.33875L34.3596 7.39941C34.5745 7.59047 34.8094 7.7656 35.0362 7.94471C34.7735 8.27905 34.5148 8.61339 34.2601 8.95171ZM38.3359 17.8993C38.1607 17.8874 38.0294 17.8635 37.8662 17.7998C37.703 17.557 37.7826 17.2067 37.8025 16.9281C37.9577 16.956 38.0811 16.9918 38.2284 17.0475C38.3876 17.3261 38.3359 17.5809 38.3359 17.8993ZM38.8971 15.945C38.101 15.9808 37.4602 15.9291 36.7398 15.5509C35.7646 15.0415 35.0522 14.1181 34.7337 13.0752C34.7138 13.0036 34.69 12.9359 34.674 12.8643C34.6541 12.7926 34.6382 12.721 34.6263 12.6494C34.6143 12.5777 34.5984 12.5061 34.5865 12.4304C34.5745 12.3588 34.5666 12.2832 34.5586 12.2115C34.5507 12.1399 34.5467 12.0643 34.5427 11.9926C34.5387 11.921 34.5387 11.8453 34.5347 11.7737C34.5347 11.7021 34.5347 11.6264 34.5387 11.5548C34.5427 11.4831 34.5467 11.4075 34.5546 11.3359C34.5626 11.2642 34.5706 11.1886 34.5825 11.117C34.5944 11.0453 34.6064 10.9737 34.6183 10.898C34.6342 10.8264 34.6502 10.7548 34.6661 10.6831C34.682 10.6115 34.7019 10.5398 34.7258 10.4722C34.7457 10.4005 34.7696 10.3329 34.7935 10.2612C34.8173 10.1896 34.8452 10.1219 34.8731 10.0542C34.9009 9.98657 34.9328 9.91891 34.9646 9.85124C34.9964 9.78358 35.0283 9.7199 35.0641 9.65621C35.6731 8.52582 36.6323 7.87704 37.8423 7.52678C38.6025 7.483 39.2871 7.57056 39.9717 7.93277C40.9071 8.42234 41.5559 9.34177 41.8504 10.3408C42.1927 11.511 42.0972 12.8444 41.5041 13.919C40.9151 14.9897 40.0633 15.5987 38.8971 15.945ZM41.8544 16.2555C41.8265 16.2594 41.7947 16.2674 41.7668 16.2674C41.6076 16.2634 41.5161 16.1719 41.4325 16.0525C41.4484 15.738 41.5161 15.6664 41.6912 15.4196C41.8584 15.5072 41.9658 15.5868 42.0932 15.7301C42.0813 15.9768 41.9897 16.0644 41.8544 16.2555Z" fill="black" fill-opacity="0.6"/>
<path d="M41.6912 15.4236C41.5161 15.6704 41.4444 15.742 41.4325 16.0565C41.5201 16.1719 41.6076 16.2634 41.7668 16.2714C41.7987 16.2714 41.8265 16.2634 41.8544 16.2595C41.9897 16.0644 42.0813 15.9809 42.0932 15.7341C41.9658 15.5868 41.8584 15.5112 41.6912 15.4236Z" fill="#FDFDFD"/>
<path d="M37.8027 16.9241C37.7828 17.2027 37.7032 17.553 37.8664 17.7957C38.0296 17.8634 38.1609 17.8833 38.336 17.8953C38.336 17.5768 38.3878 17.3221 38.2246 17.0435C38.0813 16.9878 37.9539 16.9559 37.8027 16.9241Z" fill="#FDFDFD"/>
<path d="M32.4812 12.0522C32.5091 12.3388 32.4971 12.4861 32.6762 12.7169C32.9748 12.8244 33.3091 12.7408 33.6196 12.705C33.5479 12.4304 33.5399 12.2712 33.329 12.0682C33.0504 11.9965 32.7678 12.0363 32.4812 12.0522Z" fill="#FDFDFD"/>
<path d="M34.3598 7.40347L33.5359 8.34281C33.7747 8.5458 34.0095 8.7687 34.2603 8.95577C34.515 8.61745 34.7737 8.28311 35.0364 7.95275C34.8096 7.76965 34.5747 7.59452 34.3598 7.40347Z" fill="#FDFDFD"/>
<path d="M41.8544 10.333C41.5598 9.33394 40.9111 8.4145 39.9757 7.92493C39.2911 7.56671 38.6065 7.47914 37.8463 7.51894C36.6323 7.87319 35.677 8.51799 35.0681 9.64837C35.0322 9.71206 35.0004 9.77972 34.9686 9.84341C34.9367 9.91107 34.9089 9.97873 34.877 10.0464C34.8492 10.1141 34.8213 10.1817 34.7974 10.2534C34.7735 10.325 34.7497 10.3927 34.7297 10.4643C34.7098 10.536 34.6899 10.6076 34.67 10.6753C34.6541 10.7469 34.6342 10.8186 34.6223 10.8902C34.6064 10.9619 34.5944 11.0335 34.5865 11.1091C34.5745 11.1808 34.5666 11.2564 34.5586 11.328C34.5506 11.3997 34.5467 11.4753 34.5427 11.547C34.5387 11.6186 34.5387 11.6942 34.5387 11.7659C34.5387 11.8375 34.5427 11.9131 34.5467 11.9848C34.5506 12.0564 34.5546 12.132 34.5626 12.2037C34.5705 12.2753 34.5785 12.351 34.5904 12.4226C34.6024 12.4942 34.6143 12.5659 34.6302 12.6415C34.6462 12.7171 34.6621 12.7848 34.678 12.8565C34.6979 12.9281 34.7178 12.9997 34.7377 13.0674C35.0561 14.1142 35.7686 15.0336 36.7438 15.5431C37.4642 15.9212 38.101 15.973 38.901 15.9372C40.0673 15.5909 40.919 14.9819 41.5121 13.9033C42.0972 12.8366 42.1967 11.5032 41.8544 10.333ZM41.3171 11.8614C41.3131 11.9211 41.3131 11.9808 41.3051 12.0365C41.3011 12.0962 41.2932 12.1519 41.2852 12.2117C41.2772 12.2714 41.2693 12.3271 41.2573 12.3868C41.2454 12.4465 41.2335 12.5022 41.2215 12.5579C41.2096 12.6137 41.1937 12.6734 41.1777 12.7291C41.1618 12.7848 41.1419 12.8405 41.126 12.8963C41.1061 12.952 41.0862 13.0077 41.0663 13.0594C41.0464 13.1152 41.0225 13.1669 40.9986 13.2226C40.9748 13.2744 40.9469 13.3301 40.923 13.3818C40.8951 13.4336 40.8673 13.4853 40.8394 13.5371C40.3658 14.3331 39.7051 14.7709 38.8214 14.9859C38.1607 15.0416 37.6154 14.9779 37.0263 14.6595C36.298 14.2655 35.7805 13.553 35.5497 12.7649C35.5338 12.7052 35.5178 12.6495 35.5059 12.5898C35.494 12.5301 35.478 12.4743 35.4701 12.4146C35.4581 12.3549 35.4502 12.2952 35.4422 12.2355C35.4343 12.1758 35.4263 12.1161 35.4223 12.0564C35.4183 11.9967 35.4144 11.937 35.4104 11.8773C35.4104 11.8176 35.4064 11.7579 35.4104 11.6982C35.4104 11.6385 35.4144 11.5788 35.4183 11.5191C35.4223 11.4594 35.4263 11.3997 35.4343 11.34C35.4422 11.2803 35.4502 11.2206 35.4581 11.1609C35.4701 11.1012 35.478 11.0415 35.494 10.9857C35.5059 10.926 35.5218 10.8703 35.5377 10.8106C35.5537 10.7509 35.5696 10.6952 35.5895 10.6395C35.6094 10.5837 35.6293 10.524 35.6492 10.4683C35.6691 10.4126 35.693 10.3569 35.7169 10.3011C35.7407 10.2454 35.7686 10.1937 35.7925 10.1379C35.8203 10.0862 35.8482 10.0305 35.8761 9.97873C36.3617 9.11502 37.0264 8.74088 37.9498 8.47818C38.6224 8.43042 39.2394 8.50206 39.8284 8.85233C40.5409 9.27821 41.0066 10.0225 41.2096 10.8146C41.2255 10.8703 41.2374 10.93 41.2494 10.9857C41.2613 11.0415 41.2733 11.1012 41.2812 11.1609C41.2892 11.2206 41.2971 11.2763 41.3051 11.336C41.3131 11.3957 41.3171 11.4514 41.321 11.5111C41.325 11.5708 41.325 11.6266 41.329 11.6863C41.321 11.742 41.321 11.8017 41.3171 11.8614Z" fill="#FDFDFD"/>
<path d="M41.3012 11.332C41.2933 11.2723 41.2853 11.2166 41.2774 11.1569C41.2694 11.0972 41.2574 11.0415 41.2455 10.9817C41.2336 10.926 41.2216 10.8663 41.2057 10.8106C41.0027 10.0185 40.537 9.27024 39.8246 8.84834C39.2395 8.49808 38.6186 8.42643 37.9459 8.4742C37.0225 8.74087 36.3578 9.11501 35.8722 9.97475C35.8443 10.0265 35.8125 10.0782 35.7886 10.134C35.7607 10.1857 35.7369 10.2414 35.713 10.2971C35.6891 10.3529 35.6652 10.4086 35.6453 10.4643C35.6254 10.52 35.6055 10.5758 35.5856 10.6355C35.5657 10.6912 35.5498 10.7509 35.5339 10.8066C35.5179 10.8663 35.502 10.922 35.4901 10.9817C35.4781 11.0415 35.4662 11.1012 35.4543 11.1569C35.4423 11.2166 35.4344 11.2763 35.4304 11.336C35.4224 11.3957 35.4184 11.4554 35.4145 11.5151C35.4105 11.5748 35.4065 11.6345 35.4065 11.6942C35.4065 11.7539 35.4065 11.8136 35.4065 11.8733C35.4065 11.933 35.4105 11.9927 35.4184 12.0524C35.4224 12.1121 35.4304 12.1718 35.4383 12.2315C35.4463 12.2912 35.4543 12.351 35.4662 12.4107C35.4781 12.4704 35.4901 12.5301 35.502 12.5858C35.514 12.6455 35.5299 12.7012 35.5458 12.7609C35.7767 13.549 36.2941 14.2615 37.0225 14.6555C37.6116 14.9739 38.1568 15.0376 38.8176 14.9819C39.7012 14.763 40.3619 14.3252 40.8356 13.5331C40.8634 13.4813 40.8952 13.4296 40.9191 13.3779C40.947 13.3261 40.9709 13.2744 40.9948 13.2186C41.0186 13.1669 41.0425 13.1112 41.0624 13.0555C41.0863 12.9997 41.1062 12.944 41.1221 12.8923C41.142 12.8365 41.158 12.7808 41.1739 12.7251C41.1898 12.6694 41.2057 12.6136 41.2176 12.5539C41.2296 12.4982 41.2455 12.4385 41.2535 12.3828C41.2654 12.3231 41.2734 12.2674 41.2813 12.2077C41.2893 12.148 41.2973 12.0922 41.3012 12.0325C41.3052 11.9728 41.3092 11.9171 41.3132 11.8574C41.3172 11.7977 41.3172 11.738 41.3172 11.6823C41.3172 11.6226 41.3132 11.5629 41.3092 11.5071C41.3092 11.4474 41.3052 11.3917 41.3012 11.332ZM40.2942 11.8494C40.2903 11.8892 40.2863 11.929 40.2823 11.9688C40.2783 12.0087 40.2704 12.0485 40.2664 12.0883C40.2584 12.1281 40.2504 12.1679 40.2425 12.2037C40.2345 12.2435 40.2226 12.2793 40.2146 12.3191C40.2027 12.3589 40.1947 12.3947 40.1788 12.4345C40.1669 12.4704 40.1549 12.5102 40.139 12.546C39.8763 13.2385 39.4226 13.6286 38.7618 13.9192C38.4952 13.947 38.2205 13.959 37.9618 13.8754C37.4125 13.7003 36.9707 13.342 36.716 12.8206C36.7001 12.7848 36.6802 12.745 36.6643 12.7092C36.6483 12.6734 36.6324 12.6335 36.6205 12.5937C36.6045 12.5539 36.5926 12.5181 36.5807 12.4783C36.5687 12.4385 36.5568 12.3987 36.5488 12.3589C36.5369 12.3191 36.5289 12.2793 36.521 12.2395C36.513 12.1997 36.505 12.1599 36.5011 12.1201C36.4931 12.0803 36.4891 12.0405 36.4851 11.9967C36.4812 11.9569 36.4772 11.9171 36.4772 11.8733C36.4732 11.8335 36.4732 11.7937 36.4732 11.7499C36.4732 11.7101 36.4732 11.6664 36.4772 11.6265C36.4772 11.5867 36.4812 11.543 36.4851 11.5032C36.4891 11.4634 36.4931 11.4236 36.5011 11.3798C36.505 11.34 36.513 11.3002 36.521 11.2604C36.5289 11.2206 36.5369 11.1808 36.5488 11.141C36.5608 11.1012 36.5687 11.0614 36.5807 11.0216C36.5926 10.9817 36.6045 10.9419 36.6205 10.9061C36.8911 10.1698 37.3767 9.81554 38.0693 9.49712C38.3598 9.48518 38.6185 9.48518 38.8972 9.58468C38.929 9.59662 38.9609 9.60856 38.9927 9.6205C39.0245 9.63245 39.0564 9.64837 39.0882 9.66429C39.1201 9.68021 39.1519 9.69613 39.1798 9.71205C39.2116 9.72797 39.2395 9.74389 39.2713 9.76379C39.2992 9.78369 39.331 9.79962 39.3589 9.81952C39.3867 9.83942 39.4146 9.85932 39.4425 9.87922C39.4703 9.89912 39.4982 9.923 39.526 9.9429C39.5539 9.96679 39.5778 9.98669 39.6056 10.0106C39.6295 10.0345 39.6574 10.0583 39.6813 10.0822C39.7052 10.1061 39.729 10.134 39.7529 10.1578C39.7768 10.1857 39.7967 10.2096 39.8206 10.2374C39.8405 10.2653 39.8644 10.2932 39.8843 10.321C39.9042 10.3489 39.9241 10.3768 39.944 10.4086C39.9639 10.4365 39.9798 10.4683 39.9997 10.4962C40.0156 10.528 40.0355 10.5559 40.0514 10.5877C40.0674 10.6195 40.0833 10.6514 40.0952 10.6832C40.1111 10.7191 40.1271 10.7549 40.143 10.7907C40.1589 10.8265 40.1708 10.8663 40.1828 10.9021C40.1947 10.938 40.2067 10.9778 40.2186 11.0136C40.2306 11.0534 40.2385 11.0892 40.2504 11.129C40.2584 11.1688 40.2664 11.2046 40.2743 11.2444C40.2823 11.2842 40.2863 11.324 40.2942 11.3639C40.2982 11.4037 40.3022 11.4435 40.3062 11.4833C40.3102 11.5231 40.3102 11.5629 40.3141 11.6027C40.3141 11.6425 40.3141 11.6823 40.3141 11.7221C40.2982 11.7698 40.2982 11.8096 40.2942 11.8494Z" fill="black" fill-opacity="0.6"/>
<path d="M40.29 11.4912C40.286 11.4514 40.282 11.4116 40.2781 11.3718C40.2741 11.3319 40.2661 11.2921 40.2582 11.2523C40.2502 11.2125 40.2422 11.1727 40.2343 11.1369C40.2263 11.0971 40.2144 11.0613 40.2024 11.0215C40.1905 10.9817 40.1786 10.9459 40.1666 10.91C40.1547 10.8742 40.1388 10.8344 40.1268 10.7986C40.1109 10.7628 40.095 10.727 40.0791 10.6911C40.0631 10.6593 40.0512 10.6274 40.0353 10.5956C40.0193 10.5638 40.0034 10.5359 39.9835 10.5041C39.9676 10.4722 39.9477 10.4444 39.9278 10.4165C39.9079 10.3886 39.888 10.3568 39.8681 10.3289C39.8482 10.3011 39.8283 10.2732 39.8044 10.2453C39.7845 10.2175 39.7606 10.1896 39.7367 10.1657C39.7129 10.1379 39.689 10.114 39.6651 10.0901C39.6412 10.0662 39.6173 10.0424 39.5895 10.0185C39.5656 9.99459 39.5377 9.97071 39.5099 9.95081C39.482 9.92692 39.4541 9.90702 39.4263 9.88712C39.3984 9.86722 39.3706 9.84732 39.3427 9.82742C39.3148 9.80752 39.283 9.78762 39.2551 9.77169C39.2273 9.75179 39.1954 9.73587 39.1636 9.71995C39.1318 9.70403 39.1039 9.68811 39.072 9.67219C39.0402 9.65627 39.0084 9.64433 38.9765 9.62841C38.9447 9.61647 38.9128 9.60452 38.881 9.59258C38.6024 9.49308 38.3437 9.49308 38.0531 9.50502C37.3605 9.82742 36.875 10.1777 36.6043 10.914C36.5924 10.9538 36.5764 10.9896 36.5645 11.0295C36.5526 11.0693 36.5406 11.1091 36.5327 11.1489C36.5247 11.1887 36.5128 11.2285 36.5048 11.2683C36.4968 11.3081 36.4889 11.3479 36.4849 11.3877C36.4809 11.4275 36.4729 11.4673 36.469 11.5111C36.465 11.5509 36.461 11.5907 36.461 11.6344C36.461 11.6743 36.457 11.718 36.457 11.7578C36.457 11.7976 36.457 11.8414 36.461 11.8812C36.465 11.921 36.465 11.9608 36.469 12.0046C36.4729 12.0444 36.4769 12.0842 36.4849 12.128C36.4929 12.1678 36.4968 12.2076 36.5048 12.2474C36.5128 12.2872 36.5207 12.327 36.5327 12.3668C36.5446 12.4066 36.5526 12.4464 36.5645 12.4862C36.5764 12.526 36.5884 12.5658 36.6043 12.6016C36.6202 12.6414 36.6322 12.6773 36.6481 12.7171C36.664 12.7529 36.6799 12.7927 36.6998 12.8285C36.9585 13.3499 37.3964 13.7042 37.9456 13.8833C38.2044 13.9669 38.479 13.9549 38.7457 13.9271C39.4064 13.6405 39.8601 13.2464 40.1228 12.5539C40.1387 12.5181 40.1507 12.4783 40.1626 12.4424C40.1746 12.4066 40.1865 12.3668 40.1985 12.327C40.2104 12.2872 40.2184 12.2514 40.2263 12.2116C40.2343 12.1718 40.2422 12.132 40.2502 12.0962C40.2582 12.0564 40.2621 12.0166 40.2661 11.9767C40.2701 11.9369 40.2741 11.8971 40.2781 11.8573C40.282 11.8175 40.282 11.7777 40.282 11.7379C40.282 11.6981 40.282 11.6583 40.282 11.6185C40.298 11.5708 40.294 11.531 40.29 11.4912Z" fill="#FDFDFD"/>
</svg>
