<svg width="47" height="34" viewBox="0 0 47 34" fill="none" xmlns="http://www.w3.org/2000/svg">
<path d="M0.0542781 22.2594C0.528489 22.9643 2.22881 25.2756 2.97217 25.4507C3.31822 25.5319 3.76253 25.4892 4.12139 25.4849C4.14275 26.6469 4.31791 27.6723 5.1937 28.5267C5.78326 29.1034 6.47963 29.3939 7.29134 29.4538C7.28707 30.3894 7.07773 32.8288 7.53058 33.5508C8.14578 33.8669 16.6773 33.7687 18.0529 33.7003C18.4545 33.6789 18.8476 33.6191 19.2406 33.5337L19.1082 33.5508L19.3346 33.4781C19.6465 32.6237 19.4414 30.4534 19.4286 29.4708C20.4026 29.3384 21.2357 28.9838 21.8424 28.1721C22.3977 27.4245 22.5345 26.5658 22.5345 25.6558L29.9082 25.6643C29.8911 26.3393 29.7416 27.3433 29.9638 27.9756C30.6388 28.3344 36.4148 28.3643 37.2436 28.1208C37.4059 28.0738 37.4743 27.967 37.5469 27.809C37.7391 27.3903 37.6366 26.6128 37.6238 26.1514L37.6665 25.801C38.6491 25.0876 41.0501 26.7708 41.6225 24.0708C42.7846 24.0751 45.2539 24.3998 46.104 23.5582C46.5697 23.0968 46.6808 22.4474 46.6637 21.8151C46.6466 21.217 46.4672 20.6189 46.4629 20.0293C46.4586 19.5765 46.668 19.1194 46.6936 18.6622C46.7278 18.0171 46.5227 17.355 46.4885 16.7099C46.4202 15.4239 46.8944 14.5866 46.3732 13.2537C46.6765 12.4804 46.8602 11.3098 46.5184 10.5195C46.3134 10.0367 45.9161 9.69067 45.429 9.51124C44.3695 9.1182 42.8444 9.35317 41.7122 9.35317C41.4645 8.77216 41.2679 8.30222 40.6314 8.0587C39.5719 7.65285 35.2015 7.91772 33.7959 7.91345C33.8045 6.70442 34.1377 3.3764 33.326 2.56896C33.1679 2.41089 32.9842 2.28272 32.7962 2.16738C30.7755 2.04775 28.5924 2.03067 26.5717 2.1631C26.0206 2.53905 25.7728 2.84238 25.6489 3.50884C25.3968 4.85457 25.6275 6.58053 25.6019 7.97753H22.5345C22.5088 6.70015 22.5216 1.19332 21.7142 0.424328C21.4878 0.206447 21.2186 0.0953707 20.911 0.0569211C20.1805 -0.0370667 19.403 0.0141994 18.6639 0.0141994H14.6395L8.78233 0.0184715C7.75274 0.0184715 6.69751 -0.0199782 5.66792 0.0441045L5.60383 0.0483767C5.10826 0.287618 4.84339 0.488411 4.65541 1.03098C4.12566 2.57323 4.17693 5.78163 4.12566 7.50332C3.07043 8.40048 0.818998 10.6562 0.0628227 11.767C0.0329175 13.9799 0.0243729 16.1972 0.0329173 18.4102C0.0243729 19.6747 -0.0482541 20.9991 0.0542781 22.2594ZM41.5798 10.5366C42.5197 10.5494 44.1944 10.2845 45.0232 10.6177C45.2453 10.7075 45.412 10.8698 45.5059 11.0919C45.6768 11.5021 45.4803 12.1514 45.3308 12.553C44.2328 12.7496 42.7119 12.5872 41.5755 12.5829L41.5798 10.5366ZM41.5755 13.8432C42.541 13.8689 43.5237 13.7492 44.4806 13.7962C44.7839 13.8091 45.1172 13.8945 45.3137 14.1423C45.6811 14.6037 45.4974 15.3641 45.4248 15.8981C44.7113 16.2057 42.477 16.0178 41.5755 16.0135V13.8432ZM44.9249 17.2866C45.2026 17.3763 45.3863 17.5344 45.5017 17.7993C45.6811 18.2051 45.4974 18.957 45.3436 19.3629C44.5832 19.6021 42.4983 19.4355 41.5755 19.427L41.5713 17.2268C42.5838 17.2396 43.9765 16.9833 44.9249 17.2866ZM44.989 20.7385C45.2325 20.8282 45.3863 20.982 45.4974 21.217C45.6896 21.6314 45.5145 22.3577 45.3692 22.7763C44.7199 23.0626 42.4214 22.8832 41.567 22.8703L41.5584 20.6787C42.5069 20.6958 44.1559 20.4309 44.989 20.7385ZM38.3287 19.3415L38.333 9.13529C38.8456 9.11393 39.3711 9.09684 39.8795 9.1182C40.1016 9.12675 40.3024 9.14811 40.4605 9.31472C40.5673 10.3486 40.5032 11.4209 40.4947 12.4633L40.4776 17.4361L40.469 21.7767C40.4648 22.6225 40.5417 23.5368 40.3879 24.3656C39.8453 24.6262 38.9524 24.5151 38.3543 24.5151C38.2902 22.7977 38.333 21.0632 38.3287 19.3415ZM36.5386 27.0699C34.7144 27.087 32.8902 27.087 31.066 27.0742C31.0489 26.5957 31.0489 26.1172 31.0404 25.6387C32.8731 25.6643 34.7059 25.6088 36.5429 25.6472L36.5386 27.0699ZM31.4163 3.27387L32.6168 3.30805C32.6894 4.42736 32.6339 5.58084 32.6339 6.70442C32.6339 8.29367 32.6681 9.89147 32.5997 11.4764L31.412 11.4807L31.4163 3.27387ZM29.0282 3.27387L30.2671 3.2696C30.3269 6.00379 30.2885 8.74652 30.297 11.4807H29.0153C29.0752 8.7508 29.0196 6.00379 29.0282 3.27387ZM26.7895 3.69681C26.8194 3.49602 26.8408 3.41912 27.0032 3.30377C27.2638 3.28668 27.5927 3.21406 27.8191 3.35931C27.9729 3.75662 27.9558 10.9082 27.832 11.4124L27.6653 11.4978C27.5414 11.4978 27.4133 11.5021 27.2894 11.4935C27.0587 11.485 26.9391 11.4764 26.7895 11.3056C26.64 10.3144 26.6357 4.71786 26.7895 3.69681ZM25.5976 9.15238C25.5805 10.0495 25.3925 11.344 25.9308 12.1173C26.1786 12.4719 26.5802 12.5488 26.9861 12.6043C27.9729 12.7453 31.4548 12.7496 32.4459 12.5915C32.8261 12.5317 33.1935 12.4291 33.5011 12.1942C34.0095 11.438 33.813 10.0068 33.7959 9.13102L37.2222 9.12248L37.2265 21.17L37.2393 24.5023H22.5473L22.5345 9.14384L25.5976 9.15238ZM8.41492 32.5938L8.40638 29.4708L18.3178 29.4922V32.5895C15.0282 32.6963 11.7045 32.5938 8.41492 32.5938ZM5.24924 7.14019C5.28342 5.92689 5.33896 2.37244 5.72345 1.37702C5.78326 1.2275 5.82171 1.23604 5.97124 1.16769L15.511 1.17623C17.3352 1.17623 19.1765 1.12496 21.0007 1.21041C21.5177 4.5128 21.4621 8.02453 21.4322 11.3568L21.4109 17.9616L21.4237 23.0626C21.4322 24.1306 21.492 25.2243 21.3981 26.2881C21.3254 27.1126 20.9708 27.4971 20.3556 28.0012C20.2958 28.0354 20.236 28.0696 20.1762 28.0995C19.8729 28.249 19.5653 28.3045 19.2278 28.3259C17.3096 28.4498 15.3188 28.3131 13.3963 28.3045C11.4994 28.3003 9.57268 28.4199 7.68011 28.3344C7.34261 28.3174 6.99229 28.2746 6.67188 28.1593C6.12931 27.967 5.65937 27.4586 5.43722 26.9332C5.33041 26.6768 5.30051 26.3863 5.28769 26.1129C5.15953 23.571 5.28769 20.9692 5.27915 18.4187C5.25779 14.672 5.14244 10.8912 5.24924 7.14019ZM4.04449 9.14384C4.27091 10.1521 4.12139 14.0568 4.12993 15.3385L4.15557 21.0632C4.15984 22.08 4.23674 23.1566 4.11284 24.1648C3.95477 24.3485 3.92914 24.3442 3.70699 24.3998C3.08325 24.246 2.77993 23.8188 2.38261 23.3616C1.94258 22.8661 1.52391 22.3662 1.12659 21.8407C1.20349 18.6366 1.15223 15.4111 1.11805 12.2027C2.0622 11.1603 3.06189 10.1563 4.04449 9.14384Z" fill="#024897"/>
<path d="M31.0403 25.6385C31.0488 26.117 31.0488 26.5955 31.0659 27.074C32.8901 27.0868 34.7144 27.0868 36.5386 27.0697L36.5428 25.6471C34.7058 25.6043 32.873 25.6641 31.0403 25.6385Z" fill="#FDFDFD"/>
<path d="M45.3307 12.5528C45.4802 12.1513 45.6767 11.5062 45.5058 11.0918C45.4119 10.8696 45.2495 10.7073 45.0231 10.6176C44.1943 10.2843 42.5153 10.5492 41.5797 10.5364L41.5754 12.5785C42.7118 12.587 44.2327 12.7494 45.3307 12.5528Z" fill="#FDFDFD"/>
<path d="M45.4204 15.8981C45.4973 15.364 45.681 14.6036 45.3093 14.1422C45.1128 13.8944 44.7796 13.809 44.4762 13.7962C43.5193 13.7492 42.5367 13.8688 41.5712 13.8431L41.5669 16.0134C42.4726 16.0177 44.7069 16.2014 45.4204 15.8981Z" fill="#FDFDFD"/>
<path d="M45.3434 19.3628C45.5014 18.957 45.6851 18.2051 45.5014 17.7992C45.3818 17.5343 45.1981 17.3763 44.9247 17.2865C43.9763 16.9832 42.5836 17.2395 41.571 17.2267L41.5753 19.4269C42.4938 19.4354 44.5829 19.6021 45.3434 19.3628Z" fill="#FDFDFD"/>
<path d="M45.3693 22.7805C45.5102 22.3619 45.6897 21.6356 45.4974 21.2212C45.3906 20.9862 45.2325 20.8324 44.989 20.7427C44.1517 20.4351 42.5069 20.7 41.5627 20.6829L41.5713 22.8745C42.4214 22.8831 44.7199 23.0625 45.3693 22.7805Z" fill="#FDFDFD"/>
<path d="M27.2847 11.4892C27.4086 11.4935 27.5368 11.4935 27.6607 11.4935L27.8273 11.4081C27.9512 10.9082 27.9683 3.75233 27.8145 3.35502C27.5881 3.20976 27.2591 3.28239 26.9985 3.29948C26.8362 3.41483 26.8148 3.49173 26.7849 3.69252C26.6354 4.71357 26.6396 10.3101 26.7806 11.297C26.9344 11.4721 27.0541 11.4764 27.2847 11.4892Z" fill="#FDFDFD"/>
<path d="M32.6297 6.70439C32.6297 5.58081 32.6852 4.42732 32.6126 3.30801L31.4121 3.27383L31.4036 11.4807L32.5912 11.4764C32.6639 9.88716 32.6297 8.29364 32.6297 6.70439Z" fill="#FDFDFD"/>
<path d="M30.2926 11.4807C30.2841 8.74652 30.3268 6.00378 30.2627 3.26959L29.0238 3.27386C29.0153 6.00806 29.0708 8.75079 29.0067 11.4807H30.2926Z" fill="#FDFDFD"/>
<path d="M8.40198 29.4708L8.41052 32.5938C11.7044 32.5938 15.0281 32.692 18.3134 32.5852V29.4879L8.40198 29.4708Z" fill="#FDFDFD"/>
<path d="M38.3541 24.5152C38.9522 24.5195 39.8451 24.6305 40.3877 24.3657C40.5415 23.5369 40.4689 22.6226 40.4689 21.7767L40.4774 17.4362L40.4945 12.4634C40.4988 11.421 40.5629 10.3487 40.4603 9.31479C40.3023 9.14818 40.1015 9.12682 39.8793 9.11827C39.3666 9.09691 38.8412 9.11827 38.3328 9.13536L38.3285 19.3416C38.3328 21.0633 38.2901 22.7978 38.3541 24.5152Z" fill="#FDFDFD"/>
<path d="M1.12219 21.8364C1.52378 22.3619 1.93818 22.8617 2.37821 23.3573C2.77125 23.8187 3.07885 24.2459 3.70259 24.3954C3.92901 24.3399 3.95037 24.3442 4.10844 24.1605C4.23233 23.1522 4.15544 22.0756 4.15116 21.0589L4.12553 15.3341C4.12126 14.0525 4.26651 10.1477 4.04009 9.1395C3.05749 10.152 2.06207 11.1517 1.10938 12.1941C1.14782 15.4068 1.19909 18.6323 1.12219 21.8364Z" fill="#FDFDFD"/>
<path d="M37.2435 24.5066L37.2307 21.1743L37.2264 9.12677L33.8001 9.13531C33.813 10.0111 34.0138 11.4466 33.5054 12.1985C33.1978 12.4334 32.8304 12.536 32.4501 12.5958C31.459 12.7538 27.9772 12.7453 26.9903 12.6086C26.5844 12.5488 26.1829 12.4762 25.9351 12.1216C25.3968 11.3483 25.5848 10.0581 25.6018 9.15667L22.543 9.1524L22.5558 24.5109L37.2435 24.5066Z" fill="#FDFDFD"/>
<path d="M5.28299 26.1172C5.29581 26.3906 5.32571 26.6811 5.43252 26.9374C5.65467 27.4629 6.12461 27.9713 6.66717 28.1635C6.98759 28.2789 7.33791 28.3216 7.67541 28.3387C9.56798 28.4241 11.4947 28.3045 13.3916 28.3088C15.3183 28.3131 17.3049 28.454 19.2231 28.3301C19.5606 28.3088 19.8639 28.2532 20.1715 28.1037C20.2313 28.0738 20.2911 28.0396 20.3509 28.0055C20.9661 27.5013 21.3207 27.1168 21.3934 26.2923C21.4873 25.2328 21.4275 24.1349 21.419 23.0668L21.4104 17.9616L21.4318 11.3568C21.4617 8.02023 21.5173 4.51277 21.0003 1.21038C19.1804 1.12494 17.3348 1.1762 15.5106 1.1762L5.97081 1.17193C5.82128 1.24029 5.78283 1.22747 5.72302 1.38127C5.33853 2.37668 5.28299 5.92686 5.24881 7.14443C5.14201 10.8954 5.25736 14.6763 5.27017 18.4315C5.28299 20.9735 5.15482 23.5752 5.28299 26.1172ZM6.4792 11.8695C6.65009 11.4081 7.0474 11.1774 7.46607 10.9808C8.99124 10.9424 18.5139 10.8142 19.3299 11.0791C19.7101 11.203 19.9921 11.5661 20.1459 11.925C20.3851 12.4718 20.3509 22.4944 20.1459 22.8874C19.9793 23.2035 19.6759 23.2804 19.3598 23.3701C17.6082 23.383 7.95737 23.5453 7.07303 23.2719C6.94059 23.2292 6.71844 23.148 6.65436 23.0198C6.44929 22.6097 6.38521 22.1099 6.35531 21.657C6.27841 20.4223 6.21432 12.5957 6.4792 11.8695Z" fill="#FDFDFD"/>
<path d="M6.65905 23.0157C6.72313 23.1481 6.94529 23.2293 7.07772 23.2677C7.95779 23.5412 17.6129 23.3788 19.3645 23.366C19.6806 23.2763 19.9882 23.1994 20.1506 22.8832C20.3556 22.4859 20.3855 12.4677 20.1506 11.9208C19.9968 11.562 19.7148 11.1988 19.3346 11.075C18.5186 10.8101 8.99593 10.9382 7.47076 10.9767C7.05209 11.1732 6.65478 11.4039 6.48389 11.8653C6.21475 12.5916 6.2831 20.4182 6.36427 21.6529C6.3899 22.1057 6.45399 22.6098 6.65905 23.0157ZM19.1082 16.4878L19.0996 17.5815L7.40668 17.5601V16.4493C11.3072 16.4323 15.2077 16.4451 19.1082 16.4878ZM7.47931 14.2235C8.70969 14.2022 18.7707 14.1039 19.0783 14.2919C19.1338 14.6123 19.0996 14.9199 19.074 15.2403L7.43659 15.236C7.42377 14.8985 7.45368 14.561 7.47931 14.2235ZM19.074 22.2339L7.43231 22.1783C7.4195 21.8622 7.34687 21.3367 7.53485 21.0889C11.3841 21.012 15.2547 21.0889 19.1082 21.0932C19.1167 21.4777 19.1124 21.8494 19.074 22.2339ZM19.1124 19.9483L7.47076 19.9397L7.43659 18.799L19.121 18.8033L19.1124 19.9483ZM7.47504 12.3011C7.78263 12.002 8.6328 12.1088 9.04292 12.1131L15.6691 12.1045C16.7115 12.1045 17.8607 12.002 18.886 12.1601C19.0783 12.2968 19.0996 12.3694 19.1979 12.5745C19.1808 12.6941 19.1979 12.7368 19.1039 12.8265C18.8048 13.1085 17.9205 13.0017 17.5232 12.9974C16.3184 13.006 7.97915 13.1256 7.54766 12.9248C7.41523 12.865 7.40668 12.7197 7.36396 12.5873C7.38532 12.4549 7.36823 12.4036 7.47504 12.3011Z" fill="#024897"/>
<path d="M7.54344 12.9248C7.97493 13.1256 16.3185 13.006 17.519 12.9974C17.9163 13.0017 18.8006 13.1085 19.0997 12.8265C19.1937 12.7411 19.1766 12.6941 19.1937 12.5745C19.0954 12.3651 19.074 12.2925 18.8818 12.1601C17.8565 12.002 16.7115 12.1045 15.6648 12.1045L9.03871 12.1131C8.6243 12.1045 7.77841 12.002 7.47082 12.3011C7.36828 12.4036 7.3811 12.4549 7.35547 12.5873C7.40673 12.7197 7.41528 12.865 7.54344 12.9248Z" fill="#FDFDFD"/>
<path d="M19.0735 14.2919C18.7659 14.104 8.70488 14.2022 7.4745 14.2236C7.44887 14.5611 7.41896 14.8986 7.43178 15.2361L19.0692 15.2403C19.0991 14.9199 19.129 14.6123 19.0735 14.2919Z" fill="#FDFDFD"/>
<path d="M7.40649 17.56L19.0994 17.5813L19.108 16.4877C15.2075 16.4449 11.307 16.4321 7.40649 16.4492V17.56Z" fill="#FDFDFD"/>
<path d="M7.539 21.0845C7.35103 21.3323 7.41938 21.862 7.43647 22.1739L19.0781 22.2294C19.1166 21.8449 19.1209 21.4732 19.1123 21.0887C15.2545 21.0845 11.3882 21.0076 7.539 21.0845Z" fill="#FDFDFD"/>
<path d="M7.47046 19.9395L19.1121 19.948L19.1207 18.8031L7.43628 18.7988L7.47046 19.9395Z" fill="#FDFDFD"/>
</svg>
