<svg width="47" height="29" viewBox="0 0 47 29" fill="none" xmlns="http://www.w3.org/2000/svg">
<path d="M46.0142 10.809C45.3457 10.1746 42.8931 10.4684 41.9435 10.4684C41.9563 8.19887 42.4034 5.66962 40.6661 3.91106C39.5889 2.82101 37.4726 0.296013 35.8887 0.304529C35.2755 0.308787 34.8071 0.594075 34.3941 1.01988C34.194 1.22852 34.0535 1.46271 33.9427 1.7267C25.1713 1.71393 16.387 1.59897 7.61977 1.73522C7.39409 1.13059 7.07048 0.645169 6.46159 0.368399C6.0145 0.164014 5.59296 0.142727 5.1118 0.168275C4.86484 0.257693 4.61362 0.347112 4.40072 0.504658C3.52782 1.15613 0.772896 3.9579 0.313032 4.87337C0.108648 5.27788 0.0873577 5.83568 0.0660677 6.27851C-0.0318664 8.14777 -0.0446404 23.3872 0.193808 24.0514C0.59406 25.1585 3.71518 28.3392 4.80523 28.8374C5.23528 29.0333 5.76328 29.012 6.20185 28.8459C6.9172 28.5734 7.35577 27.9773 7.70493 27.3258C16.4253 27.279 25.1457 27.279 33.8661 27.3258C34.1684 27.9773 34.5133 28.5819 35.2287 28.8374C35.8205 29.0503 36.489 28.9268 37.0341 28.6415C37.8729 28.203 38.5755 27.3769 39.2482 26.7127C40.6363 25.3927 41.9265 24.3154 41.9733 22.246C42.0031 20.8792 41.9691 19.5039 41.9606 18.1371C42.9144 18.1498 45.3925 18.4266 46.061 17.7964C46.9382 16.9704 46.6699 13.845 46.6444 12.6527C46.6231 12.0268 46.4996 11.2646 46.0142 10.809ZM3.48099 5.20549L3.47247 9.57846L3.48099 26.2741C3.11054 25.8824 2.73584 25.4906 2.35687 25.1074C1.91404 24.6475 1.32644 24.1408 1.15612 23.5064C0.926184 22.6505 1.08799 20.2788 1.08799 19.2569L1.07096 8.59487C1.07096 5.10756 0.99857 5.48652 3.43415 3.04668C3.57466 3.68964 3.48099 4.53273 3.48099 5.20549ZM6.50843 26.9383C6.44456 27.3471 6.11669 27.5302 5.8016 27.7388C5.6696 27.7559 5.53334 27.7559 5.40135 27.7474C5.14161 27.7261 4.82652 27.5047 4.68174 27.2918C4.554 27.1044 4.56678 26.7467 4.56252 26.5253C4.46033 20.7302 4.55826 14.918 4.54975 9.12286C4.54975 7.87526 4.38794 2.93172 4.60084 2.02902C4.67749 1.70115 5.00961 1.52658 5.27361 1.35626C5.36728 1.35626 5.46096 1.36051 5.55463 1.36477C5.86973 1.3818 6.13372 1.45845 6.34237 1.71393C6.55527 1.97367 6.54675 2.42927 6.55952 2.75288C6.62765 4.6775 6.56804 6.61915 6.56378 8.54377L6.55527 18.5118L6.56378 24.1451C6.55952 25.035 6.64894 26.0527 6.50843 26.9383ZM7.65383 2.90191L33.9087 2.8934V8.7439L7.65383 8.76519V2.90191ZM33.9002 9.88504L33.8959 14.0579L7.64957 14.0536L7.64106 9.88504H33.9002ZM33.8874 15.182L33.8789 19.4868L7.64531 19.4357V15.1777C16.3913 15.0755 25.1457 15.1735 33.8874 15.182ZM33.8576 26.1676L7.65809 26.1932L7.64531 20.5982L33.8831 20.6024C33.8874 22.4462 33.9726 24.3282 33.8576 26.1676ZM36.8935 26.9043C36.8424 27.3556 36.5955 27.5047 36.2634 27.7729C36.1739 27.7687 36.0845 27.7601 35.9951 27.7559C35.9696 27.7559 35.944 27.7516 35.9185 27.7516C35.663 27.7303 35.3905 27.6367 35.2287 27.428C35.02 27.1598 35.0328 26.768 35.02 26.4444C34.9476 24.6816 35.02 22.8847 35.0285 21.1177L35.0371 11.6649V5.4482C35.0371 4.45183 34.9519 3.37881 35.0583 2.39095C35.1052 1.95238 35.3692 1.78206 35.6843 1.52232C35.7567 1.52232 35.8248 1.52232 35.8972 1.52658C36.1825 1.53935 36.4294 1.59471 36.621 1.82464C36.8297 2.08012 36.9021 2.52721 36.9191 2.85082C36.9872 4.35389 36.9106 5.9038 36.9148 7.4154L36.9191 17.4898L36.9319 23.4723C36.9319 24.5964 37.017 25.7844 36.8935 26.9043ZM40.7854 11.2178L40.7811 21.6329C40.7768 23.0338 40.598 23.7491 39.5761 24.7582L38.0347 26.2571L38.0304 3.02114C38.584 3.4001 39.1375 3.97919 39.6144 4.45608C40.0487 4.8904 40.5512 5.46523 40.6874 6.08264C40.9599 7.31746 40.7854 9.83394 40.7854 11.2178ZM45.4095 16.8809C44.3749 17.162 43.0293 17.0087 41.952 17.0002C41.9393 15.2033 41.9393 13.4107 41.9606 11.6138C42.6929 11.6308 44.2812 11.4605 44.8858 11.6095C45.0987 11.6606 45.269 11.7841 45.3755 11.9757C45.6906 12.5591 45.5969 16.1528 45.4095 16.8809Z" fill="black" fill-opacity="0.6"/>
<path d="M44.8855 11.6094C44.2809 11.4604 42.6927 11.635 41.9603 11.6137C41.9432 13.4105 41.939 15.2032 41.9518 17C43.0248 17.0086 44.3746 17.1618 45.4093 16.8808C45.5966 16.1527 45.6903 12.5632 45.3709 11.9756C45.2688 11.784 45.0942 11.6605 44.8855 11.6094Z" fill="#FDFDFD"/>
<path d="M36.9142 17.4855L36.91 7.41105C36.91 5.90372 36.9824 4.34955 36.9142 2.84648C36.9015 2.52287 36.8291 2.07578 36.6162 1.8203C36.4288 1.59037 36.1776 1.53501 35.8923 1.52224C35.8199 1.51798 35.7518 1.51797 35.6794 1.51797C35.3601 1.77346 35.1003 1.94803 35.0535 2.38661C34.9428 3.37447 35.0322 4.44748 35.0322 5.44386V11.6605L35.0237 21.1133C35.0194 22.8804 34.947 24.6773 35.0152 26.4401C35.0279 26.7637 35.0152 27.1554 35.2238 27.4237C35.3856 27.6323 35.6581 27.726 35.9136 27.7473C35.9391 27.7515 35.9647 27.7515 35.9902 27.7515C36.0797 27.7601 36.1691 27.7643 36.2585 27.7686C36.5949 27.5046 36.8376 27.3555 36.8887 26.8999C37.0122 25.7843 36.9313 24.5921 36.927 23.4637L36.9142 17.4855Z" fill="#FDFDFD"/>
<path d="M1.07477 8.59046L1.0918 19.2525C1.0918 20.2744 0.929996 22.6461 1.15993 23.502C1.33025 24.1407 1.91785 24.6431 2.36068 25.103C2.73965 25.4905 3.11009 25.878 3.4848 26.2697L3.47628 9.57406L3.4848 5.20109C3.4848 4.53258 3.57847 3.6895 3.44222 3.03802C1.00238 5.48212 1.07477 5.10316 1.07477 8.59046Z" fill="#FDFDFD"/>
<path d="M6.54643 18.5031L6.55495 8.53511C6.55921 6.61049 6.61882 4.66884 6.55069 2.74422C6.53792 2.42061 6.54643 1.96926 6.33353 1.70527C6.12489 1.44979 5.86089 1.37315 5.5458 1.35611C5.45212 1.35186 5.35845 1.3476 5.26477 1.3476C5.00078 1.52217 4.66865 1.6925 4.59201 2.02036C4.38337 2.92306 4.54091 7.8666 4.54091 9.11419C4.54943 14.9093 4.45149 20.7215 4.55368 26.5167C4.55794 26.7381 4.54517 27.0957 4.67291 27.2831C4.81768 27.4917 5.13277 27.7174 5.39251 27.7387C5.52451 27.7472 5.66077 27.7472 5.79276 27.7302C6.10786 27.5215 6.43572 27.3384 6.49959 26.9297C6.64011 26.0483 6.55069 25.0264 6.55069 24.1322L6.54643 18.5031Z" fill="#FDFDFD"/>
<path d="M39.6099 4.45173C39.1372 3.97483 38.5794 3.39575 38.0259 3.01678L38.0301 26.2527L39.5715 24.7539C40.5935 23.7405 40.768 23.0251 40.7766 21.6285L40.7808 11.2134C40.7808 9.83385 40.9554 7.31311 40.6786 6.07829C40.5466 5.46088 40.0442 4.8903 39.6099 4.45173Z" fill="#FDFDFD"/>
<path d="M33.8957 14.0579L33.9 9.88501H7.64087L7.64938 14.0536L33.8957 14.0579Z" fill="#FDFDFD"/>
<path d="M7.64893 19.4355L33.8825 19.4866L33.891 15.1817C25.1493 15.1732 16.3906 15.071 7.65318 15.1775L7.64893 19.4355Z" fill="#FDFDFD"/>
<path d="M7.64478 20.6024L7.65755 26.1974L33.857 26.1719C33.972 24.3324 33.8911 22.4504 33.8869 20.6066L7.64478 20.6024Z" fill="#FDFDFD"/>
<path d="M33.9042 2.89331L7.65356 2.90182V8.76936L33.9042 8.74807V2.89331Z" fill="#FDFDFD"/>
</svg>
