<svg width="17" height="17" viewBox="0 0 17 17" fill="none" xmlns="http://www.w3.org/2000/svg">
<path d="M14.3642 6.64194C14.2627 6.22309 13.8787 5.52666 13.4808 4.9536C13.3057 4.70189 12.9176 4.76358 12.8261 5.05707C12.6829 5.51074 12.455 6.03207 12.0591 6.50066C11.9864 6.58622 11.8452 6.54245 11.8382 6.43002C11.7626 5.26898 11.2124 2.26739 7.33231 1.84556C7.06469 1.8167 6.85576 2.07637 6.94331 2.33106C7.23581 3.18667 7.47061 4.83123 6.13048 5.83906C6.07577 5.87985 6.00015 5.86592 5.95737 5.81319C5.51067 5.24411 4.95353 4.8949 4.1984 4.75363C3.93476 4.70488 3.71289 4.94465 3.77358 5.2063C3.89098 5.71071 3.93973 6.5713 3.4592 7.74328C2.65234 9.7082 1.72211 14.4538 9.12511 14.4538C16.5281 14.4538 14.5065 7.22992 14.3642 6.64194ZM5.72158 11.9447C5.66513 11.9977 5.59878 12.0389 5.52634 12.0662C5.4539 12.0935 5.3768 12.1062 5.29944 12.1036C5.22209 12.101 5.146 12.0832 5.07555 12.0511C5.00509 12.0191 4.94165 11.9735 4.88886 11.9169C3.90292 10.8623 4.33172 8.89537 4.38345 8.6745C4.45807 8.35813 4.77544 8.16114 5.09182 8.23675C5.16702 8.25442 5.23801 8.28675 5.30071 8.33187C5.36342 8.37699 5.41662 8.43403 5.45728 8.49972C5.49793 8.56541 5.52524 8.63847 5.53764 8.71473C5.55005 8.79098 5.5473 8.86893 5.52957 8.94412C5.43605 9.34605 5.27587 10.6056 5.74845 11.112C5.9713 11.3498 5.95936 11.7229 5.72158 11.9447Z" fill="#FC7032"/>
<path d="M14.2389 6.27979C14.0687 5.88084 13.7782 5.3824 13.4808 4.9536C13.3057 4.70189 12.9176 4.76358 12.8261 5.05707C12.6828 5.51074 12.455 6.03207 12.059 6.50066C11.9864 6.58622 11.8451 6.54245 11.8382 6.43002C11.7626 5.26898 11.2124 2.26739 7.33231 1.84556C7.06469 1.8167 6.85576 2.07637 6.94331 2.33106C7.23581 3.18667 7.4706 4.83123 6.13048 5.83906C6.07576 5.87985 6.00015 5.86592 5.95737 5.81319C5.51066 5.24411 4.95352 4.8949 4.1984 4.75363C3.93475 4.70488 3.71289 4.94465 3.77358 5.2063C3.89098 5.71071 3.93973 6.5713 3.45919 7.74328C2.75481 9.45848 1.9579 13.2908 6.68762 14.2389C10.8035 13.832 14.0449 10.4544 14.2389 6.27979ZM5.72158 11.9447C5.66512 11.9977 5.59878 12.0389 5.52634 12.0662C5.4539 12.0935 5.37679 12.1062 5.29944 12.1036C5.22208 12.101 5.146 12.0832 5.07555 12.0511C5.00509 12.0191 4.94165 11.9735 4.88886 11.9169C3.90292 10.8623 4.33172 8.89537 4.38345 8.6745C4.45807 8.35813 4.77544 8.16114 5.09181 8.23675C5.16702 8.25442 5.238 8.28675 5.30071 8.33187C5.36342 8.37699 5.41662 8.43403 5.45727 8.49972C5.49793 8.56541 5.52524 8.63847 5.53764 8.71472C5.55005 8.79098 5.5473 8.86893 5.52957 8.94412C5.43605 9.34605 5.27587 10.6056 5.74844 11.112C5.9713 11.3498 5.95936 11.7229 5.72158 11.9447Z" fill="#FF7C33"/>
<path d="M11.6271 5.21526C11.242 3.87116 10.1934 2.15696 7.33111 1.84556C7.06348 1.8167 6.85455 2.07637 6.9421 2.33106C7.2346 3.18667 7.4694 4.83123 6.12928 5.83906C6.07456 5.87985 5.99894 5.86592 5.95616 5.81319C5.50946 5.24411 4.95232 4.8949 4.19719 4.75363C3.93355 4.70488 3.71169 4.94465 3.77237 5.2063C3.88977 5.71071 3.93852 6.5713 3.45799 7.74328C3.1058 8.60088 2.72973 9.98875 3.03516 11.2811C3.20827 11.2921 3.38138 11.299 3.55748 11.299C3.86689 11.299 4.17133 11.2811 4.47178 11.2483C4.04895 10.1887 4.34046 8.85557 4.38224 8.6755C4.45686 8.35912 4.77423 8.16213 5.09061 8.23774C5.16581 8.25542 5.2368 8.28774 5.29951 8.33286C5.36221 8.37799 5.41541 8.43502 5.45607 8.50071C5.49672 8.56641 5.52403 8.63947 5.53644 8.71572C5.54884 8.79197 5.5461 8.86992 5.52836 8.94511C5.43981 9.32616 5.29257 10.4772 5.67958 11.0264C8.54786 10.2793 10.8152 8.05468 11.6271 5.21526Z" fill="#FF8D4D"/>
<path d="M7.33111 1.84556C7.06348 1.8167 6.85455 2.07637 6.9421 2.33106C7.2346 3.18667 7.4694 4.83123 6.12927 5.83906C6.07456 5.87985 5.99894 5.86592 5.95616 5.81319C5.50946 5.24411 4.95232 4.8949 4.19719 4.75363C3.93354 4.70488 3.71168 4.94465 3.77237 5.2063C3.88977 5.71071 3.93852 6.5713 3.45799 7.74328C3.40809 7.86623 3.36099 7.99029 3.31671 8.11537C6.22777 7.45178 8.56378 5.27794 9.45222 2.4594C8.88911 2.15994 8.19268 1.93908 7.33111 1.84556Z" fill="#FFA56A"/>
</svg>
