<svg width="47" height="24" viewBox="0 0 47 24" fill="none" xmlns="http://www.w3.org/2000/svg">
<path d="M46.6908 10.5206C46.6868 10.429 46.6788 10.3335 46.6709 10.242C46.6629 10.1504 46.6549 10.0549 46.647 9.96335C46.639 9.8718 46.6271 9.77628 46.6151 9.68473C46.6032 9.59318 46.5913 9.49766 46.5753 9.40611C46.5594 9.31457 46.5475 9.22302 46.5316 9.1275C46.5156 9.03595 46.4997 8.94441 46.4798 8.85286C46.4599 8.76131 46.44 8.66977 46.4201 8.57822C46.4002 8.48668 46.3763 8.39513 46.3564 8.30359C46.3325 8.21204 46.3087 8.12049 46.2848 8.03293C46.2609 7.94138 46.233 7.85382 46.2052 7.76227C46.1773 7.67073 46.1494 7.58316 46.1216 7.4956C45.3056 5.06765 43.6936 2.95414 41.3732 1.79589C41.198 1.70833 41.0229 1.62474 40.8398 1.5531C40.6607 1.47747 40.4736 1.41379 40.2905 1.35408C40.1035 1.29438 39.9164 1.24662 39.7253 1.20283C39.5343 1.15905 39.3432 1.12721 39.1482 1.09935C37.5561 0.888396 35.8088 1.03964 34.1968 1.04761C32.9589 1.05159 31.6892 0.96402 30.4593 1.03566C30.32 1.04362 30.1767 1.05955 30.0374 1.08343C29.8981 1.11129 29.7628 1.14711 29.6275 1.19089C28.4971 1.57698 27.6533 2.49641 26.7458 3.22082L8.71527 3.23276C8.35705 2.05461 7.95504 0.832672 6.98386 0.0127424C6.41867 -0.00715885 5.84949 -0.00317873 5.2843 0.0207027C4.34894 0.948099 3.71608 2.09839 3.19467 3.29644C2.35086 3.53526 1.89711 3.88154 1.46725 4.64972C-0.339783 7.87372 -0.32386 12.7734 0.683141 16.2402C1.10107 17.681 1.60257 18.9985 2.9678 19.7746C3.90713 20.308 4.52009 23.5161 6.34702 23.118C7.29034 22.9151 8.02668 21.6095 8.48043 20.8334C8.70333 20.4553 8.91428 20.0732 9.11727 19.6831L27.3786 19.703C28.1229 20.2284 28.8672 20.7498 29.6155 21.2712L34.6346 21.2752C36.3939 21.2792 38.2288 21.4185 39.9442 20.9767C42.4478 20.1368 44.3384 18.6084 45.5206 16.2362C45.5604 16.1526 45.6002 16.069 45.64 15.9815C45.6798 15.8979 45.7156 15.8103 45.7554 15.7267C45.7912 15.6392 45.827 15.5556 45.8629 15.468C45.8987 15.3805 45.9305 15.2929 45.9664 15.2053C45.9982 15.1178 46.03 15.0302 46.0619 14.9426C46.0937 14.8551 46.1216 14.7635 46.1495 14.676C46.1773 14.5884 46.2052 14.4968 46.233 14.4093C46.2609 14.3177 46.2848 14.2302 46.3087 14.1386C46.3325 14.0471 46.3564 13.9555 46.3763 13.868C46.3962 13.7804 46.4201 13.6849 46.44 13.5933C46.4599 13.5018 46.4798 13.4102 46.4957 13.3187C46.5117 13.2271 46.5316 13.1356 46.5435 13.0441C46.5594 12.9525 46.5714 12.861 46.5873 12.7654C46.5992 12.6739 46.6112 12.5784 46.6231 12.4868C46.635 12.3953 46.643 12.2997 46.651 12.2082C46.6589 12.1167 46.6669 12.0211 46.6748 11.9296C46.6828 11.838 46.6868 11.7425 46.6908 11.651C46.6947 11.5594 46.6987 11.4639 46.6987 11.3684C46.6987 11.2728 46.7027 11.1813 46.7027 11.0858C46.7027 10.9902 46.7027 10.8987 46.6987 10.8032C46.6987 10.7077 46.6947 10.6161 46.6908 10.5206ZM13.2965 4.3114L25.9298 4.32334L25.3686 5.30248L6.21966 5.2587C6.43061 4.88456 6.65748 4.60196 6.96396 4.30344C9.05359 4.39897 11.195 4.3114 13.2965 4.3114ZM24.2183 8.59414C24.1745 8.96431 24.1307 9.33845 24.0949 9.71259L4.95792 9.70463L5.12907 8.56628L24.2183 8.59414ZM5.344 7.48366C5.43555 7.11349 5.55496 6.75129 5.67038 6.38909H24.895L24.477 7.49162L5.344 7.48366ZM24.0591 10.831V11.9455L4.8823 11.9375V10.8151L24.0591 10.831ZM24.1666 13.0878L24.29 14.266L12.0985 14.262C9.77003 14.262 7.39781 14.3536 5.07335 14.2023L4.92608 13.0839C11.3382 13.1157 17.7504 13.1197 24.1666 13.0878ZM5.39176 15.4362L5.53904 15.3446L24.6959 15.3486C24.8273 15.6949 25.0621 16.1447 25.0462 16.5108H5.65048C5.54301 16.1725 5.37982 15.7944 5.39176 15.4362ZM1.84537 14.9068C1.98468 15.683 2.3628 16.674 2.35086 17.4422L2.26727 17.3507C2.06826 16.881 1.88517 16.3954 1.72596 15.9058C0.655277 12.5585 0.85429 8.23194 2.48221 5.08755C2.57375 5.5612 2.00856 7.01399 1.89313 7.58714C1.69014 8.6021 1.60655 9.69667 1.57471 10.7276C1.53889 12.1047 1.59859 13.5535 1.84537 14.9068ZM7.29432 20.6463C7.04357 21.0841 6.67739 21.7847 6.14005 21.9001C5.98084 21.9319 5.80969 21.8961 5.68232 21.8006C4.14595 20.6304 3.01556 15.5596 2.79665 13.6849C2.31106 9.47378 3.14691 4.42683 5.82959 1.03566C5.89726 1.03964 5.96492 1.04761 6.03258 1.05955L6.11219 1.07149C6.17985 1.07945 6.2515 1.08741 6.31518 1.11129C6.9361 1.33418 7.37393 2.67552 7.62866 3.24072C7.53314 3.24072 7.43363 3.23674 7.3381 3.23674C6.6734 3.24072 6.23558 3.46759 5.77785 3.94124C4.04247 5.74429 3.75191 9.47776 3.81161 11.8619C3.86335 13.9396 4.31312 17.896 5.92512 19.3886C6.44255 19.8702 7.20676 19.711 7.85952 19.6831L7.29432 20.6463ZM19.3266 18.5169L6.63758 18.501C6.41469 18.2184 6.24752 17.9636 6.10025 17.6333C8.38491 17.5775 10.6815 17.6134 12.9701 17.6134L25.7786 17.6014C25.9895 17.888 26.1527 18.2064 26.3239 18.5169C23.9914 18.5607 21.655 18.5169 19.3266 18.5169ZM32.2027 20.1488C31.4504 20.1528 30.6942 20.1488 29.9419 20.1408C28.5528 19.309 27.3707 18.2502 26.5507 16.8372C25.0024 14.1625 24.7158 10.9106 25.5278 7.95332C26.2323 5.38607 27.6851 3.50341 30.0096 2.18197L32.6126 2.17401C31.6375 2.89842 30.8375 3.63476 30.1409 4.64574C28.3816 7.20902 27.8841 10.4688 28.4613 13.5018C28.4772 13.5854 28.4931 13.665 28.509 13.7486C28.5249 13.8321 28.5448 13.9117 28.5647 13.9953C28.5846 14.0789 28.6045 14.1585 28.6244 14.2381C28.6443 14.3177 28.6682 14.4013 28.6921 14.4809C28.716 14.5605 28.7399 14.6401 28.7638 14.7197C28.7876 14.7993 28.8155 14.8789 28.8434 14.9585C28.8712 15.0382 28.8991 15.1178 28.9269 15.1974C28.9548 15.277 28.9866 15.3526 29.0185 15.4322C29.0503 15.5118 29.0822 15.5874 29.114 15.6631C29.1459 15.7387 29.1817 15.8183 29.2175 15.8939C29.2533 15.9695 29.2891 16.0452 29.325 16.1208C29.3608 16.1964 29.4006 16.272 29.4364 16.3437C29.4762 16.4193 29.516 16.4909 29.5558 16.5666C29.5956 16.6422 29.6394 16.7138 29.6792 16.7855C29.723 16.8571 29.7668 16.9288 29.8106 17.0004C29.8543 17.0721 29.8981 17.1437 29.9459 17.2114C29.9936 17.283 30.0374 17.3507 30.0852 17.4183C30.133 17.486 30.1807 17.5576 30.2325 17.6253C30.2802 17.693 30.332 17.7606 30.3837 17.8283C30.4355 17.896 30.4872 17.9597 30.5389 18.0273C30.5907 18.091 30.6464 18.1587 30.6981 18.2223C30.7539 18.286 30.8056 18.3497 30.8613 18.4134C30.9171 18.4771 30.9728 18.5368 31.0325 18.6005C31.0882 18.6602 31.1479 18.7239 31.2076 18.7836C31.2673 18.8433 31.327 18.903 31.3867 18.9627C31.4464 19.0224 31.5061 19.0781 31.5698 19.1338C31.6335 19.1895 31.6932 19.2453 31.7569 19.301C31.8206 19.3567 31.8843 19.4124 31.9479 19.4642C32.0116 19.5159 32.0793 19.5716 32.143 19.6234C32.2106 19.6751 32.2743 19.7269 32.342 19.7786C32.4097 19.8304 32.4773 19.8781 32.545 19.9259C32.6126 19.9737 32.6803 20.0214 32.752 20.0692C32.6485 20.1727 32.3619 20.1408 32.2027 20.1488ZM45.6201 11.4201C45.6161 11.5037 45.6121 11.5913 45.6081 11.6749C45.6042 11.7584 45.5962 11.846 45.5922 11.9296C45.5843 12.0132 45.5763 12.0968 45.5683 12.1843C45.5604 12.2679 45.5484 12.3515 45.5405 12.4391C45.5285 12.5226 45.5166 12.6062 45.5046 12.6898C45.4927 12.7734 45.4768 12.857 45.4609 12.9406C45.445 13.0242 45.429 13.1077 45.4131 13.1913C45.3972 13.2749 45.3773 13.3585 45.3574 13.4381C45.3375 13.5217 45.3176 13.6013 45.2977 13.6849C45.2778 13.7685 45.2539 13.8481 45.23 13.9316C45.2061 14.0152 45.1822 14.0948 45.1584 14.1744C45.1345 14.254 45.1066 14.3376 45.0788 14.4172C45.0509 14.4968 45.023 14.5764 44.9952 14.6561C44.9673 14.7357 44.9355 14.8153 44.9036 14.8949C44.8718 14.9745 44.8399 15.0541 44.8081 15.1297C44.7763 15.2093 44.7404 15.2849 44.7046 15.3645C44.6688 15.4402 44.633 15.5198 44.5972 15.5954C44.5613 15.671 44.5215 15.7466 44.4857 15.8223C44.4459 15.8979 44.4061 15.9735 44.3663 16.0491C43.228 18.1388 41.4806 19.3726 39.2318 20.0294C38.0815 20.2204 36.0237 20.2085 34.9132 19.898C34.2804 19.7189 33.6913 19.3965 33.154 19.0184C31.1758 17.6253 29.8703 15.3884 29.4603 13.0202C28.9946 10.3534 29.4683 7.43191 31.0484 5.20298C32.1669 3.6268 33.7351 2.51233 35.6575 2.18595C37.373 1.90734 39.6457 2.14217 41.1662 2.96608C43.0926 4.00493 44.5733 6.06669 45.1862 8.15234C45.2101 8.23194 45.234 8.31553 45.2539 8.39911C45.2778 8.4827 45.2977 8.5623 45.3176 8.64589C45.3375 8.72947 45.3574 8.80908 45.3733 8.89266C45.3932 8.97625 45.4091 9.05983 45.425 9.14342C45.441 9.227 45.4569 9.31059 45.4688 9.39417C45.4847 9.47776 45.4967 9.56134 45.5086 9.64493C45.5206 9.72851 45.5325 9.8121 45.5405 9.89568C45.5524 9.97927 45.5604 10.0629 45.5683 10.1504C45.5763 10.234 45.5843 10.3176 45.5882 10.4052C45.5922 10.4887 45.6002 10.5763 45.6042 10.6599C45.6081 10.7435 45.6121 10.831 45.6121 10.9146C45.6121 10.9982 45.6161 11.0858 45.6121 11.1694C45.628 11.249 45.6241 11.3365 45.6201 11.4201Z" fill="#ED1B24"/>
<path d="M43.104 10.616C43.0801 10.5165 43.0482 10.4846 43.1 10.3851C43.3826 9.86771 44.7239 9.91945 44.3736 8.49055C44.2821 8.12038 44.0592 7.67858 43.7129 7.49548C43.4502 7.35618 43.092 7.46762 42.8333 7.56713C42.5746 7.66663 42.3238 7.794 42.0771 7.91341L41.5835 7.39598C41.7865 6.92233 42.1527 6.28549 41.9457 5.77204C41.7945 5.3979 41.4402 5.0755 41.0661 4.93619C40.7755 4.82872 40.4571 4.8128 40.1745 4.94813C39.5217 5.26257 39.5854 5.78398 39.2471 6.09046C39.2352 6.09842 39.0123 6.0825 38.9884 6.07454C38.9247 6.05862 38.861 6.01882 38.8053 5.98697C38.5744 5.4377 38.9327 4.11228 38.264 3.85356C38.1167 3.79784 37.8341 3.81376 37.6829 3.85754C37.1933 3.92123 36.7992 4.04064 36.3614 4.25955L36.5565 6.38898L35.7246 6.90243C35.438 6.56809 35.0002 5.92329 34.5345 5.89543C34.1205 5.87155 33.6947 6.24171 33.416 6.51236C33.014 6.90243 32.4289 7.55917 32.4488 8.16417C32.4568 8.41492 32.5921 8.59403 32.7792 8.74926C33.0777 9.00002 33.4519 9.20301 33.7862 9.40998C33.6907 9.82393 33.5912 10.2379 33.5036 10.6518C32.9265 10.6001 32.3255 10.4687 31.8319 10.8588C31.5612 11.0737 31.4379 11.4081 31.418 11.7464C31.3901 12.2001 31.5334 12.7812 31.8319 13.1315C31.9951 13.3226 32.1583 13.3743 32.4051 13.3862C32.8509 13.4022 33.3444 13.2947 33.7862 13.231L34.1882 14.1504C33.9375 14.4728 33.2807 15.1575 33.3484 15.5833C33.428 16.0769 33.9136 16.5784 34.3196 16.8371C34.5106 16.9565 34.7653 17.0839 35.0002 17.0361C35.3982 16.9565 35.7883 16.3396 36.035 16.0291L36.7754 16.3197C36.7276 16.8172 36.5326 17.6929 36.859 18.0949C37.0898 18.3814 37.4799 18.4969 37.8381 18.5208C38.1923 18.5446 38.8292 18.5088 39.1118 18.278C39.1993 18.2023 39.2789 18.1148 39.3506 18.0272C39.4262 17.5177 39.3824 16.9923 39.3625 16.4789C39.7566 16.3475 40.1307 16.2122 40.5009 16.0212C40.7516 16.3197 41.2054 17.0083 41.6034 17.068C41.9019 17.1117 42.2164 16.9366 42.4353 16.7535C42.8015 16.4431 43.1995 15.9097 43.2154 15.4122C43.2313 14.9744 42.7059 14.5047 42.4392 14.1783C42.5547 13.8679 42.6701 13.5654 42.8094 13.2668C43.2791 13.3862 43.9159 13.641 44.3657 13.3624C44.5687 13.235 44.6523 13.032 44.6961 12.8051C44.7956 12.2996 44.7358 11.7026 44.7279 11.1891C44.1985 11.014 43.5736 10.9026 43.104 10.616ZM32.6797 12.3195C32.4966 12.0887 32.5125 11.9414 32.4847 11.6548C32.7712 11.6349 33.0538 11.5991 33.3325 11.6668C33.5394 11.8698 33.5514 12.029 33.623 12.3036C33.3126 12.3434 32.9742 12.427 32.6797 12.3195ZM34.2599 8.55025C34.0091 8.36318 33.7743 8.14426 33.5354 7.93729L34.3594 6.99795C34.5743 7.18901 34.8091 7.36414 35.036 7.54325C34.7733 7.87759 34.5146 8.21193 34.2599 8.55025ZM38.3356 17.4978C38.1605 17.4859 38.0291 17.462 37.866 17.3983C37.7028 17.1555 37.7824 16.8053 37.8023 16.5267C37.9575 16.5545 38.0809 16.5903 38.2282 16.6461C38.3874 16.9247 38.3356 17.1794 38.3356 17.4978ZM38.8968 15.5435C38.1008 15.5794 37.46 15.5276 36.7395 15.1495C35.7644 14.64 35.0519 13.7166 34.7335 12.6738C34.7136 12.6021 34.6897 12.5345 34.6738 12.4628C34.6539 12.3912 34.638 12.3195 34.626 12.2479C34.6141 12.1762 34.5982 12.1046 34.5862 12.029C34.5743 11.9573 34.5663 11.8817 34.5584 11.8101C34.5504 11.7384 34.5464 11.6628 34.5425 11.5912C34.5385 11.5195 34.5385 11.4439 34.5345 11.3722C34.5345 11.3006 34.5345 11.225 34.5385 11.1533C34.5424 11.0817 34.5464 11.0061 34.5544 10.9344C34.5624 10.8628 34.5703 10.7871 34.5823 10.7155C34.5942 10.6439 34.6061 10.5722 34.6181 10.4966C34.634 10.4249 34.6499 10.3533 34.6658 10.2817C34.6818 10.21 34.7017 10.1384 34.7255 10.0707C34.7454 9.99906 34.7693 9.93139 34.7932 9.85975C34.8171 9.7881 34.845 9.72044 34.8728 9.65278C34.9007 9.58511 34.9325 9.51745 34.9644 9.44978C34.9962 9.38212 35.028 9.31844 35.0639 9.25475C35.6728 8.12436 36.6321 7.47558 37.8421 7.12532C38.6023 7.08154 39.2869 7.1691 39.9715 7.53131C40.9069 8.02088 41.5556 8.94031 41.8502 9.93935C42.1925 11.1095 42.0969 12.4429 41.5039 13.5176C40.9148 14.5883 40.063 15.1973 38.8968 15.5435ZM41.8542 15.854C41.8263 15.858 41.7945 15.8659 41.7666 15.8659C41.6074 15.862 41.5158 15.7704 41.4323 15.651C41.4482 15.3366 41.5158 15.2649 41.691 15.0181C41.8581 15.1057 41.9656 15.1853 42.093 15.3286C42.081 15.5754 41.9895 15.6629 41.8542 15.854Z" fill="#ED1B24"/>
<path d="M41.301 10.9306C41.293 10.8709 41.2851 10.8152 41.2771 10.7555C41.2691 10.6958 41.2572 10.6401 41.2453 10.5804C41.2333 10.5247 41.2214 10.465 41.2055 10.4092C41.0025 9.61716 40.5368 8.86888 39.8243 8.44697C39.2392 8.09671 38.6183 8.02507 37.9456 8.07283C37.0222 8.3395 36.3575 8.71365 35.8719 9.57338C35.8441 9.62512 35.8122 9.67687 35.7884 9.73259C35.7605 9.78433 35.7366 9.84006 35.7127 9.89578C35.6888 9.9515 35.665 10.0072 35.6451 10.0629C35.6252 10.1187 35.6053 10.1744 35.5854 10.2341C35.5655 10.2898 35.5495 10.3495 35.5336 10.4053C35.5177 10.465 35.5018 10.5207 35.4898 10.5804C35.4779 10.6401 35.466 10.6998 35.454 10.7555C35.4421 10.8152 35.4341 10.8749 35.4301 10.9346C35.4222 10.9943 35.4182 11.054 35.4142 11.1137C35.4102 11.1734 35.4062 11.2331 35.4062 11.2928C35.4062 11.3525 35.4062 11.4123 35.4062 11.472C35.4062 11.5317 35.4102 11.5914 35.4182 11.6511C35.4222 11.7108 35.4301 11.7705 35.4381 11.8302C35.4461 11.8899 35.454 11.9496 35.466 12.0093C35.4779 12.069 35.4898 12.1287 35.5018 12.1844C35.5137 12.2441 35.5296 12.2998 35.5456 12.3595C35.7764 13.1476 36.2938 13.8601 37.0222 14.2541C37.6113 14.5726 38.1566 14.6362 38.8173 14.5805C39.7009 14.3616 40.3617 13.9238 40.8353 13.1317C40.8632 13.08 40.895 13.0282 40.9189 12.9765C40.9467 12.9247 40.9706 12.873 40.9945 12.8173C41.0184 12.7655 41.0423 12.7098 41.0622 12.6541C41.0861 12.5984 41.106 12.5426 41.1219 12.4909C41.1418 12.4352 41.1577 12.3795 41.1736 12.3237C41.1895 12.268 41.2055 12.2123 41.2174 12.1526C41.2293 12.0969 41.2453 12.0372 41.2532 11.9814C41.2652 11.9217 41.2731 11.866 41.2811 11.8063C41.2891 11.7466 41.297 11.6909 41.301 11.6312C41.305 11.5715 41.309 11.5157 41.3129 11.456C41.3169 11.3963 41.3169 11.3366 41.3169 11.2809C41.3169 11.2212 41.3129 11.1615 41.309 11.1058C41.309 11.0461 41.305 10.9903 41.301 10.9306ZM40.294 11.4481C40.29 11.4879 40.286 11.5277 40.282 11.5675C40.2781 11.6073 40.2701 11.6471 40.2661 11.6869C40.2582 11.7267 40.2502 11.7665 40.2422 11.8023C40.2343 11.8421 40.2223 11.8779 40.2144 11.9177C40.2024 11.9575 40.1945 11.9934 40.1786 12.0332C40.1666 12.069 40.1547 12.1088 40.1388 12.1446C39.8761 12.8372 39.4223 13.2272 38.7616 13.5178C38.4949 13.5457 38.2203 13.5576 37.9616 13.474C37.4123 13.2989 36.9705 12.9407 36.7158 12.4193C36.6998 12.3834 36.6799 12.3436 36.664 12.3078C36.6481 12.272 36.6322 12.2322 36.6202 12.1924C36.6043 12.1526 36.5924 12.1168 36.5804 12.077C36.5685 12.0372 36.5565 11.9973 36.5486 11.9575C36.5366 11.9177 36.5287 11.8779 36.5207 11.8381C36.5128 11.7983 36.5048 11.7585 36.5008 11.7187C36.4929 11.6789 36.4889 11.6391 36.4849 11.5953C36.4809 11.5555 36.4769 11.5157 36.4769 11.472C36.473 11.4322 36.473 11.3924 36.473 11.3486C36.473 11.3088 36.473 11.265 36.4769 11.2252C36.4769 11.1854 36.4809 11.1416 36.4849 11.1018C36.4889 11.062 36.4929 11.0222 36.5008 10.9784C36.5048 10.9386 36.5128 10.8988 36.5207 10.859C36.5287 10.8192 36.5366 10.7794 36.5486 10.7396C36.5605 10.6998 36.5685 10.66 36.5804 10.6202C36.5924 10.5804 36.6043 10.5406 36.6202 10.5048C36.8909 9.76841 37.3765 9.41417 38.069 9.09575C38.3596 9.08381 38.6183 9.08381 38.8969 9.18332C38.9288 9.19526 38.9606 9.2072 38.9925 9.21914C39.0243 9.23108 39.0561 9.247 39.088 9.26292C39.1198 9.27884 39.1517 9.29476 39.1795 9.31068C39.2114 9.3266 39.2392 9.34253 39.2711 9.36243C39.2989 9.38233 39.3308 9.39825 39.3586 9.41815C39.3865 9.43805 39.4144 9.45795 39.4422 9.47785C39.4701 9.49775 39.4979 9.52164 39.5258 9.54154C39.5537 9.56542 39.5775 9.58532 39.6054 9.6092C39.6293 9.63308 39.6572 9.65696 39.681 9.68085C39.7049 9.70473 39.7288 9.73259 39.7527 9.75647C39.7766 9.78433 39.7965 9.80821 39.8203 9.83608C39.8402 9.86394 39.8641 9.8918 39.884 9.91966C39.9039 9.94752 39.9238 9.97538 39.9437 10.0072C39.9636 10.0351 39.9796 10.0669 39.9995 10.0948C40.0154 10.1266 40.0353 10.1545 40.0512 10.1863C40.0671 10.2182 40.083 10.25 40.095 10.2819C40.1109 10.3177 40.1268 10.3535 40.1427 10.3893C40.1587 10.4252 40.1706 10.465 40.1825 10.5008C40.1945 10.5366 40.2064 10.5764 40.2184 10.6122C40.2303 10.652 40.2383 10.6878 40.2502 10.7277C40.2582 10.7675 40.2661 10.8033 40.2741 10.8431C40.282 10.8829 40.286 10.9227 40.294 10.9625C40.298 11.0023 40.302 11.0421 40.3059 11.0819C40.3099 11.1217 40.3099 11.1615 40.3139 11.2013C40.3139 11.2411 40.3139 11.2809 40.3139 11.3207C40.298 11.3685 40.298 11.4083 40.294 11.4481Z" fill="#ED1B24"/>
</svg>
