<svg width="47" height="31" viewBox="0 0 47 31" fill="none" xmlns="http://www.w3.org/2000/svg">
<path d="M46.5379 13.5947C46.4816 13.3563 46.3385 13.1222 46.1781 12.9401C45.9396 12.6756 45.6145 12.4892 45.2806 12.3765L43.7936 12.3635C43.941 12.0123 43.8586 11.401 43.7025 11.0541C43.4771 10.5556 42.9612 10.2261 42.4539 10.0613C41.7082 9.82287 40.9712 9.89224 40.1995 9.93126C40.5897 9.2029 40.3729 7.19124 40.1301 6.40218C39.8093 5.366 39.0506 4.53793 38.0924 4.04802C36.7918 3.38036 35.2744 3.49741 33.861 3.51476C34.0778 3.12456 34.0734 1.79791 33.9304 1.37737C33.9087 1.31233 33.8783 1.26464 33.848 1.19961C33.8046 0.883122 33.6052 0.64467 33.3581 0.449574C33.1153 0.258813 32.8638 0.154762 32.5647 0.107072C31.4201 -0.0836894 30.0891 0.0377039 28.9272 0.0420394C27.5876 0.0463749 26.1785 -0.0403351 24.8475 0.0897292C24.336 0.354193 23.8807 0.614322 23.677 1.19528C23.4255 1.91063 23.755 2.80374 23.4212 3.49308L13.8051 3.48441C11.9191 3.48441 9.69505 3.25896 7.85681 3.67517C6.79462 3.91362 5.8885 4.43821 5.11679 5.20993C4.6052 5.72151 4.22368 6.28513 3.84215 6.89643C2.84933 6.74902 1.41863 6.60161 0.551532 7.23893C0.248048 7.46437 0.174347 7.60311 0.130993 7.96295C-0.111794 9.99196 0.0572916 12.5022 0.0572916 14.5832C0.0572916 17.9736 -0.0510995 21.4116 0.0963067 24.7976C0.109313 25.0707 0.0963067 25.7688 0.269726 25.9855C0.711944 26.5361 1.49667 26.6532 2.16 26.7182C2.55453 26.7572 2.96639 26.7399 3.36525 26.7139C3.37826 26.7269 3.3956 26.7399 3.41295 26.7529C4.35808 27.6027 4.6659 28.6692 5.91451 29.3976C6.11395 29.5103 6.31338 29.6143 6.52148 29.7054C6.72958 29.8008 6.93769 29.8831 7.15446 29.9568C7.37124 30.0305 7.58801 30.0912 7.80911 30.1433C8.03022 30.1953 8.25134 30.2386 8.47678 30.269C9.92917 30.4727 11.5203 30.347 12.9943 30.347L21.6263 30.3427L32.0228 30.334C33.6355 30.334 35.6689 30.5204 37.2383 30.2083C37.9233 30.0695 38.5823 29.6707 39.0766 29.1851C40.0694 28.201 40.3946 26.948 40.3859 25.5823C40.3816 25.1921 40.4249 24.6719 40.2168 24.3294C41.2096 24.3424 42.4973 24.4898 43.282 23.7441C43.7892 23.2629 43.967 22.6255 43.993 21.9492C44.4352 21.5287 46.1 21.9579 46.4946 20.835C46.6463 20.4014 46.6463 19.8682 46.6593 19.4129C46.681 18.1557 46.7937 14.6569 46.5379 13.5947ZM3.2612 25.4739C3.02709 25.617 2.85801 25.591 2.59355 25.5997C2.30307 25.5867 1.94755 25.5693 1.67442 25.4696C1.51834 25.4132 1.37094 25.3135 1.30157 25.1575C1.10647 24.7196 1.24521 23.2542 1.24521 22.7036C1.24954 20.9607 1.45332 9.04249 1.14116 8.27077C1.4143 8.21875 1.67442 8.09302 1.93454 7.98897C2.37243 7.94128 2.75828 7.94561 3.19183 8.01932C3.31323 8.24476 3.32191 8.41818 3.33058 8.66964C3.45197 12.2637 3.31757 15.9099 3.31757 19.5127C3.31323 21.0908 3.50833 24.0779 3.2612 25.4739ZM24.9473 1.31233C24.9776 1.308 25.0123 1.30366 25.0426 1.29933C25.7883 1.19961 32.1051 1.15192 32.504 1.308C32.5777 1.33401 32.6904 1.45974 32.7598 1.51177C32.9809 1.91063 32.9809 2.81241 32.8898 3.26763C32.7424 3.46273 32.7078 3.43672 32.4736 3.4714L24.5354 3.46707C24.9299 2.79507 24.427 2.01468 24.9473 1.31233ZM26.5601 4.78071C27.5225 4.53359 29.855 4.71135 30.9519 4.71568C30.9562 4.72869 30.9649 4.7417 30.9736 4.7547C30.9822 4.77204 30.9909 4.78505 30.9996 4.80239C31.2207 5.25762 31.1773 7.68548 31.0083 8.19273L30.7741 8.27944C30.7611 8.26644 30.7481 8.25343 30.7308 8.24476C29.8117 7.63346 27.5919 8.03232 26.534 8.25777C26.5427 8.24043 26.5514 8.22308 26.5601 8.20574C26.7985 7.68115 26.7682 5.28797 26.5601 4.78071ZM17.6376 28.6258C17.629 28.8513 17.6116 29.0074 17.4946 29.2025C15.4916 29.2025 9.19647 29.4539 7.58801 28.8816C6.74259 28.5781 6.06192 28.0015 5.29888 27.5463L12.1056 27.5333C13.1201 27.5333 14.4294 27.6764 15.4179 27.4639C15.6563 27.4119 15.678 27.3946 15.8081 27.1865C15.8341 26.9263 15.8428 26.7659 15.7127 26.5361C14.5768 26.0679 6.85965 26.6532 4.78296 26.3714C4.16732 25.9292 4.6659 25.0838 4.30606 24.5071C5.71075 24.5071 15.0927 24.6459 15.5349 24.4551C15.7734 24.3511 15.8861 24.1386 15.9902 23.9132C15.9772 23.7744 15.9988 23.7267 15.8991 23.6184C15.6954 23.3973 15.3138 23.3496 15.0234 23.3192C13.8875 23.1978 12.6345 23.2932 11.4856 23.2932L4.30606 23.3062C4.36242 23.2108 4.40143 23.1458 4.43178 23.0374C4.55751 22.5432 4.55752 21.5373 4.30606 21.0864C6.79896 21.1125 9.29186 21.0691 11.7848 21.0561C12.8166 21.0518 13.8658 21.1255 14.8933 21.0908C15.1187 21.0821 15.4005 21.0691 15.5956 20.952C15.8124 20.822 15.8211 20.7093 15.8818 20.4795C15.8471 20.3494 15.8428 20.2627 15.7474 20.1586C15.3182 19.7034 11.6547 19.9029 10.7833 19.8942L4.33207 19.8985C4.38409 19.8118 4.42311 19.7511 4.44479 19.6471C4.55318 19.1832 4.56185 18.0559 4.3234 17.6354C5.68474 17.6354 15.1664 17.7785 15.6303 17.4837C15.8558 17.3406 15.9381 17.1542 15.9858 16.9114C15.9598 16.842 15.9598 16.8333 15.9078 16.7683C15.7387 16.5559 15.2835 16.4908 15.0277 16.4648C13.7791 16.3348 12.4437 16.4475 11.1821 16.4518L4.30606 16.4431C4.33641 16.3911 4.37542 16.3391 4.3971 16.2784C4.56618 15.8318 4.5315 14.6179 4.31039 14.1844C5.59802 14.1887 15.0797 14.2971 15.5479 14.102C15.7127 14.0326 15.8081 13.9416 15.8601 13.7595C15.9208 13.5557 15.8428 13.378 15.7344 13.2089C15.2445 12.823 5.74109 13.0355 4.31906 13.0398C4.37108 12.9531 4.41011 12.8924 4.43178 12.7927C4.54017 12.3418 4.55752 11.1148 4.30606 10.7116L11.3512 10.703C12.5695 10.703 14.1172 10.9111 15.2922 10.6163C15.5306 10.5556 15.8428 10.4385 15.9642 10.2087C16.0335 10.0787 15.9858 10.0353 15.9468 9.90091C15.743 9.70582 15.5523 9.62344 15.2791 9.58009C14.1216 9.398 12.7949 9.51505 11.6157 9.51505L4.30606 9.51072C4.5185 9.17255 4.73527 7.86324 4.71359 7.46004C7.25851 7.39934 9.81644 7.44703 12.3614 7.44703C13.2935 7.44703 14.6852 7.62912 15.5696 7.37333C15.756 7.23026 15.8124 7.12621 15.8818 6.90076C15.8558 6.73168 15.8601 6.64063 15.7344 6.50623C15.6 6.36316 15.4135 6.32415 15.2271 6.30247C14.1693 6.18107 12.9944 6.27645 11.9235 6.27645L5.56768 6.28079C5.85815 6.13338 6.10961 5.89493 6.37408 5.70417C7.24551 5.07986 7.96953 4.81973 9.02739 4.68967C9.95084 4.64198 10.9047 4.69834 11.8281 4.70268L17.4252 4.72435C17.4729 4.80239 17.5119 4.8761 17.5336 4.96281C17.733 5.72585 17.5856 8.32714 17.5986 9.31129C17.6507 13.4777 17.6723 17.6441 17.655 21.8105C17.6507 24.0779 17.7114 26.3627 17.6376 28.6258ZM25.4068 4.70701C25.4155 4.72002 25.4198 4.73302 25.4285 4.75037C25.4588 4.81106 25.4935 4.87176 25.5152 4.93679C25.6583 5.41803 25.6539 8.10169 25.4372 8.56125C24.7392 9.15088 23.7333 9.48037 22.9876 10.0613C22.1856 10.6856 21.7347 11.5787 21.0236 12.2681C21.0106 12.2811 20.9933 12.2984 20.9803 12.3114C21.0063 12.5976 20.1522 14.2494 20.0222 14.7046C19.8401 15.3419 19.9008 16.0486 19.736 16.6989C19.5062 16.8377 19.2331 16.7813 18.9686 16.7813C18.9209 16.751 18.8602 16.738 18.8256 16.6946C18.5654 16.3521 19.0944 5.77354 18.6478 4.78071C19.7403 4.53793 23.9631 4.70268 25.4068 4.70701ZM25.4285 29.1201C25.2638 29.2805 25.1554 29.2415 24.9342 29.2501L18.6608 29.2415C18.934 28.6518 18.7952 19.6341 18.8039 18.2164C18.9296 18.0603 18.9383 18.082 19.1421 18.0516C19.2635 18.0473 19.5929 18.0256 19.6883 18.082C19.736 18.108 19.7707 18.1513 19.7967 18.1947C19.9745 18.4808 20.382 20.5055 20.8069 21.3076C21.5439 22.6862 22.7405 23.8178 24.0585 24.6285C24.4313 24.8583 24.8909 25.0361 25.2291 25.3049C25.2594 25.3265 25.2898 25.3526 25.3201 25.3786C25.6106 25.8338 25.4719 28.4481 25.4285 29.1201ZM30.9866 29.1634C30.475 29.3932 27.193 29.2371 26.443 29.2328C26.4517 29.2198 26.456 29.2025 26.4647 29.1894C26.7248 28.6909 26.6771 26.302 26.521 25.7688C26.8982 25.7514 27.2971 25.8598 27.6699 25.9075C28.7972 26.0506 29.829 26.0506 30.9389 25.7731C30.9779 25.8425 31.0126 25.9118 31.0386 25.9855C31.2164 26.4624 31.1773 28.5391 30.9692 28.977L30.9866 29.1634ZM32.0011 24.1646C31.884 24.2167 31.7626 24.2687 31.6412 24.3164C31.5198 24.3641 31.3984 24.4074 31.2771 24.4508C31.1557 24.4941 31.0299 24.5331 30.9042 24.5678C30.7785 24.6025 30.6527 24.6372 30.527 24.6675C30.4013 24.6979 30.2756 24.7239 30.1455 24.7456C30.0154 24.7673 29.8897 24.7889 29.7596 24.8063C29.6296 24.8236 29.5038 24.8366 29.3738 24.8496C29.2437 24.8626 29.1137 24.867 28.9836 24.8756C28.8752 24.8756 28.7711 24.8756 28.6628 24.8756C28.5544 24.8713 28.4503 24.867 28.3419 24.8626C28.2335 24.854 28.1295 24.8453 28.0254 24.8366C27.9171 24.8236 27.813 24.8106 27.709 24.7976C27.6049 24.7803 27.4965 24.7629 27.3925 24.7456C27.2884 24.7239 27.1844 24.7022 27.0803 24.6806C26.9763 24.6589 26.8722 24.6329 26.7725 24.6025C26.6684 24.5765 26.5687 24.5462 26.4647 24.5115C26.365 24.4811 26.2609 24.4464 26.1612 24.4074C26.0615 24.3727 25.9618 24.3337 25.862 24.2947C25.7623 24.2557 25.6669 24.2123 25.5672 24.169C25.4719 24.1256 25.3721 24.0779 25.2811 24.0302C25.1857 23.9825 25.0903 23.9305 24.9993 23.8828C24.9039 23.8308 24.8129 23.7788 24.7218 23.7224C24.6308 23.6661 24.5441 23.6097 24.453 23.549C24.3663 23.4883 24.2753 23.4276 24.1885 23.3669C22.5411 22.179 21.3531 20.3668 21.0367 18.3508C21.015 18.2207 20.9976 18.0906 20.9803 17.9606C20.963 17.8305 20.9543 17.7004 20.9456 17.5704C20.9369 17.4403 20.9326 17.3102 20.9283 17.1802C20.9283 17.0501 20.9283 16.92 20.9326 16.79C20.9369 16.6599 20.9456 16.5299 20.9543 16.3998C20.963 16.2697 20.9803 16.1397 20.9976 16.0096C21.015 15.8795 21.0367 15.7495 21.0583 15.6237C21.0843 15.4937 21.1104 15.3679 21.1407 15.2422C21.1711 15.1165 21.2057 14.9908 21.2404 14.865C21.2751 14.7393 21.3185 14.6136 21.3575 14.4922C21.4008 14.3708 21.4485 14.2451 21.4962 14.1237C21.5439 14.0023 21.5959 13.8809 21.6523 13.7638C21.7087 13.6468 21.765 13.5297 21.8257 13.4126C21.8864 13.2956 21.9514 13.1829 22.0165 13.0701C22.0815 12.9574 22.1509 12.849 22.2246 12.7363C22.2983 12.6279 22.372 12.5195 22.45 12.4155C23.9284 10.3952 25.9271 9.50205 28.3246 9.1292C28.4243 9.12053 28.524 9.11186 28.6237 9.10752C30.54 9.0078 32.6774 10.0527 34.0778 11.336C34.1732 11.4227 34.2642 11.5137 34.3552 11.6048C34.4463 11.6958 34.533 11.7912 34.6197 11.8866C34.7064 11.9819 34.7888 12.0817 34.8712 12.1814C34.9535 12.2811 35.0316 12.3851 35.1053 12.4892C35.179 12.5932 35.2527 12.7016 35.3264 12.81C35.3958 12.9184 35.4651 13.0268 35.5302 13.1395C35.5952 13.2522 35.6602 13.365 35.7166 13.4777C35.7773 13.5904 35.8336 13.7075 35.8857 13.8245C35.942 13.9416 35.9897 14.0586 36.0374 14.18C36.0851 14.3014 36.1328 14.4228 36.1718 14.5442C36.2152 14.6656 36.2542 14.7913 36.2889 14.9127C36.3236 15.0385 36.3582 15.1598 36.3886 15.2856C36.4189 15.4113 36.4449 15.537 36.471 15.6671C36.497 15.7928 36.5143 15.9229 36.5316 16.0486C36.549 16.1787 36.562 16.3044 36.575 16.4345C36.588 16.5645 36.5967 16.6903 36.601 16.8203C36.6054 16.9461 36.6054 17.0761 36.601 17.2019C36.5967 17.3276 36.5924 17.4576 36.5837 17.5834C36.575 17.7091 36.562 17.8348 36.549 17.9606C36.5317 18.0863 36.5143 18.212 36.4926 18.3377C36.471 18.4635 36.4493 18.5892 36.4189 18.7106C36.3929 18.8363 36.3626 18.9577 36.3279 19.0791C36.2932 19.2005 36.2585 19.3219 36.2195 19.4433C36.1805 19.5647 36.1371 19.6817 36.0938 19.8031C36.0504 19.9202 36.0027 20.0416 35.9507 20.1543C35.8987 20.2714 35.8466 20.3841 35.7903 20.5012C35.7339 20.6139 35.6732 20.7266 35.6125 20.8393C35.5518 20.952 35.4868 21.0604 35.4218 21.1688C35.3567 21.2772 35.283 21.3813 35.2137 21.4853C35.14 21.5894 35.0663 21.6934 34.9926 21.7931C34.9145 21.8928 34.8365 21.9926 34.7541 22.0879C34.6717 22.1833 34.5894 22.2787 34.5027 22.3741C34.4116 22.4695 34.3206 22.5605 34.2295 22.6516C34.1341 22.7426 34.0387 22.8293 33.9434 22.9117C33.8437 22.9984 33.7439 23.0808 33.6442 23.1588C33.5402 23.2412 33.4361 23.3149 33.3321 23.3929C33.228 23.4666 33.1196 23.5403 33.0112 23.6097C32.9029 23.6791 32.7901 23.7484 32.6774 23.8135C32.5647 23.8785 32.452 23.9392 32.3349 23.9999C32.2352 24.0562 32.1181 24.1126 32.0011 24.1646ZM39.211 25.487C39.2153 26.5058 39.1069 27.581 38.3396 28.3354C37.156 29.4973 35.1963 29.2458 33.6702 29.2371H32.0748C32.0835 29.2241 32.0878 29.2068 32.0965 29.1938C32.1051 29.1764 32.1138 29.1634 32.1225 29.1461C32.3436 28.6909 32.2915 25.8728 32.1095 25.3352C33.6399 24.9363 35.2744 23.4666 36.1935 22.2007C36.8351 21.3119 37.8453 19.2612 37.6675 18.1383C38.1098 18.0646 38.5867 18.0906 39.0376 18.082C39.3454 18.6022 39.2066 24.3511 39.211 25.487ZM39.1676 11.8259C39.1633 13.2913 39.2587 14.7653 39.185 16.2264C39.1763 16.4215 39.1459 16.5689 39.0636 16.7466L39.0289 16.803C38.7384 16.9721 38.0621 16.881 37.7109 16.8767C37.7326 16.8247 37.7412 16.8117 37.7586 16.751C38.0447 15.7972 37.182 13.5731 36.6964 12.693C35.7946 11.0672 33.887 9.24192 32.0791 8.71733C32.3349 8.19707 32.3176 5.40069 32.1311 4.77638C33.0979 4.59429 36.5013 4.6073 37.4031 5.00616C38.1488 5.33566 38.695 5.95129 38.9812 6.71C39.1243 7.08719 39.1893 7.47738 39.2153 7.88058C39.2934 9.17689 39.172 10.5252 39.1676 11.8259ZM42.7791 21.4506C42.7704 21.9622 42.8354 22.4478 42.4452 22.8206L42.3759 22.9897C41.9033 23.3149 40.7631 23.1545 40.1908 23.1458C40.2905 22.9767 40.3252 22.851 40.3382 22.6559C40.4856 20.7526 40.3469 18.5372 40.3425 16.6036C40.3425 14.9084 40.5073 12.7406 40.2862 11.1105C40.5897 11.0888 40.8975 11.0758 41.201 11.0585C41.7429 11.0368 42.1851 11.0498 42.61 11.4357C42.9785 12.3461 42.8051 19.8725 42.7791 21.4506ZM45.4627 20.2584C45.4237 20.3234 45.3197 20.4058 45.2633 20.4665L45.2243 20.5488C44.8211 20.7006 44.2748 20.6572 43.8413 20.6702C44.0407 20.1283 44.006 14.1583 43.8283 13.6338C43.8803 13.6251 43.928 13.6164 43.98 13.6121C44.4482 13.5557 44.9945 13.4647 45.3847 13.7855C45.5408 14.1627 45.5494 14.6006 45.5538 15.0038C45.5624 15.6584 45.6925 19.8638 45.4627 20.2584Z" fill="#ED1B24"/>
<path d="M34.0339 21.559C35.1915 20.2107 35.8721 18.3551 35.7247 16.5689C35.7161 16.4518 35.7031 16.3348 35.6857 16.2221C35.6684 16.105 35.651 15.9923 35.6294 15.8752C35.6077 15.7625 35.586 15.6454 35.5556 15.5327C35.5296 15.42 35.4993 15.3073 35.4646 15.1945C35.4299 15.0818 35.3952 14.9734 35.3606 14.8607C35.3215 14.7523 35.2825 14.6396 35.2392 14.5312C35.1958 14.4228 35.1525 14.3144 35.1048 14.2104C35.0571 14.1063 35.005 13.998 34.953 13.8939C34.901 13.7899 34.8446 13.6901 34.7883 13.5861C34.7276 13.4864 34.6669 13.3867 34.6062 13.2869C34.5412 13.1872 34.4761 13.0918 34.4111 12.9965C34.3417 12.9011 34.2724 12.81 34.1987 12.719C34.125 12.6279 34.0512 12.5369 33.9775 12.4502C33.8995 12.3635 33.8215 12.2768 33.7391 12.1944C33.6567 12.112 33.5743 12.0296 33.492 11.9473C33.4053 11.8692 33.3186 11.7912 33.2318 11.7132C31.9182 10.6119 30.0713 9.93128 28.3501 10.0657C26.2127 10.4169 24.3484 11.2276 23.0391 13.0398C22.0073 14.4705 21.6128 16.3651 21.9076 18.095C21.9249 18.212 21.9509 18.3248 21.9726 18.4375C21.9986 18.5502 22.0246 18.6673 22.055 18.78C22.0853 18.8927 22.12 19.0054 22.1547 19.1138C22.1894 19.2265 22.2284 19.3349 22.2718 19.4433C22.3151 19.5517 22.3585 19.6601 22.4062 19.7685C22.4538 19.8769 22.5015 19.9809 22.5536 20.085C22.6056 20.189 22.6619 20.2931 22.7183 20.3928C22.7747 20.4968 22.8354 20.5965 22.8961 20.6919C22.9568 20.7916 23.0218 20.887 23.0912 20.9824C23.1562 21.0778 23.2256 21.1732 23.2993 21.2642C23.373 21.3553 23.4467 21.4463 23.5204 21.5373C23.5984 21.6241 23.6764 21.7108 23.7545 21.7975C23.8325 21.8842 23.9192 21.9666 24.0016 22.0446C24.084 22.127 24.1707 22.205 24.2617 22.2787C24.3484 22.3568 24.4395 22.4305 24.5349 22.4998C24.6259 22.5735 24.7213 22.6429 24.8167 22.7079C24.8947 22.76 24.9684 22.812 25.0508 22.864C25.1288 22.916 25.2069 22.9637 25.2892 23.0071C25.3673 23.0548 25.4497 23.0981 25.532 23.1415C25.6144 23.1848 25.6968 23.2282 25.7835 23.2672C25.8659 23.3062 25.9526 23.3452 26.0349 23.3843C26.1217 23.4189 26.2084 23.458 26.2951 23.4883C26.3818 23.523 26.4685 23.5533 26.5595 23.5837C26.6462 23.614 26.7373 23.6401 26.824 23.6661C26.915 23.6921 27.0018 23.7181 27.0928 23.7398C27.1838 23.7614 27.2749 23.7831 27.3659 23.8005C27.457 23.8178 27.548 23.8351 27.6391 23.8525C27.7301 23.8698 27.8212 23.8828 27.9165 23.8915C28.0076 23.9045 28.0986 23.9132 28.194 23.9219C28.2851 23.9305 28.3804 23.9349 28.4715 23.9392C28.5625 23.9435 28.6579 23.9479 28.749 23.9479C28.84 23.9479 28.9354 23.9479 29.0264 23.9435C30.9427 23.8308 32.7723 23.0288 34.0339 21.559ZM29.3776 22.7469C28.2677 22.9334 26.9107 22.6082 25.9439 22.0576C25.8572 22.0099 25.7748 21.9579 25.6881 21.9015C25.6057 21.8495 25.5234 21.7931 25.441 21.7368C25.363 21.6804 25.2806 21.6197 25.2025 21.559C25.1245 21.4983 25.0465 21.4333 24.9728 21.3683C24.8991 21.3032 24.8254 21.2339 24.756 21.1688C24.6866 21.0995 24.6172 21.0301 24.5479 20.9564C24.4785 20.8827 24.4135 20.809 24.3484 20.7353C24.2834 20.6616 24.2227 20.5835 24.162 20.5055C24.1013 20.4275 24.045 20.3451 23.9886 20.2671C23.9322 20.1847 23.8759 20.1023 23.8239 20.0199C23.7718 19.9376 23.7241 19.8508 23.6764 19.7641C23.6288 19.6774 23.5811 19.5907 23.5377 19.4997C23.4944 19.4086 23.4553 19.3219 23.412 19.2309C23.373 19.1398 23.3339 19.0488 23.3036 18.9534C23.2689 18.8624 23.2386 18.767 23.2082 18.6716C23.1779 18.5762 23.1519 18.4808 23.1258 18.3855C23.1042 18.2944 23.0825 18.2034 23.0651 18.1123C23.0478 18.0213 23.0305 17.9302 23.0175 17.8349C23.0044 17.7438 22.9914 17.6484 22.9828 17.5574C22.9741 17.4663 22.9654 17.371 22.9611 17.2799C22.9568 17.1845 22.9568 17.0935 22.9568 16.9981C22.9568 16.9027 22.9611 16.8117 22.9654 16.7163C22.9698 16.6209 22.9784 16.5299 22.9871 16.4388C22.9958 16.3478 23.0088 16.2524 23.0218 16.1614C23.0348 16.0703 23.0521 15.9749 23.0695 15.8839C23.0868 15.7928 23.1085 15.7018 23.1302 15.6108C23.1519 15.5197 23.1779 15.4287 23.2039 15.342C23.2299 15.2509 23.2602 15.1642 23.2949 15.0775C23.3253 14.9908 23.36 14.9041 23.3946 14.8174C23.4293 14.7306 23.4683 14.6439 23.5074 14.5616C23.5464 14.4792 23.5897 14.3925 23.6331 14.3101C23.6764 14.2277 23.7241 14.1454 23.7718 14.0673C24.7213 12.4935 26.1737 11.7348 27.8992 11.297C29.3689 11.0932 30.9644 11.5224 32.1566 12.3982C32.2347 12.4545 32.3127 12.5152 32.3864 12.5759C32.4601 12.6366 32.5338 12.7016 32.6075 12.7623C32.6812 12.8274 32.7506 12.8924 32.82 12.9618C32.8893 13.0311 32.9544 13.1005 33.0194 13.1699C33.0844 13.2436 33.1495 13.3129 33.2102 13.391C33.2709 13.4647 33.3315 13.5427 33.3879 13.6208C33.4443 13.6988 33.5006 13.7768 33.557 13.8592C33.609 13.9416 33.661 14.0196 33.7131 14.1063C33.7651 14.1887 33.8128 14.2754 33.8561 14.3578C33.8995 14.4445 33.9429 14.5312 33.9862 14.6179C34.0296 14.7046 34.0686 14.7957 34.1033 14.8824C34.1423 14.9734 34.177 15.0645 34.2073 15.1555C34.2377 15.2466 34.268 15.3376 34.2984 15.433C34.3244 15.524 34.3504 15.6194 34.3764 15.7148C34.3981 15.8102 34.4198 15.9056 34.4371 16.0009C34.4544 16.0963 34.4718 16.1917 34.4848 16.2871C34.6929 17.7698 34.268 19.3783 33.3619 20.5662C32.3821 21.8408 30.96 22.5345 29.3776 22.7469Z" fill="#ED1B24"/>
</svg>
