<svg width="47" height="29" viewBox="0 0 47 29" fill="none" xmlns="http://www.w3.org/2000/svg">
<path d="M44.152 11.2031C43.5359 11.2031 42.9198 11.2031 42.2993 11.2118C42.5222 10.2462 41.1065 7.45851 40.5516 6.56716C40.4904 6.47104 40.4292 6.37054 40.3681 6.27442C40.3025 6.17829 40.2414 6.08216 40.1758 5.98604C40.1103 5.88991 40.0447 5.79816 39.9748 5.7064C39.9049 5.61464 39.8394 5.52288 39.7695 5.43113C39.6996 5.33937 39.6297 5.24762 39.5554 5.16023C39.4811 5.06847 39.4068 4.98108 39.3325 4.89369C39.2583 4.80631 39.184 4.71892 39.1053 4.63153C39.0267 4.54414 38.9524 4.46113 38.8738 4.37811C38.7951 4.29509 38.7165 4.21207 38.6334 4.12905C38.5504 4.04604 38.4718 3.96739 38.3888 3.88437C38.3057 3.80572 38.2227 3.72707 38.1353 3.64842C38.0523 3.56977 37.9649 3.4955 37.8775 3.41685C37.7901 3.34257 37.7028 3.26829 37.6154 3.19401C37.528 3.11973 37.4362 3.04982 37.3488 2.97554C37.2571 2.90563 37.1653 2.83572 37.0736 2.76581C36.9818 2.6959 36.8901 2.63036 36.7939 2.56045C36.7022 2.49491 36.6061 2.42937 36.5099 2.36383C36.4138 2.29829 36.3177 2.23712 36.2215 2.17595C36.1254 2.11478 36.0249 2.05361 35.9288 1.99244C35.8283 1.93127 35.7322 1.87446 35.6317 1.81766C35.5312 1.76086 35.4307 1.70406 35.3302 1.65162C35.2297 1.59919 35.1248 1.54239 35.0243 1.48996C34.9238 1.43753 34.819 1.38509 34.7141 1.33703C34.6092 1.28897 34.5044 1.2409 34.3995 1.19284C34.2947 1.14478 34.1898 1.10108 34.0806 1.05739C33.9757 1.0137 33.8665 0.970002 33.7572 0.930678C33.648 0.886984 33.5431 0.847658 33.4339 0.808333C33.3247 0.769009 33.2154 0.729686 33.1062 0.694731C32.997 0.659776 32.8877 0.62482 32.7785 0.589865C32.6692 0.55491 32.5557 0.524326 32.4464 0.493741C32.3372 0.463155 32.2236 0.43257 32.11 0.406353C32.0007 0.380137 31.8871 0.353919 31.7735 0.327703C31.4327 0.253423 31.0875 0.187886 30.7467 0.139823C30.4015 0.0917599 30.052 0.0524356 29.7068 0.0305888C29.3573 0.00874194 29.0077 0 28.6625 0C28.313 0.00436937 27.9634 0.02185 27.6183 0.0524356C23.9742 0.524327 20.4088 2.30266 18.1411 5.25198C17.8047 5.68892 17.4114 6.39239 16.9789 6.71572C16.9657 6.72446 16.9483 6.72883 16.9352 6.73757C15.9739 7.19198 14.7243 7.40608 13.6887 7.69009C10.5646 8.52464 7.44488 9.38541 4.33389 10.2724C3.14542 10.6176 1.79966 10.8885 0.659259 11.3647C0.453898 11.4521 0.309707 11.5089 0.231058 11.7318C-0.0747974 12.5707 -0.0747996 15.3802 0.217948 16.2104C0.397092 16.3939 0.584977 16.4987 0.820923 16.5818C1.80403 16.9226 2.91822 17.1192 3.93191 17.3857C7.12592 18.1984 10.3243 18.9893 13.5314 19.7539C14.5058 19.9942 15.6243 20.1559 16.5507 20.5317C17.3634 21.2788 17.9401 22.6377 18.7659 23.5159C19.3864 24.1757 20.8501 25.1501 21.2302 25.7137C22.2177 26.2031 23.1571 26.7711 24.1839 27.1775C27.0677 28.3179 30.4583 28.3135 33.3815 27.3173C36.8901 26.1245 39.6122 23.5684 41.2245 20.2608C41.4735 19.7452 42.1945 18.3033 42.0197 17.7702C43.1514 17.7877 45.1176 18.0848 46.0089 17.2721C46.6338 16.6997 46.6687 15.8259 46.6774 15.0394C46.6906 14.0388 46.8566 12.6231 46.1269 11.8366C45.6201 11.2905 44.8598 11.2074 44.152 11.2031ZM15.3141 16.2366C15.4059 16.9182 16.0919 18.6878 15.9389 19.2383C14.9034 18.7315 13.0508 18.43 11.8885 18.1373C9.6252 17.5649 7.34439 16.892 5.05484 16.4507C4.41254 16.1273 1.95258 15.5812 1.17484 15.4457C1.20105 15.402 1.24038 15.3321 1.25786 15.2797C1.43263 14.7641 1.43263 12.9246 1.19668 12.4658C2.60362 12.2561 5.07669 11.3429 6.53169 10.9103C9.65578 10.0015 12.7886 9.12324 15.9302 8.27559C16.0831 8.27122 16.1399 8.27996 16.2666 8.3586C15.2704 11.1594 14.9034 13.2173 15.3141 16.2366ZM41.5478 14.3796C41.5434 14.4888 41.5391 14.5937 41.5347 14.7029C41.5303 14.8122 41.5216 14.917 41.5129 15.0263C41.5041 15.1355 41.4954 15.2404 41.4823 15.3452C41.4735 15.4501 41.4604 15.5593 41.4429 15.6642C41.4298 15.7691 41.4124 15.8783 41.3993 15.9832C41.3818 16.088 41.3643 16.1973 41.3468 16.3021C41.3293 16.407 41.3075 16.5118 41.2856 16.6167C41.2638 16.7216 41.242 16.8264 41.2157 16.9313C41.1895 17.0362 41.1677 17.141 41.1415 17.2459C41.1152 17.3508 41.0847 17.4556 41.0584 17.5561C41.0279 17.661 40.9973 17.7615 40.9667 17.8664C40.9361 17.9668 40.9011 18.0717 40.8662 18.1722C40.8312 18.2727 40.7963 18.3776 40.7613 18.4781C40.722 18.5786 40.687 18.6791 40.6477 18.7795C40.6084 18.88 40.5691 18.9805 40.5298 19.0767C40.4861 19.1772 40.4467 19.2733 40.403 19.3738C40.3593 19.4699 40.3157 19.5704 40.2676 19.6665C40.2195 19.7627 40.1715 19.8588 40.1234 19.9549C40.0753 20.051 40.0273 20.1472 39.9748 20.2389C39.9224 20.335 39.8743 20.4268 39.8175 20.5186C39.7651 20.6103 39.7127 20.7064 39.6559 20.7982C39.5991 20.89 39.5423 20.9817 39.4855 21.0735C39.4287 21.1652 39.3675 21.2526 39.3107 21.3444C39.2495 21.4318 39.1883 21.5235 39.1272 21.6109C39.066 21.6983 39.0005 21.7857 38.9393 21.8731C38.8738 21.9605 38.8082 22.0435 38.7427 22.1309C38.6771 22.2139 38.6116 22.3013 38.5417 22.3843C38.4761 22.4629 38.415 22.5416 38.3494 22.6159C38.2839 22.6945 38.2184 22.7688 38.1484 22.8431C38.0829 22.9173 38.013 22.9916 37.9431 23.0659C37.8732 23.1402 37.8033 23.2101 37.7334 23.2844C37.6634 23.3543 37.5892 23.4242 37.5192 23.4941C37.445 23.564 37.3751 23.6339 37.3008 23.6995C37.2265 23.7694 37.1522 23.8349 37.0736 23.9004C36.9993 23.966 36.9206 24.0315 36.842 24.0971C36.7633 24.1626 36.6847 24.2238 36.6061 24.285C36.5274 24.3461 36.4488 24.4073 36.3657 24.4685C36.2871 24.5296 36.2041 24.5864 36.121 24.6476C36.038 24.7044 35.955 24.7612 35.872 24.818C35.789 24.8748 35.706 24.9273 35.6186 24.9841C35.5312 25.0365 35.4482 25.0889 35.3608 25.1413C35.2734 25.1938 35.186 25.2418 35.0986 25.2943C35.0112 25.3423 34.9238 25.3904 34.8321 25.4385C34.7447 25.4865 34.6529 25.5302 34.5656 25.5783C34.4738 25.622 34.3864 25.6657 34.2947 25.7094C34.2029 25.7531 34.1111 25.7924 34.0194 25.8361C33.9276 25.8754 33.8359 25.9147 33.7441 25.9541C33.6524 25.9934 33.5562 26.0283 33.4645 26.0633C33.3683 26.0982 33.2766 26.1332 33.1805 26.1681C33.0843 26.2031 32.9926 26.2337 32.8965 26.2643C32.8003 26.2949 32.7042 26.3255 32.6081 26.356C32.512 26.3866 32.4158 26.4128 32.3153 26.4391C32.2192 26.4653 32.1231 26.4915 32.0226 26.5133C31.9265 26.5395 31.826 26.5614 31.7298 26.5832C31.6337 26.6051 31.5332 26.6269 31.4371 26.6444C31.3366 26.6619 31.2405 26.6794 31.14 26.6968C31.0395 26.7143 30.939 26.7274 30.8428 26.7449C30.7424 26.758 30.6419 26.7711 30.5414 26.7842C30.4409 26.7973 30.3404 26.8061 30.2399 26.8148C27.5615 27.2955 24.3106 26.308 22.0866 24.8311C19.3645 23.0266 17.2454 20.0641 16.5987 16.8483C15.904 13.3878 16.4502 9.78302 18.4251 6.83806C20.5486 3.66153 23.6902 2.00991 27.3605 1.28896L27.4216 1.28023C27.5265 1.26712 27.6314 1.25838 27.7362 1.24964C27.8411 1.24091 27.946 1.23217 28.0552 1.2278C28.1601 1.22343 28.2649 1.21469 28.3742 1.21469C28.479 1.21032 28.5839 1.21032 28.6931 1.20595C28.798 1.20595 28.9029 1.20595 29.0121 1.20595C29.117 1.20595 29.2218 1.21032 29.3311 1.21469C29.4403 1.21906 29.5408 1.22343 29.65 1.23217C29.7593 1.2409 29.8597 1.24527 29.969 1.25838C30.0738 1.26712 30.1787 1.28023 30.2836 1.28896C30.3884 1.30207 30.4933 1.31518 30.5982 1.32829C30.703 1.3414 30.8079 1.35887 30.9128 1.37635C31.0176 1.39383 31.1225 1.41131 31.223 1.43316C31.3279 1.455 31.4283 1.47248 31.5332 1.4987C31.6381 1.52054 31.7386 1.54676 31.8434 1.5686C31.9439 1.59482 32.0488 1.62104 32.1493 1.64726C32.2498 1.67347 32.3547 1.70406 32.4552 1.73464C32.5556 1.76523 32.6561 1.79581 32.7566 1.83077C32.8571 1.86572 32.9576 1.89631 33.0581 1.93126C33.1586 1.96622 33.2547 2.00117 33.3552 2.0405C33.4557 2.07982 33.5519 2.11914 33.6524 2.15847C33.7485 2.19779 33.849 2.24149 33.9451 2.28081C34.0412 2.32451 34.1374 2.3682 34.2335 2.41189C34.3296 2.45559 34.4257 2.50365 34.5175 2.55171C34.6136 2.59978 34.7054 2.64784 34.8015 2.6959C34.8933 2.74397 34.9894 2.7964 35.0811 2.84883C35.1729 2.90126 35.2647 2.95369 35.3564 3.0105C35.4482 3.06293 35.5356 3.11973 35.6273 3.17653C35.7191 3.23334 35.8065 3.29014 35.8938 3.35131C35.9812 3.40811 36.0686 3.46928 36.156 3.53045C36.2434 3.59162 36.3264 3.6528 36.4138 3.71834C36.4968 3.77951 36.5842 3.84504 36.6672 3.91059C36.7502 3.97613 36.8333 4.04167 36.9163 4.10721C36.9949 4.17275 37.0779 4.24266 37.1566 4.31257C37.2352 4.38248 37.3139 4.45239 37.3925 4.5223C37.4712 4.59221 37.5455 4.66649 37.6197 4.7364C37.694 4.81068 37.7683 4.88495 37.8426 4.95923C37.9169 5.03351 37.9911 5.1078 38.0611 5.18644C38.1353 5.26509 38.2052 5.33937 38.2752 5.41802C38.3451 5.49667 38.415 5.57532 38.4805 5.65396C38.5461 5.73261 38.616 5.81563 38.6815 5.89428C38.747 5.9773 38.8126 6.05594 38.8781 6.13896C38.9437 6.22198 39.0048 6.305 39.066 6.39239C39.1272 6.47541 39.1884 6.5628 39.2495 6.65018C39.3107 6.73757 39.3675 6.82496 39.4287 6.91234C39.4855 6.99973 39.5423 7.08712 39.5991 7.17887C39.6559 7.26626 39.7083 7.35802 39.7651 7.44541C39.8175 7.53716 39.87 7.62455 39.9224 7.71631C39.9748 7.80807 40.0229 7.89982 40.0753 7.99158C40.1234 8.08333 40.1715 8.17946 40.2195 8.27122C40.2676 8.36297 40.3113 8.4591 40.355 8.55523C40.3987 8.65135 40.4424 8.74748 40.4861 8.8436C40.5298 8.93973 40.5691 9.03585 40.6084 9.13198C40.6477 9.22811 40.687 9.32424 40.7264 9.42473C40.7657 9.52086 40.8007 9.62135 40.8356 9.72185C40.8706 9.82234 40.9055 9.91847 40.9361 10.019C40.9667 10.1195 41.0016 10.22 41.0322 10.3205C41.0628 10.4209 41.0934 10.5214 41.1196 10.6219C41.1458 10.7224 41.1764 10.8229 41.2026 10.9278C41.2288 11.0283 41.2507 11.1332 41.2769 11.2337C41.3031 11.3341 41.3206 11.439 41.3424 11.5395C41.3643 11.6444 41.3818 11.7449 41.4036 11.8497C41.4211 11.9546 41.4386 12.0551 41.4561 12.16C41.4735 12.2648 41.4866 12.3697 41.4997 12.4702C41.5129 12.575 41.526 12.6799 41.5347 12.7848C41.5434 12.8896 41.5522 12.9989 41.5609 13.1081C41.5697 13.2173 41.574 13.3222 41.5784 13.4314C41.5828 13.5407 41.5871 13.6455 41.5871 13.7548C41.5871 13.864 41.5871 13.9689 41.5871 14.0781C41.5522 14.1655 41.5522 14.2704 41.5478 14.3796ZM45.1875 16.455C44.9035 16.7434 43.9553 16.6298 43.5621 16.6254L42.3561 16.6211C42.4435 16.4944 42.4872 16.407 42.5134 16.2541C42.6795 15.3452 42.9067 13.13 42.378 12.3784H43.9859C44.3966 12.3697 44.8904 12.3173 45.2487 12.5488C45.4453 12.8459 45.4933 13.1693 45.5196 13.5188C45.5676 14.1917 45.6681 15.97 45.1875 16.455Z" fill="#ED1B24"/>
<path d="M39.2143 13.615C38.4409 13.3398 36.5665 13.6019 35.6708 13.5976C35.8761 13.0776 35.5659 12.2431 35.3562 11.7537C35.2557 11.5134 35.1552 11.3342 34.9629 11.1551C35.6183 10.9323 37.8686 9.69572 38.1744 9.08838C38.2268 8.97914 38.2312 8.86117 38.2312 8.73883C38.1001 8.52473 38.0521 8.48977 37.8336 8.36743C37.0165 8.31063 35.3605 9.89234 34.4473 10.2069C34.2638 9.56027 33.4162 8.92234 32.8613 8.5859C33.2807 8.10964 34.4473 5.93806 34.4211 5.31761C34.4124 5.16906 34.3774 5.12973 34.2944 5.00302C34.0497 4.90689 33.923 4.93748 33.674 5.00302C32.8088 5.71959 32.7651 7.27946 31.8913 7.95234C31.3538 7.49356 30.2921 7.29694 29.6017 7.21829C29.7197 6.51482 29.8726 4.34324 29.475 3.79707C29.3745 3.65725 29.2827 3.60919 29.108 3.59171C28.9725 3.57861 28.8371 3.61356 28.7016 3.63978C28.304 4.66221 28.8808 6.44491 28.4001 7.2445C27.6268 7.36685 26.9277 7.58968 26.1805 7.81252C26.0844 7.26198 24.7736 5.3482 24.3148 5.05982C24.1007 4.92437 24.0002 4.90689 23.7555 4.94622C23.5982 5.15158 23.5239 5.34383 23.5632 5.61036C23.6812 6.44491 25.2673 7.69892 25.2105 8.37617C24.8347 8.97915 23.9521 9.64329 23.4584 10.2244L23.3754 10.1851C22.7374 9.87924 20.7188 8.24509 20.1464 8.47666C20.0109 8.53347 19.9585 8.64707 19.8755 8.76067C19.8667 9.05779 19.8973 9.21509 20.1114 9.44667C20.7494 10.1501 22.1869 10.5652 22.6675 11.2075C22.7331 11.6095 22.4141 13.082 22.1694 13.3966C22.1476 13.4228 22.1257 13.449 22.1039 13.4752C21.4048 13.4665 19.0409 13.2262 18.5254 13.6937C18.3986 13.9296 18.3812 13.9777 18.3943 14.2442C18.5647 14.502 18.7569 14.585 19.0584 14.6418C19.976 14.8254 21.1339 14.6899 22.0733 14.6855C22.3092 14.9958 22.6894 16.6037 22.6063 16.9969C22.602 17.0144 22.5932 17.0363 22.5889 17.0537C22.5758 17.0668 22.5627 17.08 22.5452 17.0931C21.964 17.5912 19.8667 18.3383 19.8099 19.0724C19.8012 19.2035 19.858 19.2734 19.9192 19.387C20.177 19.5399 20.3823 19.5486 20.6751 19.4787C21.1994 19.352 22.7243 18.465 23.0345 18.0587C23.2049 18.1723 25.1056 20.0599 25.1318 20.1647C25.1275 20.1997 25.1275 20.239 25.1275 20.274C25.0401 21.209 23.288 22.262 23.7555 23.2451C23.9346 23.3981 23.939 23.4155 24.1837 23.4286C24.7867 23.2014 25.9489 21.5323 26.1543 20.9381C26.1849 20.8551 26.1805 20.842 26.1849 20.7677C26.9495 20.9905 27.7054 21.2352 28.505 21.2877C28.8152 21.9999 28.1948 24.6477 28.9419 24.9361C29.0162 24.9667 29.1211 24.9667 29.1997 24.9754C29.4051 24.8836 29.5711 24.8531 29.6454 24.6127C29.8464 23.9442 29.7896 21.9736 29.6323 21.3008C30.3445 21.2352 31.2927 21.0692 31.8956 20.6716C31.9131 20.6847 31.9262 20.6978 31.9437 20.7109C32.6297 21.3313 33.1933 23.3456 34.1677 23.3762C34.3818 23.2713 34.3993 23.2451 34.5129 23.0354C34.5435 22.5548 33.2851 20.4881 32.9355 20.0686C32.9268 20.0555 32.9137 20.0468 32.905 20.0336C33.4424 19.754 34.3599 18.9894 34.5391 18.382C34.5478 18.3471 34.5478 18.3077 34.5522 18.2728L34.6309 18.299C35.2863 18.5175 37.436 19.9943 37.9254 19.8021C38.1307 19.7191 38.2181 19.6273 38.3273 19.4394C38.3186 19.1685 38.1963 19.0287 38.004 18.8495C37.4229 18.3077 35.8455 17.5125 35.1027 17.3028C35.5659 16.8484 35.7625 15.6992 35.7319 15.07C35.7276 14.9695 35.7057 14.8953 35.6751 14.7991C36.6145 14.7817 38.8211 14.9827 39.5245 14.3884C39.5988 14.2049 39.6381 14.1568 39.5639 13.9646C39.5027 13.7986 39.3585 13.6675 39.2143 13.615ZM34.6658 14.6287C34.6614 14.7249 34.6571 14.8254 34.6483 14.9215C34.6396 15.0176 34.6309 15.1137 34.6177 15.2142C34.6046 15.3104 34.5872 15.4065 34.5697 15.5026C34.5522 15.5987 34.5304 15.6949 34.5085 15.7866C34.4867 15.8827 34.4604 15.9745 34.4299 16.0706C34.4036 16.1624 34.3731 16.2585 34.3381 16.3503C34.3075 16.442 34.2726 16.5338 34.2332 16.6255C34.1939 16.7173 34.1546 16.8047 34.1153 16.8921C34.0759 16.9795 34.0322 17.0668 33.9842 17.1542C33.9405 17.2416 33.8881 17.3246 33.84 17.4077C33.7876 17.4907 33.7395 17.5737 33.6827 17.6567C33.6303 17.7397 33.5735 17.8184 33.5123 17.897C33.4555 17.9757 33.3943 18.05 33.3331 18.1286C33.272 18.1985 33.2108 18.2728 33.1496 18.3383C33.0841 18.4082 33.0186 18.4738 32.953 18.5393C32.8875 18.6049 32.8176 18.6704 32.7477 18.7316C32.6777 18.7927 32.6078 18.8539 32.5336 18.9151C32.4593 18.9719 32.385 19.0287 32.3107 19.0855C32.2364 19.1423 32.1578 19.1947 32.0791 19.2428C32.0005 19.2952 31.9218 19.3433 31.8388 19.3913C31.7558 19.4394 31.6728 19.4831 31.5898 19.5268C31.5068 19.5705 31.4237 19.6098 31.3363 19.6491C31.2533 19.6885 31.1659 19.7234 31.0786 19.7584C30.9912 19.7933 30.9038 19.8239 30.8164 19.8545C30.729 19.8851 30.6372 19.9113 30.5499 19.9375C30.4581 19.9637 30.3707 19.9856 30.279 20.0074C30.1872 20.0293 30.0954 20.0468 30.0037 20.0642C29.9119 20.0817 29.8202 20.0948 29.7284 20.1079C29.6367 20.121 29.5405 20.1298 29.4488 20.1385C28.5618 20.3919 27.2117 19.9244 26.4339 19.4918C25.027 18.7097 23.8997 17.3552 23.4802 15.791C23.0782 14.2923 23.3754 12.6407 24.1531 11.3124C25.0882 9.72194 26.4864 8.89176 28.2297 8.44171C29.759 8.27568 31.1397 8.60775 32.3588 9.56464C32.4374 9.63018 32.5161 9.69572 32.5947 9.76126C32.669 9.8268 32.7433 9.89671 32.8176 9.97099C32.8918 10.0409 32.9618 10.1152 33.0317 10.1895C33.1016 10.2637 33.1671 10.3424 33.2327 10.4167C33.2982 10.4953 33.3637 10.574 33.4249 10.657C33.4861 10.74 33.5473 10.823 33.6041 10.906C33.6609 10.9891 33.7176 11.0764 33.7701 11.1638C33.8225 11.2512 33.8749 11.3386 33.923 11.4304C33.9711 11.5177 34.0191 11.6095 34.0628 11.7013C34.1065 11.793 34.1502 11.8848 34.1895 11.9809C34.2289 12.0727 34.2682 12.1688 34.3032 12.2649C34.3381 12.361 34.3687 12.4572 34.3993 12.5533C34.4299 12.6494 34.4561 12.7499 34.4823 12.846C34.5085 12.9465 34.5304 13.0427 34.5522 13.1432C34.5741 13.2436 34.5915 13.3441 34.6046 13.4446C34.6221 13.5451 34.6308 13.6456 34.644 13.7461C34.6527 13.8423 34.6614 13.9384 34.6702 14.0389C34.6745 14.135 34.6789 14.2355 34.6789 14.3316C34.6702 14.4321 34.6702 14.5326 34.6658 14.6287Z" fill="#ED1B24"/>
<path d="M32.6863 13.9426C32.6819 13.8771 32.6732 13.8115 32.6645 13.746C32.6557 13.6805 32.6426 13.6149 32.6339 13.5494C32.6208 13.4838 32.6077 13.4183 32.5902 13.3528C32.5727 13.2872 32.5552 13.2217 32.5377 13.1605C32.5203 13.095 32.4984 13.0338 32.4766 12.9726C32.4547 12.9114 32.4285 12.8459 32.4067 12.7847C32.3805 12.7236 32.3542 12.6624 32.328 12.6012C32.3018 12.5401 32.2712 12.4832 32.2363 12.4221C32.2057 12.3653 32.1707 12.3041 32.1401 12.2473C32.1052 12.1905 32.0702 12.1337 32.0353 12.0769C31.9959 12.0201 31.961 11.9677 31.9217 11.9152C31.8823 11.8628 31.843 11.8104 31.7993 11.7579C31.7556 11.7055 31.7119 11.6574 31.6682 11.605C31.6246 11.5569 31.5765 11.5089 31.5284 11.4608C31.4804 11.4128 31.4323 11.3691 31.3842 11.3254C30.6589 10.6743 29.7894 10.3728 28.8194 10.434C28.7408 10.4384 28.6578 10.4471 28.5791 10.4515C27.3906 10.7355 26.4687 11.2467 25.8264 12.3216C25.7914 12.3784 25.7609 12.4352 25.7303 12.492C25.6997 12.5488 25.6691 12.61 25.6429 12.6668C25.6167 12.7279 25.5905 12.7847 25.5642 12.8459C25.538 12.9071 25.5162 12.9683 25.4943 13.0294C25.4725 13.0906 25.4506 13.1518 25.4332 13.2173C25.4157 13.2785 25.3982 13.344 25.3851 13.4052C25.372 13.4664 25.3545 13.5319 25.3414 13.5974C25.3283 13.663 25.3196 13.7242 25.3108 13.7897C25.3021 13.8552 25.2933 13.9208 25.289 13.9863C25.2846 14.0519 25.2802 14.1174 25.2759 14.1829C25.2715 14.2485 25.2715 14.314 25.2715 14.3796C25.2715 14.4451 25.2759 14.5106 25.2802 14.5762C25.2846 14.6417 25.289 14.7073 25.2977 14.7728C25.3064 14.8383 25.3152 14.9039 25.3239 14.965C25.3327 15.0306 25.3458 15.0918 25.3589 15.1573C25.372 15.2228 25.3895 15.284 25.4069 15.3496C25.6647 16.3064 26.2764 17.1716 27.1416 17.661C27.7533 18.0061 28.448 18.1547 29.1427 18.1285C30.1302 18.0848 30.9997 17.7483 31.6814 17.0143C32.3892 16.2453 32.7431 15.1835 32.6994 14.1436C32.695 14.0737 32.6907 14.0082 32.6863 13.9426ZM30.9123 16.2016C30.4405 16.7128 29.8287 16.9662 29.1427 16.9968C28.5441 16.9924 28.0286 16.8832 27.5261 16.5424C27.4911 16.5162 27.4518 16.49 27.4168 16.4637C27.3819 16.4375 27.3469 16.4069 27.312 16.3807C27.277 16.3501 27.2464 16.3239 27.2115 16.2933C27.1809 16.2628 27.146 16.2322 27.1154 16.2016C27.0848 16.171 27.0542 16.136 27.0236 16.1011C26.993 16.0661 26.9668 16.0312 26.9362 15.9962C26.91 15.9613 26.8838 15.9263 26.8576 15.887C26.8314 15.852 26.8051 15.8127 26.7833 15.7778C26.7571 15.7384 26.7352 15.7035 26.7134 15.6641C26.6915 15.6248 26.6697 15.5855 26.6478 15.5462C26.626 15.5069 26.6085 15.4675 26.591 15.4238C26.5736 15.3845 26.5561 15.3408 26.5386 15.3015C26.5211 15.2578 26.508 15.2185 26.4949 15.1748C26.4818 15.1311 26.4687 15.0918 26.4556 15.0481C26.4425 15.0044 26.4337 14.9607 26.425 14.917C26.4163 14.8733 26.4075 14.8296 26.3988 14.7859C26.39 14.7422 26.3857 14.6985 26.3769 14.6505C26.3726 14.6068 26.3682 14.5587 26.3638 14.515C26.3595 14.4713 26.3595 14.4233 26.3551 14.3796C26.3551 14.3359 26.3551 14.2878 26.3551 14.2441C26.3551 14.2004 26.3595 14.1523 26.3638 14.1087C26.3682 14.065 26.3726 14.0169 26.3769 13.9732C26.3813 13.9295 26.39 13.8858 26.3988 13.8378C26.4075 13.7941 26.4163 13.7504 26.425 13.7067C26.4337 13.663 26.4468 13.6193 26.4556 13.5756C26.4687 13.5319 26.4818 13.4882 26.4949 13.4445C26.508 13.4008 26.5255 13.3571 26.5386 13.3178C26.5561 13.2741 26.5692 13.2348 26.591 13.1911C26.6085 13.1518 26.626 13.1081 26.6478 13.0687C26.6697 13.0294 26.6915 12.9901 26.7134 12.9508C26.7352 12.9114 26.7571 12.8721 26.7833 12.8328C26.8095 12.7935 26.8314 12.7585 26.8576 12.7192C27.3295 12.0463 27.9674 11.7361 28.7582 11.5875C29.4967 11.5657 30.104 11.6618 30.6677 12.1687C31.2357 12.6799 31.5634 13.4445 31.5983 14.2004C31.6377 14.9257 31.4017 15.6685 30.9123 16.2016Z" fill="#ED1B24"/>
</svg>
