<svg width="47" height="34" viewBox="0 0 47 34" fill="none" xmlns="http://www.w3.org/2000/svg">
<path d="M0.0542781 22.2592C0.528489 22.9641 2.22881 25.2753 2.97217 25.4505C3.31822 25.5317 3.76253 25.4889 4.12139 25.4847C4.14275 26.6467 4.31791 27.672 5.1937 28.5264C5.78326 29.1032 6.47963 29.3937 7.29134 29.4535C7.28707 30.3891 7.07773 32.8285 7.53058 33.5505C8.14578 33.8667 16.6773 33.7684 18.0529 33.7001C18.4545 33.6787 18.8476 33.6189 19.2406 33.5334L19.1082 33.5505L19.3346 33.4779C19.6465 32.6235 19.4414 30.4532 19.4286 29.4706C20.4026 29.3382 21.2357 28.9836 21.8424 28.1719C22.3977 27.4242 22.5345 26.5655 22.5345 25.6555L29.9082 25.6641C29.8911 26.3391 29.7416 27.3431 29.9638 27.9753C30.6388 28.3342 36.4148 28.3641 37.2436 28.1206C37.4059 28.0736 37.4743 27.9668 37.5469 27.8087C37.7391 27.39 37.6366 26.6125 37.6238 26.1511L37.6665 25.8008C38.6491 25.0873 41.0501 26.7706 41.6225 24.0706C42.7846 24.0748 45.2539 24.3995 46.104 23.5579C46.5697 23.0965 46.6808 22.4471 46.6637 21.8149C46.6466 21.2168 46.4672 20.6187 46.4629 20.0291C46.4586 19.5762 46.668 19.1191 46.6936 18.662C46.7278 18.0169 46.5227 17.3547 46.4885 16.7096C46.4202 15.4237 46.8944 14.5863 46.3732 13.2534C46.6765 12.4802 46.8602 11.3096 46.5184 10.5192C46.3134 10.0365 45.9161 9.69043 45.429 9.511C44.3695 9.11796 42.8444 9.35293 41.7122 9.35293C41.4645 8.77191 41.2679 8.30197 40.6314 8.05846C39.5719 7.6526 35.2015 7.91748 33.7959 7.91321C33.8045 6.70418 34.1377 3.37616 33.326 2.56872C33.1679 2.41064 32.9842 2.28248 32.7962 2.16713C30.7755 2.04751 28.5924 2.03042 26.5717 2.16286C26.0206 2.53881 25.7728 2.84213 25.6489 3.50859C25.3968 4.85433 25.6275 6.58029 25.6019 7.97729H22.5345C22.5088 6.69991 22.5216 1.19308 21.7142 0.424084C21.4878 0.206203 21.2186 0.0951265 20.911 0.056677C20.1805 -0.0373109 19.403 0.0139552 18.6639 0.0139552H14.6395L8.78233 0.0182273C7.75274 0.0182273 6.69751 -0.0202223 5.66792 0.0438603L5.60383 0.0481326C5.10826 0.287374 4.84339 0.488166 4.65541 1.03073C4.12566 2.57299 4.17693 5.78139 4.12566 7.50308C3.07043 8.40023 0.818998 10.6559 0.0628227 11.7667C0.0329175 13.9797 0.0243729 16.197 0.0329173 18.4099C0.0243729 19.6745 -0.0482541 20.9989 0.0542781 22.2592ZM41.5798 10.5363C42.5197 10.5491 44.1944 10.2843 45.0232 10.6175C45.2453 10.7072 45.412 10.8696 45.5059 11.0917C45.6768 11.5018 45.4803 12.1512 45.3308 12.5528C44.2328 12.7493 42.7119 12.587 41.5755 12.5827L41.5798 10.5363ZM41.5755 13.843C42.541 13.8686 43.5237 13.749 44.4806 13.796C44.7839 13.8088 45.1172 13.8943 45.3137 14.142C45.6811 14.6034 45.4974 15.3639 45.4248 15.8979C44.7113 16.2055 42.477 16.0175 41.5755 16.0132V13.843ZM44.9249 17.2864C45.2026 17.3761 45.3863 17.5341 45.5017 17.799C45.6811 18.2049 45.4974 18.9568 45.3436 19.3626C44.5832 19.6019 42.4983 19.4353 41.5755 19.4267L41.5713 17.2265C42.5838 17.2394 43.9765 16.983 44.9249 17.2864ZM44.989 20.7383C45.2325 20.828 45.3863 20.9818 45.4974 21.2168C45.6896 21.6312 45.5145 22.3574 45.3692 22.7761C44.7199 23.0623 42.4214 22.8829 41.567 22.8701L41.5584 20.6785C42.5069 20.6956 44.1559 20.4307 44.989 20.7383ZM38.3287 19.3413L38.333 9.13505C38.8456 9.11369 39.3711 9.0966 39.8795 9.11796C40.1016 9.1265 40.3024 9.14786 40.4605 9.31448C40.5673 10.3483 40.5032 11.4207 40.4947 12.4631L40.4776 17.4359L40.469 21.7764C40.4648 22.6223 40.5417 23.5365 40.3879 24.3654C39.8453 24.626 38.9524 24.5149 38.3543 24.5149C38.2902 22.7975 38.333 21.063 38.3287 19.3413ZM36.5386 27.0696C34.7144 27.0867 32.8902 27.0867 31.066 27.0739C31.0489 26.5954 31.0489 26.1169 31.0404 25.6385C32.8731 25.6641 34.7059 25.6086 36.5429 25.647L36.5386 27.0696ZM31.4163 3.27362L32.6168 3.3078C32.6894 4.42711 32.6339 5.5806 32.6339 6.70418C32.6339 8.29343 32.6681 9.89122 32.5997 11.4762L31.412 11.4805L31.4163 3.27362ZM29.0282 3.27362L30.2671 3.26935C30.3269 6.00354 30.2885 8.74628 30.297 11.4805H29.0153C29.0752 8.75055 29.0196 6.00354 29.0282 3.27362ZM26.7895 3.69657C26.8194 3.49578 26.8408 3.41888 27.0032 3.30353C27.2638 3.28644 27.5927 3.21381 27.8191 3.35907C27.9729 3.75638 27.9558 10.908 27.832 11.4121L27.6653 11.4976C27.5414 11.4976 27.4133 11.5018 27.2894 11.4933C27.0587 11.4847 26.9391 11.4762 26.7895 11.3053C26.64 10.3142 26.6357 4.71762 26.7895 3.69657ZM25.5976 9.15214C25.5805 10.0493 25.3925 11.3438 25.9308 12.117C26.1786 12.4716 26.5802 12.5485 26.9861 12.6041C27.9729 12.745 31.4548 12.7493 32.4459 12.5912C32.8261 12.5314 33.1935 12.4289 33.5011 12.1939C34.0095 11.4377 33.813 10.0066 33.7959 9.13077L37.2222 9.12223L37.2265 21.1698L37.2393 24.5021H22.5473L22.5345 9.14359L25.5976 9.15214ZM8.41492 32.5936L8.40638 29.4706L18.3178 29.492V32.5893C15.0282 32.6961 11.7045 32.5936 8.41492 32.5936ZM5.24924 7.13994C5.28342 5.92664 5.33896 2.3722 5.72345 1.37678C5.78326 1.22725 5.82171 1.2358 5.97124 1.16744L15.511 1.17599C17.3352 1.17599 19.1765 1.12472 21.0007 1.21016C21.5177 4.51256 21.4621 8.02428 21.4322 11.3566L21.4109 17.9614L21.4237 23.0623C21.4322 24.1304 21.492 25.2241 21.3981 26.2878C21.3254 27.1124 20.9708 27.4969 20.3556 28.001C20.2958 28.0351 20.236 28.0693 20.1762 28.0992C19.8729 28.2488 19.5653 28.3043 19.2278 28.3257C17.3096 28.4495 15.3188 28.3128 13.3963 28.3043C11.4994 28.3 9.57268 28.4196 7.68011 28.3342C7.34261 28.3171 6.99229 28.2744 6.67188 28.159C6.12931 27.9668 5.65937 27.4584 5.43722 26.9329C5.33041 26.6766 5.30051 26.3861 5.28769 26.1127C5.15953 23.5707 5.28769 20.969 5.27915 18.4185C5.25779 14.6718 5.14244 10.8909 5.24924 7.13994ZM4.04449 9.14359C4.27091 10.1518 4.12139 14.0566 4.12993 15.3382L4.15557 21.063C4.15984 22.0797 4.23674 23.1563 4.11284 24.1646C3.95477 24.3483 3.92914 24.344 3.70699 24.3995C3.08325 24.2457 2.77993 23.8185 2.38261 23.3614C1.94258 22.8658 1.52391 22.366 1.12659 21.8405C1.20349 18.6364 1.15223 15.4109 1.11805 12.2025C2.0622 11.1601 3.06189 10.1561 4.04449 9.14359Z" fill="#ED1B24"/>
<path d="M6.65905 23.0155C6.72313 23.1479 6.94529 23.2291 7.07772 23.2676C7.95779 23.541 17.6129 23.3786 19.3645 23.3658C19.6806 23.2761 19.9882 23.1992 20.1506 22.8831C20.3556 22.4857 20.3855 12.4675 20.1506 11.9207C19.9968 11.5618 19.7148 11.1987 19.3346 11.0748C18.5186 10.8099 8.99593 10.9381 7.47076 10.9765C7.05209 11.173 6.65478 11.4037 6.48389 11.8651C6.21475 12.5914 6.2831 20.418 6.36427 21.6527C6.3899 22.1055 6.45399 22.6096 6.65905 23.0155ZM19.1082 16.4876L19.0996 17.5813L7.40668 17.5599V16.4492C11.3072 16.4321 15.2077 16.4449 19.1082 16.4876ZM7.47931 14.2234C8.70969 14.202 18.7707 14.1037 19.0783 14.2917C19.1338 14.6121 19.0996 14.9197 19.074 15.2401L7.43659 15.2359C7.42377 14.8984 7.45368 14.5609 7.47931 14.2234ZM19.074 22.2337L7.43231 22.1781C7.4195 21.862 7.34687 21.3365 7.53485 21.0887C11.3841 21.0118 15.2547 21.0887 19.1082 21.093C19.1167 21.4775 19.1124 21.8492 19.074 22.2337ZM19.1124 19.9481L7.47076 19.9395L7.43659 18.7989L19.121 18.8031L19.1124 19.9481ZM7.47504 12.3009C7.78263 12.0018 8.6328 12.1086 9.04292 12.1129L15.6691 12.1044C16.7115 12.1044 17.8607 12.0018 18.886 12.1599C19.0783 12.2966 19.0996 12.3692 19.1979 12.5743C19.1808 12.6939 19.1979 12.7366 19.1039 12.8264C18.8048 13.1083 17.9205 13.0015 17.5232 12.9972C16.3184 13.0058 7.97915 13.1254 7.54766 12.9246C7.41523 12.8648 7.40668 12.7196 7.36396 12.5871C7.38532 12.4547 7.36823 12.4034 7.47504 12.3009Z" fill="#ED1B24"/>
</svg>
