<svg width="47" height="29" viewBox="0 0 47 29" fill="none" xmlns="http://www.w3.org/2000/svg">
<path d="M46.0142 10.6494C45.3457 10.0149 42.8931 10.3088 41.9435 10.3088C41.9563 8.03923 42.4034 5.50998 40.6661 3.75142C39.5889 2.66137 37.4726 0.136375 35.8887 0.144891C35.2755 0.149149 34.8071 0.434438 34.3941 0.860238C34.194 1.06888 34.0535 1.30307 33.9427 1.56707C25.1713 1.55429 16.387 1.43933 7.61977 1.57558C7.39409 0.970948 7.07048 0.485531 6.46159 0.208761C6.0145 0.00437704 5.59296 -0.0169109 5.1118 0.00863713C4.86484 0.0980552 4.61362 0.187474 4.40072 0.34502C3.52782 0.996495 0.772896 3.79826 0.313032 4.71373C0.108648 5.11824 0.0873577 5.67604 0.0660677 6.11887C-0.0318664 7.98814 -0.0446404 23.2275 0.193808 23.8918C0.59406 24.9989 3.71518 28.1796 4.80523 28.6778C5.23528 28.8736 5.76328 28.8524 6.20185 28.6863C6.9172 28.4138 7.35577 27.8177 7.70493 27.1662C16.4253 27.1193 25.1457 27.1193 33.8661 27.1662C34.1684 27.8177 34.5133 28.4223 35.2287 28.6778C35.8205 28.8907 36.489 28.7672 37.0341 28.4819C37.8729 28.0433 38.5755 27.2173 39.2482 26.553C40.6363 25.2331 41.9265 24.1558 41.9733 22.0864C42.0031 20.7196 41.9691 19.3442 41.9606 17.9774C42.9144 17.9902 45.3925 18.267 46.061 17.6368C46.9382 16.8107 46.6699 13.6853 46.6444 12.4931C46.6231 11.8672 46.4996 11.105 46.0142 10.6494ZM3.48099 5.04586L3.47247 9.41883L3.48099 26.1145C3.11054 25.7227 2.73584 25.331 2.35687 24.9478C1.91404 24.4879 1.32644 23.9812 1.15612 23.3468C0.926184 22.4909 1.08799 20.1192 1.08799 19.0973L1.07096 8.43523C1.07096 4.94792 0.99857 5.32688 3.43415 2.88705C3.57466 3.53001 3.48099 4.37309 3.48099 5.04586ZM6.50843 26.7787C6.44456 27.1875 6.11669 27.3706 5.8016 27.5792C5.6696 27.5962 5.53334 27.5962 5.40135 27.5877C5.14161 27.5664 4.82652 27.345 4.68174 27.1321C4.554 26.9448 4.56678 26.5871 4.56252 26.3657C4.46033 20.5705 4.55826 14.7584 4.54975 8.96322C4.54975 7.71563 4.38794 2.77208 4.60084 1.86938C4.67749 1.54152 5.00961 1.36694 5.27361 1.19662C5.36728 1.19662 5.46096 1.20088 5.55463 1.20514C5.86973 1.22217 6.13372 1.29881 6.34237 1.55429C6.55527 1.81403 6.54675 2.26963 6.55952 2.59324C6.62765 4.51786 6.56804 6.45951 6.56378 8.38413L6.55527 18.3521L6.56378 23.9855C6.55952 24.8754 6.64894 25.893 6.50843 26.7787ZM7.65383 2.74227L33.9087 2.73376V8.58426L7.65383 8.60555V2.74227ZM33.9002 9.7254L33.8959 13.8982L7.64957 13.894L7.64106 9.7254H33.9002ZM33.8874 15.0224L33.8789 19.3272L7.64531 19.2761V15.0181C16.3913 14.9159 25.1457 15.0138 33.8874 15.0224ZM33.8576 26.008L7.65809 26.0336L7.64531 20.4385L33.8831 20.4428C33.8874 22.2865 33.9726 24.1685 33.8576 26.008ZM36.8935 26.7446C36.8424 27.196 36.5955 27.345 36.2634 27.6133C36.1739 27.609 36.0845 27.6005 35.9951 27.5962C35.9696 27.5962 35.944 27.592 35.9185 27.592C35.663 27.5707 35.3905 27.477 35.2287 27.2684C35.02 27.0001 35.0328 26.6084 35.02 26.2848C34.9476 24.522 35.02 22.7251 35.0285 20.958L35.0371 11.5052V5.28856C35.0371 4.29219 34.9519 3.21917 35.0583 2.23131C35.1052 1.79274 35.3692 1.62242 35.6843 1.36268C35.7567 1.36268 35.8248 1.36268 35.8972 1.36694C36.1825 1.37972 36.4294 1.43507 36.621 1.665C36.8297 1.92048 36.9021 2.36757 36.9191 2.69118C36.9872 4.19425 36.9106 5.74417 36.9148 7.25576L36.9191 17.3302L36.9319 23.3127C36.9319 24.4368 37.017 25.6248 36.8935 26.7446ZM40.7854 11.0582L40.7811 21.4732C40.7768 22.8741 40.598 23.5895 39.5761 24.5986L38.0347 26.0974L38.0304 2.8615C38.584 3.24046 39.1375 3.81955 39.6144 4.29644C40.0487 4.73076 40.5512 5.3056 40.6874 5.92301C40.9599 7.15783 40.7854 9.67431 40.7854 11.0582ZM45.4095 16.7213C44.3749 17.0023 43.0293 16.849 41.952 16.8405C41.9393 15.0437 41.9393 13.251 41.9606 11.4542C42.6929 11.4712 44.2812 11.3009 44.8858 11.4499C45.0987 11.501 45.269 11.6245 45.3755 11.8161C45.6906 12.3994 45.5969 15.9932 45.4095 16.7213Z" fill="#ED1B24"/>
</svg>
